<svg width="304" height="144" viewBox="0 0 304 144" fill="none" xmlns="http://www.w3.org/2000/svg">
<rect width="304" height="144" rx="20" fill="white"/>
<mask id="mask0_129_2" style="mask-type:alpha" maskUnits="userSpaceOnUse" x="0" y="0" width="304" height="144">
<rect width="304" height="144" rx="20" fill="white"/>
</mask>
<g mask="url(#mask0_129_2)">
<rect width="304" height="28.1905" fill="#160101"/>
</g>
<path d="M92.0957 21.0952V20.2622H92.6907C92.8947 20.2622 93.0761 20.2396 93.2347 20.1942C93.3934 20.1376 93.5181 20.0299 93.6087 19.8712C93.7107 19.7126 93.7617 19.4689 93.7617 19.1402V9.92625H92.2997C91.9597 9.92625 91.6934 9.98291 91.5007 10.0962C91.3081 10.1982 91.1664 10.3456 91.0757 10.5382C90.9851 10.7309 90.9227 10.9519 90.8887 11.2012L90.7867 12.1362H89.7497L89.8347 8.95724H100.035L100.12 12.1362H99.0827L98.9637 11.2012C98.9411 10.9519 98.8787 10.7309 98.7767 10.5382C98.6861 10.3456 98.5444 10.1982 98.3517 10.0962C98.1591 9.98291 97.8927 9.92625 97.5527 9.92625H96.0907V19.1232C96.0907 19.4519 96.1361 19.7012 96.2267 19.8712C96.3174 20.0299 96.4477 20.1376 96.6177 20.1942C96.7877 20.2396 96.9691 20.2622 97.1617 20.2622H97.7567V21.0952H92.0957ZM104.788 21.2652C103.484 21.2652 102.453 20.8742 101.694 20.0922C100.946 19.3102 100.572 18.1146 100.572 16.5052C100.572 14.9186 100.929 13.7342 101.643 12.9522C102.368 12.1702 103.433 11.7792 104.839 11.7792C106.153 11.7792 107.185 12.1702 107.933 12.9522C108.681 13.7342 109.055 14.9186 109.055 16.5052C109.055 18.1146 108.692 19.3102 107.967 20.0922C107.253 20.8742 106.193 21.2652 104.788 21.2652ZM104.822 20.2622C105.309 20.2622 105.694 20.1262 105.978 19.8542C106.272 19.5709 106.482 19.1459 106.607 18.5792C106.731 18.0126 106.794 17.3212 106.794 16.5052C106.794 15.6779 106.726 14.9922 106.59 14.4482C106.465 13.9042 106.255 13.4962 105.961 13.2242C105.677 12.9409 105.292 12.7992 104.805 12.7992C104.329 12.7992 103.943 12.9409 103.649 13.2242C103.354 13.4962 103.144 13.9042 103.02 14.4482C102.895 14.9922 102.833 15.6779 102.833 16.5052C102.833 17.3326 102.895 18.0239 103.02 18.5792C103.156 19.1346 103.365 19.5539 103.649 19.8372C103.943 20.1206 104.334 20.2622 104.822 20.2622ZM110.153 25.1752V24.3422H110.323C110.527 24.3422 110.726 24.3139 110.918 24.2572C111.122 24.2119 111.287 24.1042 111.411 23.9342C111.547 23.7756 111.615 23.5319 111.615 23.2032V13.9892C111.615 13.6379 111.559 13.3829 111.445 13.2242C111.332 13.0542 111.179 12.9466 110.986 12.9012C110.805 12.8446 110.601 12.8162 110.374 12.8162H110.221V11.9832H113.417L113.672 13.3942H113.74C113.99 12.9182 114.318 12.5386 114.726 12.2552C115.146 11.9606 115.684 11.8132 116.341 11.8132C117.463 11.8132 118.319 12.1929 118.908 12.9522C119.509 13.7116 119.809 14.9129 119.809 16.5562C119.809 18.1996 119.515 19.4009 118.925 20.1602C118.336 20.9082 117.486 21.2822 116.375 21.2822C115.729 21.2822 115.202 21.1576 114.794 20.9082C114.386 20.6476 114.058 20.3019 113.808 19.8712H113.706C113.729 20.0526 113.746 20.2736 113.757 20.5342C113.78 20.7949 113.797 21.0442 113.808 21.2822C113.82 21.5202 113.825 21.7186 113.825 21.8772V23.2202C113.825 23.5489 113.888 23.7926 114.012 23.9512C114.148 24.1099 114.313 24.2119 114.505 24.2572C114.709 24.3139 114.908 24.3422 115.1 24.3422H115.355V25.1752H110.153ZM115.78 20.0922C116.211 20.0922 116.557 19.9619 116.817 19.7012C117.078 19.4292 117.265 19.0326 117.378 18.5112C117.503 17.9899 117.565 17.3382 117.565 16.5562C117.565 15.7856 117.503 15.1396 117.378 14.6182C117.265 14.0856 117.078 13.6889 116.817 13.4282C116.557 13.1562 116.211 13.0202 115.78 13.0202C115.282 13.0202 114.885 13.1506 114.59 13.4112C114.307 13.6719 114.109 14.0686 113.995 14.6012C113.882 15.1339 113.825 15.7856 113.825 16.5562C113.825 17.3382 113.882 17.9956 113.995 18.5282C114.109 19.0496 114.307 19.4406 114.59 19.7012C114.885 19.9619 115.282 20.0922 115.78 20.0922ZM125.616 21.0952V20.2622H126.143C126.347 20.2622 126.529 20.2396 126.687 20.1942C126.846 20.1376 126.971 20.0299 127.061 19.8712C127.163 19.7012 127.214 19.4519 127.214 19.1232V10.9292C127.214 10.5892 127.163 10.3399 127.061 10.1812C126.971 10.0226 126.846 9.92058 126.687 9.87524C126.529 9.81858 126.347 9.79024 126.143 9.79024H125.616V8.95724H131.124V9.79024H130.597C130.405 9.79024 130.229 9.81291 130.07 9.85825C129.912 9.90358 129.781 10.0056 129.679 10.1642C129.589 10.3116 129.543 10.5439 129.543 10.8612V20.1262H132.773C133.057 20.1262 133.295 20.0639 133.487 19.9392C133.691 19.8146 133.85 19.6389 133.963 19.4122C134.077 19.1742 134.162 18.9136 134.218 18.6302L134.439 17.3552H135.374L135.255 21.0952H125.616ZM139.43 21.2652C138.932 21.2652 138.478 21.1689 138.07 20.9762C137.674 20.7722 137.356 20.4662 137.118 20.0582C136.892 19.6502 136.778 19.1346 136.778 18.5112C136.778 17.6046 137.096 16.9302 137.73 16.4882C138.365 16.0462 139.323 15.8026 140.603 15.7572L142.014 15.7062V14.7372C142.014 14.3519 141.986 14.0119 141.929 13.7172C141.873 13.4112 141.754 13.1732 141.572 13.0032C141.402 12.8332 141.13 12.7482 140.756 12.7482C140.416 12.7482 140.15 12.8276 139.957 12.9862C139.765 13.1449 139.634 13.3659 139.566 13.6492C139.498 13.9212 139.464 14.2329 139.464 14.5842C138.807 14.5842 138.314 14.5049 137.985 14.3462C137.657 14.1762 137.492 13.8872 137.492 13.4792C137.492 13.0712 137.64 12.7426 137.934 12.4932C138.24 12.2439 138.648 12.0626 139.158 11.9492C139.668 11.8359 140.224 11.7792 140.824 11.7792C141.958 11.7792 142.808 12.0002 143.374 12.4422C143.941 12.8729 144.224 13.6209 144.224 14.6862V19.0552C144.224 19.3612 144.253 19.6049 144.309 19.7862C144.377 19.9562 144.491 20.0809 144.649 20.1602C144.808 20.2282 145.012 20.2622 145.261 20.2622H145.312V21.0952H142.49L142.15 19.8202H142.014C141.765 20.1262 141.527 20.3869 141.3 20.6022C141.085 20.8176 140.83 20.9819 140.535 21.0952C140.252 21.2086 139.884 21.2652 139.43 21.2652ZM140.161 20.0922C140.547 20.0922 140.875 20.0016 141.147 19.8202C141.419 19.6389 141.629 19.3782 141.776 19.0382C141.935 18.6982 142.014 18.3016 142.014 17.8482V16.5392L141.13 16.5902C140.598 16.6129 140.178 16.7036 139.872 16.8622C139.578 17.0209 139.362 17.2419 139.226 17.5252C139.102 17.8086 139.039 18.1599 139.039 18.5792C139.039 18.9192 139.079 19.2026 139.158 19.4292C139.238 19.6446 139.362 19.8089 139.532 19.9222C139.702 20.0356 139.912 20.0922 140.161 20.0922ZM146.315 21.0952V20.2622H146.383C146.643 20.2622 146.876 20.2339 147.08 20.1772C147.284 20.1206 147.442 20.0072 147.556 19.8372C147.68 19.6672 147.743 19.4122 147.743 19.0722V13.9382C147.743 13.6096 147.686 13.3659 147.573 13.2072C147.459 13.0486 147.306 12.9466 147.114 12.9012C146.932 12.8446 146.717 12.8162 146.468 12.8162H146.4V11.9832H149.664L149.885 13.2582H149.97C150.196 12.8276 150.44 12.5102 150.701 12.3062C150.973 12.0909 151.262 11.9492 151.568 11.8812C151.885 11.8132 152.225 11.7792 152.588 11.7792C153.472 11.7792 154.163 12.0399 154.662 12.5612C155.16 13.0826 155.41 13.9212 155.41 15.0772V19.0552C155.41 19.4066 155.455 19.6672 155.546 19.8372C155.648 20.0072 155.784 20.1206 155.954 20.1772C156.135 20.2339 156.35 20.2622 156.6 20.2622H156.668V21.0952H153.2V15.4002C153.2 14.6636 153.081 14.0969 152.843 13.7002C152.616 13.2922 152.219 13.0882 151.653 13.0882C151.222 13.0882 150.882 13.2129 150.633 13.4622C150.395 13.7116 150.219 14.0402 150.106 14.4482C150.004 14.8562 149.953 15.2982 149.953 15.7742V19.1402C149.953 19.4689 150.004 19.7126 150.106 19.8712C150.219 20.0299 150.372 20.1376 150.565 20.1942C150.757 20.2396 150.978 20.2622 151.228 20.2622H151.296V21.0952H146.315ZM161.108 25.1752C159.827 25.1752 158.87 24.9656 158.235 24.5462C157.612 24.1382 157.3 23.5432 157.3 22.7612C157.3 22.3419 157.391 21.9906 157.572 21.7072C157.753 21.4239 158.014 21.2029 158.354 21.0442C158.694 20.8742 159.085 20.7666 159.527 20.7212C159.255 20.6079 159 20.4322 158.762 20.1942C158.524 19.9449 158.405 19.6276 158.405 19.2422C158.405 18.8909 158.524 18.5792 158.762 18.3072C159.011 18.0352 159.346 17.7802 159.765 17.5422C159.266 17.3496 158.864 17.0266 158.558 16.5732C158.252 16.1199 158.099 15.5702 158.099 14.9242C158.099 13.9382 158.377 13.1676 158.932 12.6122C159.499 12.0569 160.36 11.7792 161.516 11.7792C161.924 11.7792 162.304 11.8359 162.655 11.9492C163.018 12.0512 163.307 12.1759 163.522 12.3232C163.692 12.1419 163.862 11.9832 164.032 11.8472C164.202 11.6999 164.383 11.5866 164.576 11.5072C164.78 11.4279 165.001 11.3882 165.239 11.3882C165.624 11.3882 165.908 11.4846 166.089 11.6772C166.282 11.8586 166.378 12.0739 166.378 12.3232C166.378 12.5612 166.299 12.7766 166.14 12.9692C165.981 13.1619 165.698 13.2582 165.29 13.2582C165.29 13.0656 165.233 12.9069 165.12 12.7822C165.007 12.6576 164.859 12.5952 164.678 12.5952C164.565 12.5952 164.451 12.6122 164.338 12.6462C164.225 12.6802 164.128 12.7256 164.049 12.7822C164.264 13.0316 164.446 13.3376 164.593 13.7002C164.74 14.0629 164.814 14.4652 164.814 14.9072C164.814 15.7572 164.548 16.4656 164.015 17.0322C163.482 17.5876 162.649 17.8652 161.516 17.8652C161.391 17.8652 161.227 17.8596 161.023 17.8482C160.83 17.8256 160.677 17.8086 160.564 17.7972C160.383 17.8879 160.224 18.0126 160.088 18.1712C159.952 18.3299 159.884 18.5226 159.884 18.7492C159.884 18.9306 159.952 19.0722 160.088 19.1742C160.235 19.2762 160.468 19.3272 160.785 19.3272H162.791C163.516 19.3272 164.106 19.4349 164.559 19.6502C165.012 19.8542 165.347 20.1489 165.562 20.5342C165.777 20.9196 165.885 21.3729 165.885 21.8942C165.885 22.9142 165.494 23.7132 164.712 24.2912C163.941 24.8806 162.74 25.1752 161.108 25.1752ZM161.142 24.2232C161.867 24.2232 162.445 24.1496 162.876 24.0022C163.307 23.8549 163.613 23.6452 163.794 23.3732C163.987 23.1012 164.083 22.7726 164.083 22.3872C164.083 21.9679 163.953 21.6789 163.692 21.5202C163.443 21.3729 163.069 21.2992 162.57 21.2992H160.717C160.456 21.2992 160.196 21.3332 159.935 21.4012C159.686 21.4692 159.476 21.5996 159.306 21.7922C159.147 21.9962 159.068 22.3022 159.068 22.7102C159.068 23.0276 159.136 23.2996 159.272 23.5262C159.419 23.7529 159.646 23.9229 159.952 24.0362C160.258 24.1609 160.655 24.2232 161.142 24.2232ZM161.465 16.9302C161.805 16.9302 162.066 16.8566 162.247 16.7092C162.44 16.5506 162.57 16.3182 162.638 16.0122C162.717 15.7062 162.757 15.3322 162.757 14.8902C162.757 14.4369 162.717 14.0516 162.638 13.7342C162.559 13.4056 162.423 13.1562 162.23 12.9862C162.049 12.8162 161.788 12.7312 161.448 12.7312C161.131 12.7312 160.876 12.8219 160.683 13.0032C160.49 13.1732 160.354 13.4226 160.275 13.7512C160.196 14.0686 160.156 14.4539 160.156 14.9072C160.156 15.3379 160.196 15.7062 160.275 16.0122C160.366 16.3069 160.507 16.5336 160.7 16.6922C160.893 16.8509 161.148 16.9302 161.465 16.9302ZM170.998 21.2652C170.102 21.2652 169.417 20.9989 168.941 20.4662C168.465 19.9222 168.227 19.0722 168.227 17.9162V14.0062C168.227 13.6662 168.176 13.4112 168.074 13.2412C167.972 13.0712 167.824 12.9579 167.632 12.9012C167.45 12.8446 167.229 12.8162 166.969 12.8162H166.935V11.9832H170.437V17.5762C170.437 18.0749 170.476 18.4999 170.556 18.8512C170.646 19.2026 170.799 19.4746 171.015 19.6672C171.23 19.8599 171.525 19.9562 171.899 19.9562C172.318 19.9562 172.658 19.8486 172.919 19.6332C173.179 19.4066 173.372 19.0949 173.497 18.6982C173.621 18.3016 173.684 17.8369 173.684 17.3042V13.9552C173.684 13.6152 173.621 13.3659 173.497 13.2072C173.383 13.0486 173.23 12.9466 173.038 12.9012C172.845 12.8446 172.63 12.8162 172.392 12.8162H172.341V11.9832H175.894V19.1742C175.894 19.5029 175.945 19.7466 176.047 19.9052C176.16 20.0526 176.313 20.1489 176.506 20.1942C176.698 20.2396 176.908 20.2622 177.135 20.2622H177.237V21.0952H174.109L173.786 19.8202H173.701C173.531 20.1262 173.344 20.3756 173.14 20.5682C172.936 20.7496 172.72 20.8912 172.494 20.9932C172.267 21.0952 172.029 21.1632 171.78 21.1972C171.53 21.2426 171.27 21.2652 170.998 21.2652ZM181.1 21.2652C180.602 21.2652 180.148 21.1689 179.74 20.9762C179.344 20.7722 179.026 20.4662 178.788 20.0582C178.562 19.6502 178.448 19.1346 178.448 18.5112C178.448 17.6046 178.766 16.9302 179.4 16.4882C180.035 16.0462 180.993 15.8026 182.273 15.7572L183.684 15.7062V14.7372C183.684 14.3519 183.656 14.0119 183.599 13.7172C183.543 13.4112 183.424 13.1732 183.242 13.0032C183.072 12.8332 182.8 12.7482 182.426 12.7482C182.086 12.7482 181.82 12.8276 181.627 12.9862C181.435 13.1449 181.304 13.3659 181.236 13.6492C181.168 13.9212 181.134 14.2329 181.134 14.5842C180.477 14.5842 179.984 14.5049 179.655 14.3462C179.327 14.1762 179.162 13.8872 179.162 13.4792C179.162 13.0712 179.31 12.7426 179.604 12.4932C179.91 12.2439 180.318 12.0626 180.828 11.9492C181.338 11.8359 181.894 11.7792 182.494 11.7792C183.628 11.7792 184.478 12.0002 185.044 12.4422C185.611 12.8729 185.894 13.6209 185.894 14.6862V19.0552C185.894 19.3612 185.923 19.6049 185.979 19.7862C186.047 19.9562 186.161 20.0809 186.319 20.1602C186.478 20.2282 186.682 20.2622 186.931 20.2622H186.982V21.0952H184.16L183.82 19.8202H183.684C183.435 20.1262 183.197 20.3869 182.97 20.6022C182.755 20.8176 182.5 20.9819 182.205 21.0952C181.922 21.2086 181.554 21.2652 181.1 21.2652ZM181.831 20.0922C182.217 20.0922 182.545 20.0016 182.817 19.8202C183.089 19.6389 183.299 19.3782 183.446 19.0382C183.605 18.6982 183.684 18.3016 183.684 17.8482V16.5392L182.8 16.5902C182.268 16.6129 181.848 16.7036 181.542 16.8622C181.248 17.0209 181.032 17.2419 180.896 17.5252C180.772 17.8086 180.709 18.1599 180.709 18.5792C180.709 18.9192 180.749 19.2026 180.828 19.4292C180.908 19.6446 181.032 19.8089 181.202 19.9222C181.372 20.0356 181.582 20.0922 181.831 20.0922ZM191.572 25.1752C190.291 25.1752 189.333 24.9656 188.699 24.5462C188.075 24.1382 187.764 23.5432 187.764 22.7612C187.764 22.3419 187.854 21.9906 188.036 21.7072C188.217 21.4239 188.478 21.2029 188.818 21.0442C189.158 20.8742 189.549 20.7666 189.991 20.7212C189.719 20.6079 189.464 20.4322 189.226 20.1942C188.988 19.9449 188.869 19.6276 188.869 19.2422C188.869 18.8909 188.988 18.5792 189.226 18.3072C189.475 18.0352 189.809 17.7802 190.229 17.5422C189.73 17.3496 189.328 17.0266 189.022 16.5732C188.716 16.1199 188.563 15.5702 188.563 14.9242C188.563 13.9382 188.84 13.1676 189.396 12.6122C189.962 12.0569 190.824 11.7792 191.98 11.7792C192.388 11.7792 192.767 11.8359 193.119 11.9492C193.481 12.0512 193.77 12.1759 193.986 12.3232C194.156 12.1419 194.326 11.9832 194.496 11.8472C194.666 11.6999 194.847 11.5866 195.04 11.5072C195.244 11.4279 195.465 11.3882 195.703 11.3882C196.088 11.3882 196.371 11.4846 196.553 11.6772C196.745 11.8586 196.842 12.0739 196.842 12.3232C196.842 12.5612 196.762 12.7766 196.604 12.9692C196.445 13.1619 196.162 13.2582 195.754 13.2582C195.754 13.0656 195.697 12.9069 195.584 12.7822C195.47 12.6576 195.323 12.5952 195.142 12.5952C195.028 12.5952 194.915 12.6122 194.802 12.6462C194.688 12.6802 194.592 12.7256 194.513 12.7822C194.728 13.0316 194.909 13.3376 195.057 13.7002C195.204 14.0629 195.278 14.4652 195.278 14.9072C195.278 15.7572 195.011 16.4656 194.479 17.0322C193.946 17.5876 193.113 17.8652 191.98 17.8652C191.855 17.8652 191.691 17.8596 191.487 17.8482C191.294 17.8256 191.141 17.8086 191.028 17.7972C190.846 17.8879 190.688 18.0126 190.552 18.1712C190.416 18.3299 190.348 18.5226 190.348 18.7492C190.348 18.9306 190.416 19.0722 190.552 19.1742C190.699 19.2762 190.931 19.3272 191.249 19.3272H193.255C193.98 19.3272 194.569 19.4349 195.023 19.6502C195.476 19.8542 195.81 20.1489 196.026 20.5342C196.241 20.9196 196.349 21.3729 196.349 21.8942C196.349 22.9142 195.958 23.7132 195.176 24.2912C194.405 24.8806 193.204 25.1752 191.572 25.1752ZM191.606 24.2232C192.331 24.2232 192.909 24.1496 193.34 24.0022C193.77 23.8549 194.076 23.6452 194.258 23.3732C194.45 23.1012 194.547 22.7726 194.547 22.3872C194.547 21.9679 194.416 21.6789 194.156 21.5202C193.906 21.3729 193.532 21.2992 193.034 21.2992H191.181C190.92 21.2992 190.659 21.3332 190.399 21.4012C190.149 21.4692 189.94 21.5996 189.77 21.7922C189.611 21.9962 189.532 22.3022 189.532 22.7102C189.532 23.0276 189.6 23.2996 189.736 23.5262C189.883 23.7529 190.11 23.9229 190.416 24.0362C190.722 24.1609 191.118 24.2232 191.606 24.2232ZM191.929 16.9302C192.269 16.9302 192.529 16.8566 192.711 16.7092C192.903 16.5506 193.034 16.3182 193.102 16.0122C193.181 15.7062 193.221 15.3322 193.221 14.8902C193.221 14.4369 193.181 14.0516 193.102 13.7342C193.022 13.4056 192.886 13.1562 192.694 12.9862C192.512 12.8162 192.252 12.7312 191.912 12.7312C191.594 12.7312 191.339 12.8219 191.147 13.0032C190.954 13.1732 190.818 13.4226 190.739 13.7512C190.659 14.0686 190.62 14.4539 190.62 14.9072C190.62 15.3379 190.659 15.7062 190.739 16.0122C190.829 16.3069 190.971 16.5336 191.164 16.6922C191.356 16.8509 191.611 16.9302 191.929 16.9302ZM202.057 21.2652C200.697 21.2652 199.648 20.8572 198.912 20.0412C198.186 19.2139 197.824 18.0636 197.824 16.5902C197.824 15.0036 198.175 13.8079 198.878 13.0032C199.592 12.1872 200.589 11.7792 201.87 11.7792C203.06 11.7792 203.989 12.1249 204.658 12.8162C205.338 13.4962 205.678 14.5106 205.678 15.8592V16.6922H200.068C200.09 17.4856 200.192 18.1316 200.374 18.6302C200.566 19.1176 200.833 19.4802 201.173 19.7182C201.524 19.9562 201.949 20.0752 202.448 20.0752C202.844 20.0752 203.196 20.0186 203.502 19.9052C203.819 19.7806 204.091 19.6219 204.318 19.4292C204.544 19.2252 204.726 19.0042 204.862 18.7662C204.986 18.8229 205.083 18.9192 205.151 19.0552C205.23 19.1799 205.27 19.3272 205.27 19.4972C205.27 19.7806 205.151 20.0582 204.913 20.3302C204.686 20.6022 204.335 20.8289 203.859 21.0102C203.394 21.1802 202.793 21.2652 202.057 21.2652ZM203.417 15.6722C203.417 15.0942 203.366 14.5899 203.264 14.1592C203.162 13.7286 202.997 13.3999 202.771 13.1732C202.555 12.9352 202.261 12.8162 201.887 12.8162C201.524 12.8162 201.212 12.9239 200.952 13.1392C200.702 13.3546 200.504 13.6776 200.357 14.1082C200.221 14.5276 200.136 15.0489 200.102 15.6722H203.417ZM210.228 21.2652C209.502 21.2652 208.902 21.1859 208.426 21.0272C207.961 20.8686 207.615 20.6476 207.389 20.3642C207.162 20.0696 207.049 19.7296 207.049 19.3442C207.049 18.9929 207.128 18.7322 207.287 18.5622C207.445 18.3809 207.632 18.2619 207.848 18.2052C208.063 18.1372 208.256 18.1032 208.426 18.1032C208.426 18.5452 208.494 18.9362 208.63 19.2762C208.777 19.6049 208.987 19.8656 209.259 20.0582C209.531 20.2396 209.865 20.3302 210.262 20.3302C210.862 20.3302 211.304 20.2056 211.588 19.9562C211.871 19.7069 212.013 19.3952 212.013 19.0212C212.013 18.7606 211.95 18.5396 211.826 18.3582C211.712 18.1769 211.503 18.0012 211.197 17.8312C210.891 17.6612 210.466 17.4742 209.922 17.2702C209.332 17.0436 208.834 16.8056 208.426 16.5562C208.018 16.2956 207.712 15.9952 207.508 15.6552C207.304 15.3152 207.202 14.8902 207.202 14.3802C207.202 13.5302 207.519 12.8899 208.154 12.4592C208.788 12.0172 209.627 11.7962 210.67 11.7962C211.327 11.7962 211.86 11.8699 212.268 12.0172C212.676 12.1646 212.976 12.3629 213.169 12.6122C213.361 12.8502 213.458 13.1052 213.458 13.3772C213.458 13.7286 213.333 14.0006 213.084 14.1932C212.846 14.3859 212.46 14.4822 211.928 14.4822C211.928 13.9156 211.803 13.4792 211.554 13.1732C211.304 12.8559 210.93 12.6972 210.432 12.6972C210.148 12.6972 209.893 12.7426 209.667 12.8332C209.451 12.9239 209.281 13.0599 209.157 13.2412C209.032 13.4112 208.97 13.6209 208.97 13.8702C208.97 14.1196 209.038 14.3406 209.174 14.5332C209.31 14.7146 209.542 14.8902 209.871 15.0602C210.199 15.2302 210.647 15.4172 211.214 15.6212C211.758 15.8252 212.217 16.0519 212.591 16.3012C212.976 16.5392 213.271 16.8282 213.475 17.1682C213.679 17.5082 213.781 17.9162 213.781 18.3922C213.781 19.3102 213.463 20.0186 212.829 20.5172C212.205 21.0159 211.338 21.2652 210.228 21.2652Z" fill="white"/>
<path d="M16.384 53V52.412H16.756C16.892 52.412 17.016 52.396 17.128 52.364C17.248 52.324 17.34 52.248 17.404 52.136C17.476 52.016 17.512 51.84 17.512 51.608V45.776C17.512 45.552 17.476 45.388 17.404 45.284C17.332 45.172 17.24 45.1 17.128 45.068C17.016 45.036 16.892 45.02 16.756 45.02H16.384V44.432H20.272V45.02H19.9C19.764 45.02 19.636 45.04 19.516 45.08C19.404 45.112 19.312 45.184 19.24 45.296C19.176 45.408 19.144 45.584 19.144 45.824V48.188H22.564V45.824C22.564 45.584 22.528 45.408 22.456 45.296C22.392 45.184 22.304 45.112 22.192 45.08C22.08 45.04 21.952 45.02 21.808 45.02H21.436V44.432H25.324V45.02H24.952C24.824 45.02 24.7 45.04 24.58 45.08C24.46 45.112 24.368 45.184 24.304 45.296C24.24 45.408 24.208 45.584 24.208 45.824V51.668C24.208 51.884 24.24 52.048 24.304 52.16C24.376 52.264 24.468 52.332 24.58 52.364C24.7 52.396 24.824 52.412 24.952 52.412H25.324V53H21.436V52.412H21.808C21.952 52.412 22.08 52.396 22.192 52.364C22.304 52.324 22.392 52.248 22.456 52.136C22.528 52.016 22.564 51.84 22.564 51.608V48.872H19.144V51.608C19.144 51.84 19.176 52.016 19.24 52.136C19.312 52.248 19.404 52.324 19.516 52.364C19.636 52.396 19.764 52.412 19.9 52.412H20.272V53H16.384ZM27.5271 53V52.412H27.9471C28.0911 52.412 28.2191 52.396 28.3311 52.364C28.4431 52.324 28.5311 52.248 28.5951 52.136C28.6671 52.024 28.7031 51.852 28.7031 51.62V45.116H27.6711C27.4311 45.116 27.2431 45.156 27.1071 45.236C26.9711 45.308 26.8711 45.412 26.8071 45.548C26.7431 45.684 26.6991 45.84 26.6751 46.016L26.6031 46.676H25.8711L25.9311 44.432H33.1311L33.1911 46.676H32.4591L32.3751 46.016C32.3591 45.84 32.3151 45.684 32.2431 45.548C32.1791 45.412 32.0791 45.308 31.9431 45.236C31.8071 45.156 31.6191 45.116 31.3791 45.116H30.3471V51.608C30.3471 51.84 30.3791 52.016 30.4431 52.136C30.5071 52.248 30.5991 52.324 30.7191 52.364C30.8391 52.396 30.9671 52.412 31.1031 52.412H31.5231V53H27.5271ZM33.7395 53V52.412H34.1115C34.2475 52.412 34.3715 52.396 34.4835 52.364C34.5955 52.332 34.6875 52.264 34.7595 52.16C34.8315 52.048 34.8675 51.884 34.8675 51.668V45.776C34.8675 45.552 34.8315 45.388 34.7595 45.284C34.6875 45.172 34.5955 45.1 34.4835 45.068C34.3715 45.036 34.2475 45.02 34.1115 45.02H33.7395V44.432H36.9195L39.1035 50.636L41.2155 44.432H44.3355V45.02H43.9635C43.8275 45.02 43.6995 45.04 43.5795 45.08C43.4675 45.112 43.3755 45.184 43.3035 45.296C43.2395 45.408 43.2075 45.584 43.2075 45.824V51.608C43.2075 51.84 43.2395 52.016 43.3035 52.136C43.3755 52.248 43.4675 52.324 43.5795 52.364C43.6995 52.396 43.8275 52.412 43.9635 52.412H44.3355V53H40.7355V52.412H40.8315C40.9995 52.412 41.1395 52.396 41.2515 52.364C41.3715 52.332 41.4635 52.268 41.5275 52.172C41.5915 52.068 41.6235 51.916 41.6235 51.716V45.512L39.0795 53H38.3235L35.6955 45.524V51.608C35.6955 51.84 35.7315 52.016 35.8035 52.136C35.8755 52.248 35.9755 52.324 36.1035 52.364C36.2395 52.396 36.3955 52.412 36.5715 52.412H36.6315V53H33.7395ZM45.1067 53V52.412H45.4787C45.6227 52.412 45.7507 52.396 45.8627 52.364C45.9747 52.324 46.0627 52.248 46.1267 52.136C46.1987 52.016 46.2347 51.84 46.2347 51.608V45.824C46.2347 45.584 46.1987 45.408 46.1267 45.296C46.0627 45.184 45.9747 45.112 45.8627 45.08C45.7507 45.04 45.6227 45.02 45.4787 45.02H45.1067V44.432H48.9947V45.02H48.6227C48.4867 45.02 48.3627 45.036 48.2507 45.068C48.1387 45.1 48.0467 45.172 47.9747 45.284C47.9107 45.388 47.8787 45.552 47.8787 45.776V52.316H50.1587C50.3587 52.316 50.5267 52.272 50.6627 52.184C50.8067 52.096 50.9187 51.972 50.9987 51.812C51.0787 51.644 51.1387 51.46 51.1787 51.26L51.3347 50.36H51.9947L51.9107 53H45.1067ZM52.4219 54.452L55.0979 43.88H55.8779L53.2259 54.464L52.4219 54.452ZM60.5109 53.12C59.6309 53.12 58.8949 52.936 58.3029 52.568C57.7189 52.2 57.2789 51.688 56.9829 51.032C56.6949 50.368 56.5509 49.592 56.5509 48.704C56.5509 47.84 56.7029 47.08 57.0069 46.424C57.3109 45.76 57.7629 45.244 58.3629 44.876C58.9629 44.5 59.7029 44.312 60.5829 44.312C61.1669 44.312 61.6509 44.372 62.0349 44.492C62.4269 44.612 62.7189 44.776 62.9109 44.984C63.1029 45.192 63.1989 45.424 63.1989 45.68C63.1989 45.968 63.0789 46.204 62.8389 46.388C62.6069 46.564 62.2829 46.652 61.8669 46.652C61.8669 46.396 61.8229 46.144 61.7349 45.896C61.6549 45.648 61.5149 45.444 61.3149 45.284C61.1229 45.116 60.8589 45.032 60.5229 45.032C59.9789 45.032 59.5429 45.176 59.2149 45.464C58.8949 45.752 58.6629 46.168 58.5189 46.712C58.3749 47.256 58.3029 47.92 58.3029 48.704C58.3029 49.448 58.3829 50.084 58.5429 50.612C58.7109 51.14 58.9749 51.54 59.3349 51.812C59.6949 52.084 60.1669 52.22 60.7509 52.22C61.1429 52.22 61.4789 52.168 61.7589 52.064C62.0389 51.952 62.2749 51.812 62.4669 51.644C62.6589 51.476 62.8229 51.304 62.9589 51.128C63.0229 51.176 63.0749 51.244 63.1149 51.332C63.1549 51.42 63.1749 51.52 63.1749 51.632C63.1749 51.792 63.1269 51.96 63.0309 52.136C62.9349 52.304 62.7829 52.464 62.5749 52.616C62.3669 52.768 62.0909 52.892 61.7469 52.988C61.4109 53.076 60.9989 53.12 60.5109 53.12ZM66.7562 53.12C66.2682 53.12 65.8562 53.076 65.5202 52.988C65.1842 52.892 64.9122 52.764 64.7042 52.604C64.4962 52.444 64.3442 52.264 64.2482 52.064C64.1522 51.856 64.1042 51.648 64.1042 51.44C64.1042 51.208 64.1562 51.02 64.2602 50.876C64.3642 50.724 64.5042 50.612 64.6802 50.54C64.8642 50.468 65.0602 50.432 65.2682 50.432C65.2762 50.84 65.3442 51.196 65.4722 51.5C65.6002 51.804 65.7842 52.04 66.0242 52.208C66.2722 52.368 66.5682 52.448 66.9122 52.448C67.4082 52.448 67.7922 52.324 68.0642 52.076C68.3442 51.82 68.4842 51.484 68.4842 51.068C68.4842 50.788 68.4162 50.548 68.2802 50.348C68.1442 50.148 67.9322 49.964 67.6442 49.796C67.3562 49.628 66.9842 49.452 66.5282 49.268C66.1362 49.108 65.7962 48.936 65.5082 48.752C65.2202 48.568 64.9882 48.372 64.8122 48.164C64.6362 47.956 64.5042 47.728 64.4162 47.48C64.3362 47.224 64.2962 46.94 64.2962 46.628C64.2962 46.156 64.4202 45.748 64.6682 45.404C64.9162 45.052 65.2522 44.784 65.6762 44.6C66.1002 44.408 66.5842 44.312 67.1282 44.312C67.6722 44.312 68.1242 44.376 68.4842 44.504C68.8442 44.624 69.1122 44.788 69.2882 44.996C69.4722 45.204 69.5642 45.432 69.5642 45.68C69.5642 45.952 69.4562 46.176 69.2402 46.352C69.0242 46.52 68.7042 46.604 68.2802 46.604C68.2802 46.372 68.2362 46.132 68.1482 45.884C68.0682 45.636 67.9322 45.428 67.7402 45.26C67.5562 45.084 67.3042 44.996 66.9842 44.996C66.7362 44.996 66.5122 45.044 66.3122 45.14C66.1202 45.228 65.9682 45.364 65.8562 45.548C65.7442 45.724 65.6882 45.94 65.6882 46.196C65.6882 46.46 65.7442 46.692 65.8562 46.892C65.9682 47.092 66.1642 47.284 66.4442 47.468C66.7242 47.652 67.1202 47.848 67.6322 48.056C68.1522 48.264 68.5762 48.488 68.9042 48.728C69.2402 48.96 69.4882 49.228 69.6482 49.532C69.8162 49.828 69.9002 50.176 69.9002 50.576C69.9002 51.088 69.7682 51.536 69.5042 51.92C69.2482 52.296 68.8842 52.592 68.4122 52.808C67.9482 53.016 67.3962 53.12 66.7562 53.12ZM73.5999 53.12C73.1119 53.12 72.6999 53.076 72.3639 52.988C72.0279 52.892 71.7559 52.764 71.5479 52.604C71.3399 52.444 71.1879 52.264 71.0919 52.064C70.9959 51.856 70.9479 51.648 70.9479 51.44C70.9479 51.208 70.9999 51.02 71.1039 50.876C71.2079 50.724 71.3479 50.612 71.5239 50.54C71.7079 50.468 71.9039 50.432 72.1119 50.432C72.1199 50.84 72.1879 51.196 72.3159 51.5C72.4439 51.804 72.6279 52.04 72.8679 52.208C73.1159 52.368 73.4119 52.448 73.7559 52.448C74.2519 52.448 74.6359 52.324 74.9079 52.076C75.1879 51.82 75.3279 51.484 75.3279 51.068C75.3279 50.788 75.2599 50.548 75.1239 50.348C74.9879 50.148 74.7759 49.964 74.4879 49.796C74.1999 49.628 73.8279 49.452 73.3719 49.268C72.9799 49.108 72.6399 48.936 72.3519 48.752C72.0639 48.568 71.8319 48.372 71.6559 48.164C71.4799 47.956 71.3479 47.728 71.2599 47.48C71.1799 47.224 71.1399 46.94 71.1399 46.628C71.1399 46.156 71.2639 45.748 71.5119 45.404C71.7599 45.052 72.0959 44.784 72.5199 44.6C72.9439 44.408 73.4279 44.312 73.9719 44.312C74.5159 44.312 74.9679 44.376 75.3279 44.504C75.6879 44.624 75.9559 44.788 76.1319 44.996C76.3159 45.204 76.4079 45.432 76.4079 45.68C76.4079 45.952 76.2999 46.176 76.0839 46.352C75.8679 46.52 75.5479 46.604 75.1239 46.604C75.1239 46.372 75.0799 46.132 74.9919 45.884C74.9119 45.636 74.7759 45.428 74.5839 45.26C74.3999 45.084 74.1479 44.996 73.8279 44.996C73.5799 44.996 73.3559 45.044 73.1559 45.14C72.9639 45.228 72.8119 45.364 72.6999 45.548C72.5879 45.724 72.5319 45.94 72.5319 46.196C72.5319 46.46 72.5879 46.692 72.6999 46.892C72.8119 47.092 73.0079 47.284 73.2879 47.468C73.5679 47.652 73.9639 47.848 74.4759 48.056C74.9959 48.264 75.4199 48.488 75.7479 48.728C76.0839 48.96 76.3319 49.228 76.4919 49.532C76.6599 49.828 76.7439 50.176 76.7439 50.576C76.7439 51.088 76.6119 51.536 76.3479 51.92C76.0919 52.296 75.7279 52.592 75.2559 52.808C74.7919 53.016 74.2399 53.12 73.5999 53.12ZM79.1357 48.284C78.8877 48.284 78.6757 48.22 78.4997 48.092C78.3237 47.956 78.2357 47.72 78.2357 47.384C78.2357 47.04 78.3237 46.804 78.4997 46.676C78.6757 46.548 78.8877 46.484 79.1357 46.484C79.3757 46.484 79.5837 46.548 79.7597 46.676C79.9437 46.804 80.0357 47.04 80.0357 47.384C80.0357 47.72 79.9437 47.956 79.7597 48.092C79.5837 48.22 79.3757 48.284 79.1357 48.284ZM79.1357 53.096C78.8877 53.096 78.6757 53.028 78.4997 52.892C78.3237 52.756 78.2357 52.52 78.2357 52.184C78.2357 51.84 78.3237 51.604 78.4997 51.476C78.6757 51.348 78.8877 51.284 79.1357 51.284C79.3757 51.284 79.5837 51.348 79.7597 51.476C79.9437 51.604 80.0357 51.84 80.0357 52.184C80.0357 52.528 79.9437 52.768 79.7597 52.904C79.5837 53.032 79.3757 53.096 79.1357 53.096Z" fill="black"/>
<path d="M15.796 80.88V80.232H15.964C16.26 80.232 16.524 80.164 16.756 80.028C16.988 79.9 17.172 79.676 17.308 79.356C17.452 79.044 17.524 78.612 17.524 78.06V70.776C17.524 70.552 17.488 70.388 17.416 70.284C17.344 70.172 17.252 70.1 17.14 70.068C17.028 70.036 16.904 70.02 16.768 70.02H16.396V69.432H20.296V70.02H19.924C19.788 70.02 19.66 70.04 19.54 70.08C19.42 70.112 19.324 70.184 19.252 70.296C19.188 70.408 19.156 70.584 19.156 70.824V78.048C19.156 78.592 19.076 79.044 18.916 79.404C18.756 79.772 18.536 80.06 18.256 80.268C17.976 80.484 17.652 80.64 17.284 80.736C16.916 80.832 16.536 80.88 16.144 80.88H15.796ZM23.018 78.12C22.666 78.12 22.346 78.052 22.058 77.916C21.778 77.772 21.554 77.556 21.386 77.268C21.226 76.98 21.146 76.616 21.146 76.176C21.146 75.536 21.37 75.06 21.818 74.748C22.266 74.436 22.942 74.264 23.846 74.232L24.842 74.196V73.512C24.842 73.24 24.822 73 24.782 72.792C24.742 72.576 24.658 72.408 24.53 72.288C24.41 72.168 24.218 72.108 23.954 72.108C23.714 72.108 23.526 72.164 23.39 72.276C23.254 72.388 23.162 72.544 23.114 72.744C23.066 72.936 23.042 73.156 23.042 73.404C22.578 73.404 22.23 73.348 21.998 73.236C21.766 73.116 21.65 72.912 21.65 72.624C21.65 72.336 21.754 72.104 21.962 71.928C22.178 71.752 22.466 71.624 22.826 71.544C23.186 71.464 23.578 71.424 24.002 71.424C24.802 71.424 25.402 71.58 25.802 71.892C26.202 72.196 26.402 72.724 26.402 73.476V76.56C26.402 76.776 26.422 76.948 26.462 77.076C26.51 77.196 26.59 77.284 26.702 77.34C26.814 77.388 26.958 77.412 27.134 77.412H27.17V78H25.178L24.938 77.1H24.842C24.666 77.316 24.498 77.5 24.338 77.652C24.186 77.804 24.006 77.92 23.798 78C23.598 78.08 23.338 78.12 23.018 78.12ZM23.534 77.292C23.806 77.292 24.038 77.228 24.23 77.1C24.422 76.972 24.57 76.788 24.674 76.548C24.786 76.308 24.842 76.028 24.842 75.708V74.784L24.218 74.82C23.842 74.836 23.546 74.9 23.33 75.012C23.122 75.124 22.97 75.28 22.874 75.48C22.786 75.68 22.742 75.928 22.742 76.224C22.742 76.464 22.77 76.664 22.826 76.824C22.882 76.976 22.97 77.092 23.09 77.172C23.21 77.252 23.358 77.292 23.534 77.292ZM28.5496 72.756C28.4936 72.596 28.4256 72.472 28.3456 72.384C28.2736 72.296 28.1776 72.236 28.0576 72.204C27.9376 72.172 27.7936 72.156 27.6256 72.156V71.568H31.0696V72.156H30.6976C30.5296 72.156 30.4016 72.192 30.3136 72.264C30.2256 72.336 30.1816 72.452 30.1816 72.612C30.1816 72.692 30.1896 72.776 30.2056 72.864C30.2296 72.952 30.2536 73.032 30.2776 73.104L31.0936 75.372C31.1576 75.548 31.2176 75.736 31.2736 75.936C31.3376 76.136 31.3936 76.328 31.4416 76.512C31.4976 76.688 31.5416 76.848 31.5736 76.992C31.5976 76.864 31.6336 76.72 31.6816 76.56C31.7296 76.392 31.7816 76.224 31.8376 76.056C31.9016 75.88 31.9576 75.724 32.0056 75.588L32.8456 73.2C32.8856 73.096 32.9136 72.992 32.9296 72.888C32.9536 72.784 32.9656 72.684 32.9656 72.588C32.9656 72.428 32.9136 72.316 32.8096 72.252C32.7056 72.188 32.5616 72.156 32.3776 72.156H32.1256V71.568H34.7416V72.156H34.5376C34.4096 72.156 34.3016 72.18 34.2136 72.228C34.1256 72.268 34.0416 72.352 33.9616 72.48C33.8816 72.608 33.7936 72.8 33.6976 73.056L31.9096 78H30.5056L28.5496 72.756ZM37.186 78.12C36.834 78.12 36.514 78.052 36.226 77.916C35.946 77.772 35.722 77.556 35.554 77.268C35.394 76.98 35.314 76.616 35.314 76.176C35.314 75.536 35.538 75.06 35.986 74.748C36.434 74.436 37.11 74.264 38.014 74.232L39.01 74.196V73.512C39.01 73.24 38.99 73 38.95 72.792C38.91 72.576 38.826 72.408 38.698 72.288C38.578 72.168 38.386 72.108 38.122 72.108C37.882 72.108 37.694 72.164 37.558 72.276C37.422 72.388 37.33 72.544 37.282 72.744C37.234 72.936 37.21 73.156 37.21 73.404C36.746 73.404 36.398 73.348 36.166 73.236C35.934 73.116 35.818 72.912 35.818 72.624C35.818 72.336 35.922 72.104 36.13 71.928C36.346 71.752 36.634 71.624 36.994 71.544C37.354 71.464 37.746 71.424 38.17 71.424C38.97 71.424 39.57 71.58 39.97 71.892C40.37 72.196 40.57 72.724 40.57 73.476V76.56C40.57 76.776 40.59 76.948 40.63 77.076C40.678 77.196 40.758 77.284 40.87 77.34C40.982 77.388 41.126 77.412 41.302 77.412H41.338V78H39.346L39.106 77.1H39.01C38.834 77.316 38.666 77.5 38.506 77.652C38.354 77.804 38.174 77.92 37.966 78C37.766 78.08 37.506 78.12 37.186 78.12ZM37.702 77.292C37.974 77.292 38.206 77.228 38.398 77.1C38.59 76.972 38.738 76.788 38.842 76.548C38.954 76.308 39.01 76.028 39.01 75.708V74.784L38.386 74.82C38.01 74.836 37.714 74.9 37.498 75.012C37.29 75.124 37.138 75.28 37.042 75.48C36.954 75.68 36.91 75.928 36.91 76.224C36.91 76.464 36.938 76.664 36.994 76.824C37.05 76.976 37.138 77.092 37.258 77.172C37.378 77.252 37.526 77.292 37.702 77.292ZM44.8655 78.12C44.3775 78.12 43.9655 78.076 43.6295 77.988C43.2935 77.892 43.0215 77.764 42.8135 77.604C42.6055 77.444 42.4535 77.264 42.3575 77.064C42.2615 76.856 42.2135 76.648 42.2135 76.44C42.2135 76.208 42.2655 76.02 42.3695 75.876C42.4735 75.724 42.6135 75.612 42.7895 75.54C42.9735 75.468 43.1695 75.432 43.3775 75.432C43.3855 75.84 43.4535 76.196 43.5815 76.5C43.7095 76.804 43.8935 77.04 44.1335 77.208C44.3815 77.368 44.6775 77.448 45.0215 77.448C45.5175 77.448 45.9015 77.324 46.1735 77.076C46.4535 76.82 46.5935 76.484 46.5935 76.068C46.5935 75.788 46.5255 75.548 46.3895 75.348C46.2535 75.148 46.0415 74.964 45.7535 74.796C45.4655 74.628 45.0935 74.452 44.6375 74.268C44.2455 74.108 43.9055 73.936 43.6175 73.752C43.3295 73.568 43.0975 73.372 42.9215 73.164C42.7455 72.956 42.6135 72.728 42.5255 72.48C42.4455 72.224 42.4055 71.94 42.4055 71.628C42.4055 71.156 42.5295 70.748 42.7775 70.404C43.0255 70.052 43.3615 69.784 43.7855 69.6C44.2095 69.408 44.6935 69.312 45.2375 69.312C45.7815 69.312 46.2335 69.376 46.5935 69.504C46.9535 69.624 47.2215 69.788 47.3975 69.996C47.5815 70.204 47.6735 70.432 47.6735 70.68C47.6735 70.952 47.5655 71.176 47.3495 71.352C47.1335 71.52 46.8135 71.604 46.3895 71.604C46.3895 71.372 46.3455 71.132 46.2575 70.884C46.1775 70.636 46.0415 70.428 45.8495 70.26C45.6655 70.084 45.4135 69.996 45.0935 69.996C44.8455 69.996 44.6215 70.044 44.4215 70.14C44.2295 70.228 44.0775 70.364 43.9655 70.548C43.8535 70.724 43.7975 70.94 43.7975 71.196C43.7975 71.46 43.8535 71.692 43.9655 71.892C44.0775 72.092 44.2735 72.284 44.5535 72.468C44.8335 72.652 45.2295 72.848 45.7415 73.056C46.2615 73.264 46.6855 73.488 47.0135 73.728C47.3495 73.96 47.5975 74.228 47.7575 74.532C47.9255 74.828 48.0095 75.176 48.0095 75.576C48.0095 76.088 47.8775 76.536 47.6135 76.92C47.3575 77.296 46.9935 77.592 46.5215 77.808C46.0575 78.016 45.5055 78.12 44.8655 78.12ZM52.0933 78.12C51.5333 78.12 51.0373 78.012 50.6053 77.796C50.1733 77.58 49.8333 77.232 49.5853 76.752C49.3373 76.264 49.2133 75.616 49.2133 74.808C49.2133 73.952 49.3373 73.28 49.5853 72.792C49.8413 72.296 50.1813 71.944 50.6053 71.736C51.0373 71.528 51.5213 71.424 52.0573 71.424C52.5053 71.424 52.8973 71.476 53.2333 71.58C53.5773 71.684 53.8453 71.828 54.0373 72.012C54.2293 72.196 54.3253 72.416 54.3253 72.672C54.3253 72.848 54.2813 73.008 54.1933 73.152C54.1133 73.288 53.9733 73.396 53.7733 73.476C53.5733 73.556 53.3013 73.596 52.9573 73.596C52.9573 73.324 52.9293 73.076 52.8733 72.852C52.8253 72.628 52.7373 72.448 52.6093 72.312C52.4893 72.176 52.3133 72.108 52.0813 72.108C51.8253 72.108 51.5973 72.188 51.3973 72.348C51.2053 72.5 51.0573 72.772 50.9533 73.164C50.8493 73.556 50.7973 74.1 50.7973 74.796C50.7973 75.348 50.8533 75.808 50.9653 76.176C51.0773 76.536 51.2453 76.808 51.4693 76.992C51.7013 77.176 52.0053 77.268 52.3813 77.268C52.6453 77.268 52.8853 77.228 53.1013 77.148C53.3253 77.068 53.5173 76.96 53.6773 76.824C53.8453 76.68 53.9733 76.52 54.0613 76.344C54.1413 76.4 54.2013 76.472 54.2413 76.56C54.2893 76.648 54.3133 76.748 54.3133 76.86C54.3133 77.06 54.2333 77.256 54.0733 77.448C53.9133 77.64 53.6693 77.8 53.3413 77.928C53.0213 78.056 52.6053 78.12 52.0933 78.12ZM55.0773 78V77.412H55.1133C55.2973 77.412 55.4573 77.392 55.5933 77.352C55.7373 77.312 55.8493 77.232 55.9293 77.112C56.0173 76.984 56.0613 76.796 56.0613 76.548V72.972C56.0613 72.732 56.0213 72.556 55.9413 72.444C55.8613 72.324 55.7533 72.248 55.6173 72.216C55.4813 72.176 55.3253 72.156 55.1493 72.156H55.1133V71.568H57.3213L57.5493 72.6H57.6093C57.7133 72.36 57.8293 72.152 57.9573 71.976C58.0933 71.8 58.2653 71.668 58.4733 71.58C58.6813 71.484 58.9533 71.436 59.2893 71.436C59.7453 71.436 60.0813 71.516 60.2973 71.676C60.5213 71.836 60.6333 72.068 60.6333 72.372C60.6333 72.692 60.5173 72.948 60.2853 73.14C60.0533 73.324 59.7133 73.416 59.2653 73.416C59.2653 73.192 59.2453 73.012 59.2053 72.876C59.1733 72.732 59.1133 72.624 59.0253 72.552C58.9373 72.48 58.8173 72.444 58.6653 72.444C58.4493 72.444 58.2733 72.524 58.1373 72.684C58.0013 72.836 57.8933 73.028 57.8133 73.26C57.7413 73.492 57.6893 73.732 57.6573 73.98C57.6333 74.228 57.6213 74.436 57.6213 74.604V76.608C57.6213 76.84 57.6613 77.016 57.7413 77.136C57.8213 77.248 57.9293 77.324 58.0653 77.364C58.2013 77.396 58.3493 77.412 58.5093 77.412H58.8813V78H55.0773ZM61.0405 78V77.412H61.1965C61.3325 77.412 61.4685 77.396 61.6045 77.364C61.7485 77.324 61.8645 77.248 61.9525 77.136C62.0485 77.024 62.0965 76.856 62.0965 76.632V72.912C62.0965 72.688 62.0485 72.524 61.9525 72.42C61.8565 72.308 61.7405 72.236 61.6045 72.204C61.4685 72.172 61.3325 72.156 61.1965 72.156H61.0885V71.568H63.6565V76.608C63.6565 76.84 63.7005 77.016 63.7885 77.136C63.8765 77.248 63.9925 77.324 64.1365 77.364C64.2805 77.396 64.4205 77.412 64.5565 77.412H64.7005V78H61.0405ZM62.8165 70.44C62.5685 70.44 62.3565 70.376 62.1805 70.248C62.0125 70.12 61.9285 69.912 61.9285 69.624C61.9285 69.328 62.0125 69.12 62.1805 69C62.3565 68.872 62.5725 68.808 62.8285 68.808C63.0685 68.808 63.2765 68.872 63.4525 69C63.6285 69.12 63.7165 69.328 63.7165 69.624C63.7165 69.912 63.6285 70.12 63.4525 70.248C63.2765 70.376 63.0645 70.44 62.8165 70.44ZM65.0706 80.88V80.292H65.1906C65.3346 80.292 65.4746 80.272 65.6106 80.232C65.7546 80.2 65.8706 80.124 65.9586 80.004C66.0546 79.892 66.1026 79.72 66.1026 79.488V72.984C66.1026 72.736 66.0626 72.556 65.9826 72.444C65.9026 72.324 65.7946 72.248 65.6586 72.216C65.5306 72.176 65.3866 72.156 65.2266 72.156H65.1186V71.568H67.3746L67.5546 72.564H67.6026C67.7786 72.228 68.0106 71.96 68.2986 71.76C68.5946 71.552 68.9746 71.448 69.4386 71.448C70.2306 71.448 70.8346 71.716 71.2506 72.252C71.6746 72.788 71.8866 73.636 71.8866 74.796C71.8866 75.956 71.6786 76.804 71.2626 77.34C70.8466 77.868 70.2466 78.132 69.4626 78.132C69.0066 78.132 68.6346 78.044 68.3466 77.868C68.0586 77.684 67.8266 77.44 67.6506 77.136H67.5786C67.5946 77.264 67.6066 77.42 67.6146 77.604C67.6306 77.788 67.6426 77.964 67.6506 78.132C67.6586 78.3 67.6626 78.44 67.6626 78.552V79.5C67.6626 79.732 67.7066 79.904 67.7946 80.016C67.8906 80.128 68.0066 80.2 68.1426 80.232C68.2866 80.272 68.4266 80.292 68.5626 80.292H68.7426V80.88H65.0706ZM69.0426 77.292C69.3466 77.292 69.5906 77.2 69.7746 77.016C69.9586 76.824 70.0906 76.544 70.1706 76.176C70.2586 75.808 70.3026 75.348 70.3026 74.796C70.3026 74.252 70.2586 73.796 70.1706 73.428C70.0906 73.052 69.9586 72.772 69.7746 72.588C69.5906 72.396 69.3466 72.3 69.0426 72.3C68.6906 72.3 68.4106 72.392 68.2026 72.576C68.0026 72.76 67.8626 73.04 67.7826 73.416C67.7026 73.792 67.6626 74.252 67.6626 74.796C67.6626 75.348 67.7026 75.812 67.7826 76.188C67.8626 76.556 68.0026 76.832 68.2026 77.016C68.4106 77.2 68.6906 77.292 69.0426 77.292ZM75.3884 78.12C74.8204 78.12 74.3844 77.98 74.0804 77.7C73.7844 77.42 73.6364 76.932 73.6364 76.236V72.336H72.7244V71.772C72.9404 71.772 73.1444 71.728 73.3364 71.64C73.5284 71.552 73.6884 71.444 73.8164 71.316C73.9364 71.18 74.0444 71.012 74.1404 70.812C74.2364 70.612 74.3124 70.368 74.3684 70.08H75.1964V71.568H76.7444V72.336H75.1964V76.176C75.1964 76.552 75.2644 76.832 75.4004 77.016C75.5444 77.192 75.7524 77.28 76.0244 77.28C76.1844 77.28 76.3284 77.272 76.4564 77.256C76.5924 77.232 76.7244 77.204 76.8524 77.172V77.856C76.7324 77.912 76.5404 77.968 76.2764 78.024C76.0204 78.088 75.7244 78.12 75.3884 78.12Z" fill="black"/>
<path d="M17.824 101V100.412H18.244C18.388 100.412 18.516 100.396 18.628 100.364C18.74 100.324 18.828 100.248 18.892 100.136C18.964 100.024 19 99.852 19 99.62V93.116H17.968C17.728 93.116 17.54 93.156 17.404 93.236C17.268 93.308 17.168 93.412 17.104 93.548C17.04 93.684 16.996 93.84 16.972 94.016L16.9 94.676H16.168L16.228 92.432H23.428L23.488 94.676H22.756L22.672 94.016C22.656 93.84 22.612 93.684 22.54 93.548C22.476 93.412 22.376 93.308 22.24 93.236C22.104 93.156 21.916 93.116 21.676 93.116H20.644V99.608C20.644 99.84 20.676 100.016 20.74 100.136C20.804 100.248 20.896 100.324 21.016 100.364C21.136 100.396 21.264 100.412 21.4 100.412H21.82V101H17.824ZM24.0243 103.232C24.4403 103.232 24.7963 103.176 25.0923 103.064C25.3883 102.96 25.6363 102.808 25.8363 102.608C26.0443 102.416 26.2163 102.184 26.3523 101.912C26.4883 101.64 26.6043 101.344 26.7003 101.024L24.5163 95.756C24.4523 95.604 24.3803 95.488 24.3003 95.408C24.2283 95.328 24.1443 95.276 24.0483 95.252C23.9523 95.22 23.8403 95.204 23.7123 95.204H23.6763V94.568H26.8803V95.156H26.8443C26.6203 95.156 26.4443 95.192 26.3163 95.264C26.1883 95.336 26.1243 95.464 26.1243 95.648C26.1243 95.712 26.1363 95.788 26.1603 95.876C26.1843 95.956 26.2123 96.032 26.2443 96.104L27.0843 98.276C27.1403 98.428 27.1923 98.572 27.2403 98.708C27.2883 98.844 27.3283 98.972 27.3603 99.092C27.4003 99.212 27.4323 99.328 27.4563 99.44C27.4803 99.544 27.5003 99.64 27.5163 99.728C27.5483 99.536 27.6003 99.328 27.6723 99.104C27.7523 98.88 27.8163 98.708 27.8643 98.588L28.6563 96.236C28.6883 96.148 28.7163 96.052 28.7403 95.948C28.7643 95.836 28.7763 95.744 28.7763 95.672C28.7763 95.488 28.7043 95.356 28.5603 95.276C28.4243 95.196 28.2243 95.156 27.9603 95.156H27.9123V94.568H30.5403V95.156H30.4923C30.3483 95.156 30.2203 95.184 30.1083 95.24C30.0043 95.288 29.9123 95.38 29.8323 95.516C29.7523 95.644 29.6683 95.824 29.5803 96.056L27.7683 101.024C27.5603 101.608 27.3603 102.084 27.1683 102.452C26.9763 102.82 26.7563 103.108 26.5083 103.316C26.2683 103.524 25.9643 103.668 25.5963 103.748C25.2283 103.836 24.7603 103.88 24.1923 103.88H24.0243V103.232ZM30.723 103.88V103.292H30.843C30.987 103.292 31.127 103.272 31.263 103.232C31.407 103.2 31.523 103.124 31.611 103.004C31.707 102.892 31.755 102.72 31.755 102.488V95.984C31.755 95.736 31.715 95.556 31.635 95.444C31.555 95.324 31.447 95.248 31.311 95.216C31.183 95.176 31.039 95.156 30.879 95.156H30.771V94.568H33.027L33.207 95.564H33.255C33.431 95.228 33.663 94.96 33.951 94.76C34.247 94.552 34.627 94.448 35.091 94.448C35.883 94.448 36.487 94.716 36.903 95.252C37.327 95.788 37.539 96.636 37.539 97.796C37.539 98.956 37.331 99.804 36.915 100.34C36.499 100.868 35.899 101.132 35.115 101.132C34.659 101.132 34.287 101.044 33.999 100.868C33.711 100.684 33.479 100.44 33.303 100.136H33.231C33.247 100.264 33.259 100.42 33.267 100.604C33.283 100.788 33.295 100.964 33.303 101.132C33.311 101.3 33.315 101.44 33.315 101.552V102.5C33.315 102.732 33.359 102.904 33.447 103.016C33.543 103.128 33.659 103.2 33.795 103.232C33.939 103.272 34.079 103.292 34.215 103.292H34.395V103.88H30.723ZM34.695 100.292C34.999 100.292 35.243 100.2 35.427 100.016C35.611 99.824 35.743 99.544 35.823 99.176C35.911 98.808 35.955 98.348 35.955 97.796C35.955 97.252 35.911 96.796 35.823 96.428C35.743 96.052 35.611 95.772 35.427 95.588C35.243 95.396 34.999 95.3 34.695 95.3C34.343 95.3 34.063 95.392 33.855 95.576C33.655 95.76 33.515 96.04 33.435 96.416C33.355 96.792 33.315 97.252 33.315 97.796C33.315 98.348 33.355 98.812 33.435 99.188C33.515 99.556 33.655 99.832 33.855 100.016C34.063 100.2 34.343 100.292 34.695 100.292ZM41.7247 101.12C40.7647 101.12 40.0247 100.832 39.5047 100.256C38.9927 99.672 38.7367 98.86 38.7367 97.82C38.7367 96.7 38.9847 95.856 39.4807 95.288C39.9847 94.712 40.6887 94.424 41.5927 94.424C42.4327 94.424 43.0887 94.668 43.5607 95.156C44.0407 95.636 44.2807 96.352 44.2807 97.304V97.892H40.3207C40.3367 98.452 40.4087 98.908 40.5367 99.26C40.6727 99.604 40.8607 99.86 41.1007 100.028C41.3487 100.196 41.6487 100.28 42.0007 100.28C42.2807 100.28 42.5287 100.24 42.7447 100.16C42.9687 100.072 43.1607 99.96 43.3207 99.824C43.4807 99.68 43.6087 99.524 43.7047 99.356C43.7927 99.396 43.8607 99.464 43.9087 99.56C43.9647 99.648 43.9927 99.752 43.9927 99.872C43.9927 100.072 43.9087 100.268 43.7407 100.46C43.5807 100.652 43.3327 100.812 42.9967 100.94C42.6687 101.06 42.2447 101.12 41.7247 101.12ZM42.6847 97.172C42.6847 96.764 42.6487 96.408 42.5767 96.104C42.5047 95.8 42.3887 95.568 42.2287 95.408C42.0767 95.24 41.8687 95.156 41.6047 95.156C41.3487 95.156 41.1287 95.232 40.9447 95.384C40.7687 95.536 40.6287 95.764 40.5247 96.068C40.4287 96.364 40.3687 96.732 40.3447 97.172H42.6847ZM47.9124 101.12C47.4244 101.12 47.0124 101.076 46.6764 100.988C46.3404 100.892 46.0684 100.764 45.8604 100.604C45.6524 100.444 45.5004 100.264 45.4044 100.064C45.3084 99.856 45.2604 99.648 45.2604 99.44C45.2604 99.208 45.3124 99.02 45.4164 98.876C45.5204 98.724 45.6604 98.612 45.8364 98.54C46.0204 98.468 46.2164 98.432 46.4244 98.432C46.4324 98.84 46.5004 99.196 46.6284 99.5C46.7564 99.804 46.9404 100.04 47.1804 100.208C47.4284 100.368 47.7244 100.448 48.0684 100.448C48.5644 100.448 48.9484 100.324 49.2204 100.076C49.5004 99.82 49.6404 99.484 49.6404 99.068C49.6404 98.788 49.5724 98.548 49.4364 98.348C49.3004 98.148 49.0884 97.964 48.8004 97.796C48.5124 97.628 48.1404 97.452 47.6844 97.268C47.2924 97.108 46.9524 96.936 46.6644 96.752C46.3764 96.568 46.1444 96.372 45.9684 96.164C45.7924 95.956 45.6604 95.728 45.5724 95.48C45.4924 95.224 45.4524 94.94 45.4524 94.628C45.4524 94.156 45.5764 93.748 45.8244 93.404C46.0724 93.052 46.4084 92.784 46.8324 92.6C47.2564 92.408 47.7404 92.312 48.2844 92.312C48.8284 92.312 49.2804 92.376 49.6404 92.504C50.0004 92.624 50.2684 92.788 50.4444 92.996C50.6284 93.204 50.7204 93.432 50.7204 93.68C50.7204 93.952 50.6124 94.176 50.3964 94.352C50.1804 94.52 49.8604 94.604 49.4364 94.604C49.4364 94.372 49.3924 94.132 49.3044 93.884C49.2244 93.636 49.0884 93.428 48.8964 93.26C48.7124 93.084 48.4604 92.996 48.1404 92.996C47.8924 92.996 47.6684 93.044 47.4684 93.14C47.2764 93.228 47.1244 93.364 47.0124 93.548C46.9004 93.724 46.8444 93.94 46.8444 94.196C46.8444 94.46 46.9004 94.692 47.0124 94.892C47.1244 95.092 47.3204 95.284 47.6004 95.468C47.8804 95.652 48.2764 95.848 48.7884 96.056C49.3084 96.264 49.7324 96.488 50.0604 96.728C50.3964 96.96 50.6444 97.228 50.8044 97.532C50.9724 97.828 51.0564 98.176 51.0564 98.576C51.0564 99.088 50.9244 99.536 50.6604 99.92C50.4044 100.296 50.0404 100.592 49.5684 100.808C49.1044 101.016 48.5524 101.12 47.9124 101.12ZM55.1402 101.12C54.5802 101.12 54.0842 101.012 53.6522 100.796C53.2202 100.58 52.8802 100.232 52.6322 99.752C52.3842 99.264 52.2602 98.616 52.2602 97.808C52.2602 96.952 52.3842 96.28 52.6322 95.792C52.8882 95.296 53.2282 94.944 53.6522 94.736C54.0842 94.528 54.5682 94.424 55.1042 94.424C55.5522 94.424 55.9442 94.476 56.2802 94.58C56.6242 94.684 56.8922 94.828 57.0842 95.012C57.2762 95.196 57.3722 95.416 57.3722 95.672C57.3722 95.848 57.3282 96.008 57.2402 96.152C57.1602 96.288 57.0202 96.396 56.8202 96.476C56.6202 96.556 56.3482 96.596 56.0042 96.596C56.0042 96.324 55.9762 96.076 55.9202 95.852C55.8722 95.628 55.7842 95.448 55.6562 95.312C55.5362 95.176 55.3602 95.108 55.1282 95.108C54.8722 95.108 54.6442 95.188 54.4442 95.348C54.2522 95.5 54.1042 95.772 54.0002 96.164C53.8962 96.556 53.8442 97.1 53.8442 97.796C53.8442 98.348 53.9002 98.808 54.0122 99.176C54.1242 99.536 54.2922 99.808 54.5162 99.992C54.7482 100.176 55.0522 100.268 55.4282 100.268C55.6922 100.268 55.9322 100.228 56.1482 100.148C56.3722 100.068 56.5642 99.96 56.7242 99.824C56.8922 99.68 57.0202 99.52 57.1082 99.344C57.1882 99.4 57.2482 99.472 57.2882 99.56C57.3362 99.648 57.3602 99.748 57.3602 99.86C57.3602 100.06 57.2802 100.256 57.1202 100.448C56.9602 100.64 56.7162 100.8 56.3882 100.928C56.0682 101.056 55.6522 101.12 55.1402 101.12ZM58.1242 101V100.412H58.1602C58.3442 100.412 58.5042 100.392 58.6402 100.352C58.7842 100.312 58.8962 100.232 58.9762 100.112C59.0642 99.984 59.1082 99.796 59.1082 99.548V95.972C59.1082 95.732 59.0682 95.556 58.9882 95.444C58.9082 95.324 58.8002 95.248 58.6642 95.216C58.5282 95.176 58.3722 95.156 58.1962 95.156H58.1602V94.568H60.3682L60.5962 95.6H60.6562C60.7602 95.36 60.8762 95.152 61.0042 94.976C61.1402 94.8 61.3122 94.668 61.5202 94.58C61.7282 94.484 62.0002 94.436 62.3362 94.436C62.7922 94.436 63.1282 94.516 63.3442 94.676C63.5682 94.836 63.6802 95.068 63.6802 95.372C63.6802 95.692 63.5642 95.948 63.3322 96.14C63.1002 96.324 62.7602 96.416 62.3122 96.416C62.3122 96.192 62.2922 96.012 62.2522 95.876C62.2202 95.732 62.1602 95.624 62.0722 95.552C61.9842 95.48 61.8642 95.444 61.7122 95.444C61.4962 95.444 61.3202 95.524 61.1842 95.684C61.0482 95.836 60.9402 96.028 60.8602 96.26C60.7882 96.492 60.7362 96.732 60.7042 96.98C60.6802 97.228 60.6682 97.436 60.6682 97.604V99.608C60.6682 99.84 60.7082 100.016 60.7882 100.136C60.8682 100.248 60.9762 100.324 61.1122 100.364C61.2482 100.396 61.3962 100.412 61.5562 100.412H61.9282V101H58.1242ZM64.0874 101V100.412H64.2434C64.3794 100.412 64.5154 100.396 64.6514 100.364C64.7954 100.324 64.9114 100.248 64.9994 100.136C65.0954 100.024 65.1434 99.856 65.1434 99.632V95.912C65.1434 95.688 65.0954 95.524 64.9994 95.42C64.9034 95.308 64.7874 95.236 64.6514 95.204C64.5154 95.172 64.3794 95.156 64.2434 95.156H64.1354V94.568H66.7034V99.608C66.7034 99.84 66.7474 100.016 66.8354 100.136C66.9234 100.248 67.0394 100.324 67.1834 100.364C67.3274 100.396 67.4674 100.412 67.6034 100.412H67.7474V101H64.0874ZM65.8634 93.44C65.6154 93.44 65.4034 93.376 65.2274 93.248C65.0594 93.12 64.9754 92.912 64.9754 92.624C64.9754 92.328 65.0594 92.12 65.2274 92C65.4034 91.872 65.6194 91.808 65.8754 91.808C66.1154 91.808 66.3234 91.872 66.4994 92C66.6754 92.12 66.7634 92.328 66.7634 92.624C66.7634 92.912 66.6754 93.12 66.4994 93.248C66.3234 93.376 66.1114 93.44 65.8634 93.44ZM68.1175 103.88V103.292H68.2375C68.3815 103.292 68.5215 103.272 68.6575 103.232C68.8015 103.2 68.9175 103.124 69.0055 103.004C69.1015 102.892 69.1495 102.72 69.1495 102.488V95.984C69.1495 95.736 69.1095 95.556 69.0295 95.444C68.9495 95.324 68.8415 95.248 68.7055 95.216C68.5775 95.176 68.4335 95.156 68.2735 95.156H68.1655V94.568H70.4215L70.6015 95.564H70.6495C70.8255 95.228 71.0575 94.96 71.3455 94.76C71.6415 94.552 72.0215 94.448 72.4855 94.448C73.2775 94.448 73.8815 94.716 74.2975 95.252C74.7215 95.788 74.9335 96.636 74.9335 97.796C74.9335 98.956 74.7255 99.804 74.3095 100.34C73.8935 100.868 73.2935 101.132 72.5095 101.132C72.0535 101.132 71.6815 101.044 71.3935 100.868C71.1055 100.684 70.8735 100.44 70.6975 100.136H70.6255C70.6415 100.264 70.6535 100.42 70.6615 100.604C70.6775 100.788 70.6895 100.964 70.6975 101.132C70.7055 101.3 70.7095 101.44 70.7095 101.552V102.5C70.7095 102.732 70.7535 102.904 70.8415 103.016C70.9375 103.128 71.0535 103.2 71.1895 103.232C71.3335 103.272 71.4735 103.292 71.6095 103.292H71.7895V103.88H68.1175ZM72.0895 100.292C72.3935 100.292 72.6375 100.2 72.8215 100.016C73.0055 99.824 73.1375 99.544 73.2175 99.176C73.3055 98.808 73.3495 98.348 73.3495 97.796C73.3495 97.252 73.3055 96.796 73.2175 96.428C73.1375 96.052 73.0055 95.772 72.8215 95.588C72.6375 95.396 72.3935 95.3 72.0895 95.3C71.7375 95.3 71.4575 95.392 71.2495 95.576C71.0495 95.76 70.9095 96.04 70.8295 96.416C70.7495 96.792 70.7095 97.252 70.7095 97.796C70.7095 98.348 70.7495 98.812 70.8295 99.188C70.9095 99.556 71.0495 99.832 71.2495 100.016C71.4575 100.2 71.7375 100.292 72.0895 100.292ZM78.4353 101.12C77.8673 101.12 77.4313 100.98 77.1273 100.7C76.8313 100.42 76.6833 99.932 76.6833 99.236V95.336H75.7713V94.772C75.9873 94.772 76.1913 94.728 76.3833 94.64C76.5753 94.552 76.7353 94.444 76.8633 94.316C76.9833 94.18 77.0913 94.012 77.1873 93.812C77.2833 93.612 77.3593 93.368 77.4153 93.08H78.2433V94.568H79.7913V95.336H78.2433V99.176C78.2433 99.552 78.3113 99.832 78.4473 100.016C78.5913 100.192 78.7993 100.28 79.0713 100.28C79.2313 100.28 79.3753 100.272 79.5033 100.256C79.6393 100.232 79.7713 100.204 79.8993 100.172V100.856C79.7793 100.912 79.5873 100.968 79.3233 101.024C79.0673 101.088 78.7713 101.12 78.4353 101.12Z" fill="black"/>
<rect width="304" height="144" rx="20" fill="white"/>
<mask id="mask1_129_2" style="mask-type:alpha" maskUnits="userSpaceOnUse" x="0" y="0" width="304" height="144">
<rect width="304" height="144" rx="20" fill="white"/>
</mask>
<g mask="url(#mask1_129_2)">
<rect width="304" height="28.1905" fill="#160101"/>
</g>
<path d="M92.0957 21.0952V20.2622H92.6907C92.8947 20.2622 93.0761 20.2396 93.2347 20.1942C93.3934 20.1376 93.5181 20.0299 93.6087 19.8712C93.7107 19.7126 93.7617 19.4689 93.7617 19.1402V9.92625H92.2997C91.9597 9.92625 91.6934 9.98291 91.5007 10.0962C91.3081 10.1982 91.1664 10.3456 91.0757 10.5382C90.9851 10.7309 90.9227 10.9519 90.8887 11.2012L90.7867 12.1362H89.7497L89.8347 8.95724H100.035L100.12 12.1362H99.0827L98.9637 11.2012C98.9411 10.9519 98.8787 10.7309 98.7767 10.5382C98.6861 10.3456 98.5444 10.1982 98.3517 10.0962C98.1591 9.98291 97.8927 9.92625 97.5527 9.92625H96.0907V19.1232C96.0907 19.4519 96.1361 19.7012 96.2267 19.8712C96.3174 20.0299 96.4477 20.1376 96.6177 20.1942C96.7877 20.2396 96.9691 20.2622 97.1617 20.2622H97.7567V21.0952H92.0957ZM104.788 21.2652C103.484 21.2652 102.453 20.8742 101.694 20.0922C100.946 19.3102 100.572 18.1146 100.572 16.5052C100.572 14.9186 100.929 13.7342 101.643 12.9522C102.368 12.1702 103.433 11.7792 104.839 11.7792C106.153 11.7792 107.185 12.1702 107.933 12.9522C108.681 13.7342 109.055 14.9186 109.055 16.5052C109.055 18.1146 108.692 19.3102 107.967 20.0922C107.253 20.8742 106.193 21.2652 104.788 21.2652ZM104.822 20.2622C105.309 20.2622 105.694 20.1262 105.978 19.8542C106.272 19.5709 106.482 19.1459 106.607 18.5792C106.731 18.0126 106.794 17.3212 106.794 16.5052C106.794 15.6779 106.726 14.9922 106.59 14.4482C106.465 13.9042 106.255 13.4962 105.961 13.2242C105.677 12.9409 105.292 12.7992 104.805 12.7992C104.329 12.7992 103.943 12.9409 103.649 13.2242C103.354 13.4962 103.144 13.9042 103.02 14.4482C102.895 14.9922 102.833 15.6779 102.833 16.5052C102.833 17.3326 102.895 18.0239 103.02 18.5792C103.156 19.1346 103.365 19.5539 103.649 19.8372C103.943 20.1206 104.334 20.2622 104.822 20.2622ZM110.153 25.1752V24.3422H110.323C110.527 24.3422 110.726 24.3139 110.918 24.2572C111.122 24.2119 111.287 24.1042 111.411 23.9342C111.547 23.7756 111.615 23.5319 111.615 23.2032V13.9892C111.615 13.6379 111.559 13.3829 111.445 13.2242C111.332 13.0542 111.179 12.9466 110.986 12.9012C110.805 12.8446 110.601 12.8162 110.374 12.8162H110.221V11.9832H113.417L113.672 13.3942H113.74C113.99 12.9182 114.318 12.5386 114.726 12.2552C115.146 11.9606 115.684 11.8132 116.341 11.8132C117.463 11.8132 118.319 12.1929 118.908 12.9522C119.509 13.7116 119.809 14.9129 119.809 16.5562C119.809 18.1996 119.515 19.4009 118.925 20.1602C118.336 20.9082 117.486 21.2822 116.375 21.2822C115.729 21.2822 115.202 21.1576 114.794 20.9082C114.386 20.6476 114.058 20.3019 113.808 19.8712H113.706C113.729 20.0526 113.746 20.2736 113.757 20.5342C113.78 20.7949 113.797 21.0442 113.808 21.2822C113.82 21.5202 113.825 21.7186 113.825 21.8772V23.2202C113.825 23.5489 113.888 23.7926 114.012 23.9512C114.148 24.1099 114.313 24.2119 114.505 24.2572C114.709 24.3139 114.908 24.3422 115.1 24.3422H115.355V25.1752H110.153ZM115.78 20.0922C116.211 20.0922 116.557 19.9619 116.817 19.7012C117.078 19.4292 117.265 19.0326 117.378 18.5112C117.503 17.9899 117.565 17.3382 117.565 16.5562C117.565 15.7856 117.503 15.1396 117.378 14.6182C117.265 14.0856 117.078 13.6889 116.817 13.4282C116.557 13.1562 116.211 13.0202 115.78 13.0202C115.282 13.0202 114.885 13.1506 114.59 13.4112C114.307 13.6719 114.109 14.0686 113.995 14.6012C113.882 15.1339 113.825 15.7856 113.825 16.5562C113.825 17.3382 113.882 17.9956 113.995 18.5282C114.109 19.0496 114.307 19.4406 114.59 19.7012C114.885 19.9619 115.282 20.0922 115.78 20.0922ZM125.616 21.0952V20.2622H126.143C126.347 20.2622 126.529 20.2396 126.687 20.1942C126.846 20.1376 126.971 20.0299 127.061 19.8712C127.163 19.7012 127.214 19.4519 127.214 19.1232V10.9292C127.214 10.5892 127.163 10.3399 127.061 10.1812C126.971 10.0226 126.846 9.92058 126.687 9.87524C126.529 9.81858 126.347 9.79024 126.143 9.79024H125.616V8.95724H131.124V9.79024H130.597C130.405 9.79024 130.229 9.81291 130.07 9.85825C129.912 9.90358 129.781 10.0056 129.679 10.1642C129.589 10.3116 129.543 10.5439 129.543 10.8612V20.1262H132.773C133.057 20.1262 133.295 20.0639 133.487 19.9392C133.691 19.8146 133.85 19.6389 133.963 19.4122C134.077 19.1742 134.162 18.9136 134.218 18.6302L134.439 17.3552H135.374L135.255 21.0952H125.616ZM139.43 21.2652C138.932 21.2652 138.478 21.1689 138.07 20.9762C137.674 20.7722 137.356 20.4662 137.118 20.0582C136.892 19.6502 136.778 19.1346 136.778 18.5112C136.778 17.6046 137.096 16.9302 137.73 16.4882C138.365 16.0462 139.323 15.8026 140.603 15.7572L142.014 15.7062V14.7372C142.014 14.3519 141.986 14.0119 141.929 13.7172C141.873 13.4112 141.754 13.1732 141.572 13.0032C141.402 12.8332 141.13 12.7482 140.756 12.7482C140.416 12.7482 140.15 12.8276 139.957 12.9862C139.765 13.1449 139.634 13.3659 139.566 13.6492C139.498 13.9212 139.464 14.2329 139.464 14.5842C138.807 14.5842 138.314 14.5049 137.985 14.3462C137.657 14.1762 137.492 13.8872 137.492 13.4792C137.492 13.0712 137.64 12.7426 137.934 12.4932C138.24 12.2439 138.648 12.0626 139.158 11.9492C139.668 11.8359 140.224 11.7792 140.824 11.7792C141.958 11.7792 142.808 12.0002 143.374 12.4422C143.941 12.8729 144.224 13.6209 144.224 14.6862V19.0552C144.224 19.3612 144.253 19.6049 144.309 19.7862C144.377 19.9562 144.491 20.0809 144.649 20.1602C144.808 20.2282 145.012 20.2622 145.261 20.2622H145.312V21.0952H142.49L142.15 19.8202H142.014C141.765 20.1262 141.527 20.3869 141.3 20.6022C141.085 20.8176 140.83 20.9819 140.535 21.0952C140.252 21.2086 139.884 21.2652 139.43 21.2652ZM140.161 20.0922C140.547 20.0922 140.875 20.0016 141.147 19.8202C141.419 19.6389 141.629 19.3782 141.776 19.0382C141.935 18.6982 142.014 18.3016 142.014 17.8482V16.5392L141.13 16.5902C140.598 16.6129 140.178 16.7036 139.872 16.8622C139.578 17.0209 139.362 17.2419 139.226 17.5252C139.102 17.8086 139.039 18.1599 139.039 18.5792C139.039 18.9192 139.079 19.2026 139.158 19.4292C139.238 19.6446 139.362 19.8089 139.532 19.9222C139.702 20.0356 139.912 20.0922 140.161 20.0922ZM146.315 21.0952V20.2622H146.383C146.643 20.2622 146.876 20.2339 147.08 20.1772C147.284 20.1206 147.442 20.0072 147.556 19.8372C147.68 19.6672 147.743 19.4122 147.743 19.0722V13.9382C147.743 13.6096 147.686 13.3659 147.573 13.2072C147.459 13.0486 147.306 12.9466 147.114 12.9012C146.932 12.8446 146.717 12.8162 146.468 12.8162H146.4V11.9832H149.664L149.885 13.2582H149.97C150.196 12.8276 150.44 12.5102 150.701 12.3062C150.973 12.0909 151.262 11.9492 151.568 11.8812C151.885 11.8132 152.225 11.7792 152.588 11.7792C153.472 11.7792 154.163 12.0399 154.662 12.5612C155.16 13.0826 155.41 13.9212 155.41 15.0772V19.0552C155.41 19.4066 155.455 19.6672 155.546 19.8372C155.648 20.0072 155.784 20.1206 155.954 20.1772C156.135 20.2339 156.35 20.2622 156.6 20.2622H156.668V21.0952H153.2V15.4002C153.2 14.6636 153.081 14.0969 152.843 13.7002C152.616 13.2922 152.219 13.0882 151.653 13.0882C151.222 13.0882 150.882 13.2129 150.633 13.4622C150.395 13.7116 150.219 14.0402 150.106 14.4482C150.004 14.8562 149.953 15.2982 149.953 15.7742V19.1402C149.953 19.4689 150.004 19.7126 150.106 19.8712C150.219 20.0299 150.372 20.1376 150.565 20.1942C150.757 20.2396 150.978 20.2622 151.228 20.2622H151.296V21.0952H146.315ZM161.108 25.1752C159.827 25.1752 158.87 24.9656 158.235 24.5462C157.612 24.1382 157.3 23.5432 157.3 22.7612C157.3 22.3419 157.391 21.9906 157.572 21.7072C157.753 21.4239 158.014 21.2029 158.354 21.0442C158.694 20.8742 159.085 20.7666 159.527 20.7212C159.255 20.6079 159 20.4322 158.762 20.1942C158.524 19.9449 158.405 19.6276 158.405 19.2422C158.405 18.8909 158.524 18.5792 158.762 18.3072C159.011 18.0352 159.346 17.7802 159.765 17.5422C159.266 17.3496 158.864 17.0266 158.558 16.5732C158.252 16.1199 158.099 15.5702 158.099 14.9242C158.099 13.9382 158.377 13.1676 158.932 12.6122C159.499 12.0569 160.36 11.7792 161.516 11.7792C161.924 11.7792 162.304 11.8359 162.655 11.9492C163.018 12.0512 163.307 12.1759 163.522 12.3232C163.692 12.1419 163.862 11.9832 164.032 11.8472C164.202 11.6999 164.383 11.5866 164.576 11.5072C164.78 11.4279 165.001 11.3882 165.239 11.3882C165.624 11.3882 165.908 11.4846 166.089 11.6772C166.282 11.8586 166.378 12.0739 166.378 12.3232C166.378 12.5612 166.299 12.7766 166.14 12.9692C165.981 13.1619 165.698 13.2582 165.29 13.2582C165.29 13.0656 165.233 12.9069 165.12 12.7822C165.007 12.6576 164.859 12.5952 164.678 12.5952C164.565 12.5952 164.451 12.6122 164.338 12.6462C164.225 12.6802 164.128 12.7256 164.049 12.7822C164.264 13.0316 164.446 13.3376 164.593 13.7002C164.74 14.0629 164.814 14.4652 164.814 14.9072C164.814 15.7572 164.548 16.4656 164.015 17.0322C163.482 17.5876 162.649 17.8652 161.516 17.8652C161.391 17.8652 161.227 17.8596 161.023 17.8482C160.83 17.8256 160.677 17.8086 160.564 17.7972C160.383 17.8879 160.224 18.0126 160.088 18.1712C159.952 18.3299 159.884 18.5226 159.884 18.7492C159.884 18.9306 159.952 19.0722 160.088 19.1742C160.235 19.2762 160.468 19.3272 160.785 19.3272H162.791C163.516 19.3272 164.106 19.4349 164.559 19.6502C165.012 19.8542 165.347 20.1489 165.562 20.5342C165.777 20.9196 165.885 21.3729 165.885 21.8942C165.885 22.9142 165.494 23.7132 164.712 24.2912C163.941 24.8806 162.74 25.1752 161.108 25.1752ZM161.142 24.2232C161.867 24.2232 162.445 24.1496 162.876 24.0022C163.307 23.8549 163.613 23.6452 163.794 23.3732C163.987 23.1012 164.083 22.7726 164.083 22.3872C164.083 21.9679 163.953 21.6789 163.692 21.5202C163.443 21.3729 163.069 21.2992 162.57 21.2992H160.717C160.456 21.2992 160.196 21.3332 159.935 21.4012C159.686 21.4692 159.476 21.5996 159.306 21.7922C159.147 21.9962 159.068 22.3022 159.068 22.7102C159.068 23.0276 159.136 23.2996 159.272 23.5262C159.419 23.7529 159.646 23.9229 159.952 24.0362C160.258 24.1609 160.655 24.2232 161.142 24.2232ZM161.465 16.9302C161.805 16.9302 162.066 16.8566 162.247 16.7092C162.44 16.5506 162.57 16.3182 162.638 16.0122C162.717 15.7062 162.757 15.3322 162.757 14.8902C162.757 14.4369 162.717 14.0516 162.638 13.7342C162.559 13.4056 162.423 13.1562 162.23 12.9862C162.049 12.8162 161.788 12.7312 161.448 12.7312C161.131 12.7312 160.876 12.8219 160.683 13.0032C160.49 13.1732 160.354 13.4226 160.275 13.7512C160.196 14.0686 160.156 14.4539 160.156 14.9072C160.156 15.3379 160.196 15.7062 160.275 16.0122C160.366 16.3069 160.507 16.5336 160.7 16.6922C160.893 16.8509 161.148 16.9302 161.465 16.9302ZM170.998 21.2652C170.102 21.2652 169.417 20.9989 168.941 20.4662C168.465 19.9222 168.227 19.0722 168.227 17.9162V14.0062C168.227 13.6662 168.176 13.4112 168.074 13.2412C167.972 13.0712 167.824 12.9579 167.632 12.9012C167.45 12.8446 167.229 12.8162 166.969 12.8162H166.935V11.9832H170.437V17.5762C170.437 18.0749 170.476 18.4999 170.556 18.8512C170.646 19.2026 170.799 19.4746 171.015 19.6672C171.23 19.8599 171.525 19.9562 171.899 19.9562C172.318 19.9562 172.658 19.8486 172.919 19.6332C173.179 19.4066 173.372 19.0949 173.497 18.6982C173.621 18.3016 173.684 17.8369 173.684 17.3042V13.9552C173.684 13.6152 173.621 13.3659 173.497 13.2072C173.383 13.0486 173.23 12.9466 173.038 12.9012C172.845 12.8446 172.63 12.8162 172.392 12.8162H172.341V11.9832H175.894V19.1742C175.894 19.5029 175.945 19.7466 176.047 19.9052C176.16 20.0526 176.313 20.1489 176.506 20.1942C176.698 20.2396 176.908 20.2622 177.135 20.2622H177.237V21.0952H174.109L173.786 19.8202H173.701C173.531 20.1262 173.344 20.3756 173.14 20.5682C172.936 20.7496 172.72 20.8912 172.494 20.9932C172.267 21.0952 172.029 21.1632 171.78 21.1972C171.53 21.2426 171.27 21.2652 170.998 21.2652ZM181.1 21.2652C180.602 21.2652 180.148 21.1689 179.74 20.9762C179.344 20.7722 179.026 20.4662 178.788 20.0582C178.562 19.6502 178.448 19.1346 178.448 18.5112C178.448 17.6046 178.766 16.9302 179.4 16.4882C180.035 16.0462 180.993 15.8026 182.273 15.7572L183.684 15.7062V14.7372C183.684 14.3519 183.656 14.0119 183.599 13.7172C183.543 13.4112 183.424 13.1732 183.242 13.0032C183.072 12.8332 182.8 12.7482 182.426 12.7482C182.086 12.7482 181.82 12.8276 181.627 12.9862C181.435 13.1449 181.304 13.3659 181.236 13.6492C181.168 13.9212 181.134 14.2329 181.134 14.5842C180.477 14.5842 179.984 14.5049 179.655 14.3462C179.327 14.1762 179.162 13.8872 179.162 13.4792C179.162 13.0712 179.31 12.7426 179.604 12.4932C179.91 12.2439 180.318 12.0626 180.828 11.9492C181.338 11.8359 181.894 11.7792 182.494 11.7792C183.628 11.7792 184.478 12.0002 185.044 12.4422C185.611 12.8729 185.894 13.6209 185.894 14.6862V19.0552C185.894 19.3612 185.923 19.6049 185.979 19.7862C186.047 19.9562 186.161 20.0809 186.319 20.1602C186.478 20.2282 186.682 20.2622 186.931 20.2622H186.982V21.0952H184.16L183.82 19.8202H183.684C183.435 20.1262 183.197 20.3869 182.97 20.6022C182.755 20.8176 182.5 20.9819 182.205 21.0952C181.922 21.2086 181.554 21.2652 181.1 21.2652ZM181.831 20.0922C182.217 20.0922 182.545 20.0016 182.817 19.8202C183.089 19.6389 183.299 19.3782 183.446 19.0382C183.605 18.6982 183.684 18.3016 183.684 17.8482V16.5392L182.8 16.5902C182.268 16.6129 181.848 16.7036 181.542 16.8622C181.248 17.0209 181.032 17.2419 180.896 17.5252C180.772 17.8086 180.709 18.1599 180.709 18.5792C180.709 18.9192 180.749 19.2026 180.828 19.4292C180.908 19.6446 181.032 19.8089 181.202 19.9222C181.372 20.0356 181.582 20.0922 181.831 20.0922ZM191.572 25.1752C190.291 25.1752 189.333 24.9656 188.699 24.5462C188.075 24.1382 187.764 23.5432 187.764 22.7612C187.764 22.3419 187.854 21.9906 188.036 21.7072C188.217 21.4239 188.478 21.2029 188.818 21.0442C189.158 20.8742 189.549 20.7666 189.991 20.7212C189.719 20.6079 189.464 20.4322 189.226 20.1942C188.988 19.9449 188.869 19.6276 188.869 19.2422C188.869 18.8909 188.988 18.5792 189.226 18.3072C189.475 18.0352 189.809 17.7802 190.229 17.5422C189.73 17.3496 189.328 17.0266 189.022 16.5732C188.716 16.1199 188.563 15.5702 188.563 14.9242C188.563 13.9382 188.84 13.1676 189.396 12.6122C189.962 12.0569 190.824 11.7792 191.98 11.7792C192.388 11.7792 192.767 11.8359 193.119 11.9492C193.481 12.0512 193.77 12.1759 193.986 12.3232C194.156 12.1419 194.326 11.9832 194.496 11.8472C194.666 11.6999 194.847 11.5866 195.04 11.5072C195.244 11.4279 195.465 11.3882 195.703 11.3882C196.088 11.3882 196.371 11.4846 196.553 11.6772C196.745 11.8586 196.842 12.0739 196.842 12.3232C196.842 12.5612 196.762 12.7766 196.604 12.9692C196.445 13.1619 196.162 13.2582 195.754 13.2582C195.754 13.0656 195.697 12.9069 195.584 12.7822C195.47 12.6576 195.323 12.5952 195.142 12.5952C195.028 12.5952 194.915 12.6122 194.802 12.6462C194.688 12.6802 194.592 12.7256 194.513 12.7822C194.728 13.0316 194.909 13.3376 195.057 13.7002C195.204 14.0629 195.278 14.4652 195.278 14.9072C195.278 15.7572 195.011 16.4656 194.479 17.0322C193.946 17.5876 193.113 17.8652 191.98 17.8652C191.855 17.8652 191.691 17.8596 191.487 17.8482C191.294 17.8256 191.141 17.8086 191.028 17.7972C190.846 17.8879 190.688 18.0126 190.552 18.1712C190.416 18.3299 190.348 18.5226 190.348 18.7492C190.348 18.9306 190.416 19.0722 190.552 19.1742C190.699 19.2762 190.931 19.3272 191.249 19.3272H193.255C193.98 19.3272 194.569 19.4349 195.023 19.6502C195.476 19.8542 195.81 20.1489 196.026 20.5342C196.241 20.9196 196.349 21.3729 196.349 21.8942C196.349 22.9142 195.958 23.7132 195.176 24.2912C194.405 24.8806 193.204 25.1752 191.572 25.1752ZM191.606 24.2232C192.331 24.2232 192.909 24.1496 193.34 24.0022C193.77 23.8549 194.076 23.6452 194.258 23.3732C194.45 23.1012 194.547 22.7726 194.547 22.3872C194.547 21.9679 194.416 21.6789 194.156 21.5202C193.906 21.3729 193.532 21.2992 193.034 21.2992H191.181C190.92 21.2992 190.659 21.3332 190.399 21.4012C190.149 21.4692 189.94 21.5996 189.77 21.7922C189.611 21.9962 189.532 22.3022 189.532 22.7102C189.532 23.0276 189.6 23.2996 189.736 23.5262C189.883 23.7529 190.11 23.9229 190.416 24.0362C190.722 24.1609 191.118 24.2232 191.606 24.2232ZM191.929 16.9302C192.269 16.9302 192.529 16.8566 192.711 16.7092C192.903 16.5506 193.034 16.3182 193.102 16.0122C193.181 15.7062 193.221 15.3322 193.221 14.8902C193.221 14.4369 193.181 14.0516 193.102 13.7342C193.022 13.4056 192.886 13.1562 192.694 12.9862C192.512 12.8162 192.252 12.7312 191.912 12.7312C191.594 12.7312 191.339 12.8219 191.147 13.0032C190.954 13.1732 190.818 13.4226 190.739 13.7512C190.659 14.0686 190.62 14.4539 190.62 14.9072C190.62 15.3379 190.659 15.7062 190.739 16.0122C190.829 16.3069 190.971 16.5336 191.164 16.6922C191.356 16.8509 191.611 16.9302 191.929 16.9302ZM202.057 21.2652C200.697 21.2652 199.648 20.8572 198.912 20.0412C198.186 19.2139 197.824 18.0636 197.824 16.5902C197.824 15.0036 198.175 13.8079 198.878 13.0032C199.592 12.1872 200.589 11.7792 201.87 11.7792C203.06 11.7792 203.989 12.1249 204.658 12.8162C205.338 13.4962 205.678 14.5106 205.678 15.8592V16.6922H200.068C200.09 17.4856 200.192 18.1316 200.374 18.6302C200.566 19.1176 200.833 19.4802 201.173 19.7182C201.524 19.9562 201.949 20.0752 202.448 20.0752C202.844 20.0752 203.196 20.0186 203.502 19.9052C203.819 19.7806 204.091 19.6219 204.318 19.4292C204.544 19.2252 204.726 19.0042 204.862 18.7662C204.986 18.8229 205.083 18.9192 205.151 19.0552C205.23 19.1799 205.27 19.3272 205.27 19.4972C205.27 19.7806 205.151 20.0582 204.913 20.3302C204.686 20.6022 204.335 20.8289 203.859 21.0102C203.394 21.1802 202.793 21.2652 202.057 21.2652ZM203.417 15.6722C203.417 15.0942 203.366 14.5899 203.264 14.1592C203.162 13.7286 202.997 13.3999 202.771 13.1732C202.555 12.9352 202.261 12.8162 201.887 12.8162C201.524 12.8162 201.212 12.9239 200.952 13.1392C200.702 13.3546 200.504 13.6776 200.357 14.1082C200.221 14.5276 200.136 15.0489 200.102 15.6722H203.417ZM210.228 21.2652C209.502 21.2652 208.902 21.1859 208.426 21.0272C207.961 20.8686 207.615 20.6476 207.389 20.3642C207.162 20.0696 207.049 19.7296 207.049 19.3442C207.049 18.9929 207.128 18.7322 207.287 18.5622C207.445 18.3809 207.632 18.2619 207.848 18.2052C208.063 18.1372 208.256 18.1032 208.426 18.1032C208.426 18.5452 208.494 18.9362 208.63 19.2762C208.777 19.6049 208.987 19.8656 209.259 20.0582C209.531 20.2396 209.865 20.3302 210.262 20.3302C210.862 20.3302 211.304 20.2056 211.588 19.9562C211.871 19.7069 212.013 19.3952 212.013 19.0212C212.013 18.7606 211.95 18.5396 211.826 18.3582C211.712 18.1769 211.503 18.0012 211.197 17.8312C210.891 17.6612 210.466 17.4742 209.922 17.2702C209.332 17.0436 208.834 16.8056 208.426 16.5562C208.018 16.2956 207.712 15.9952 207.508 15.6552C207.304 15.3152 207.202 14.8902 207.202 14.3802C207.202 13.5302 207.519 12.8899 208.154 12.4592C208.788 12.0172 209.627 11.7962 210.67 11.7962C211.327 11.7962 211.86 11.8699 212.268 12.0172C212.676 12.1646 212.976 12.3629 213.169 12.6122C213.361 12.8502 213.458 13.1052 213.458 13.3772C213.458 13.7286 213.333 14.0006 213.084 14.1932C212.846 14.3859 212.46 14.4822 211.928 14.4822C211.928 13.9156 211.803 13.4792 211.554 13.1732C211.304 12.8559 210.93 12.6972 210.432 12.6972C210.148 12.6972 209.893 12.7426 209.667 12.8332C209.451 12.9239 209.281 13.0599 209.157 13.2412C209.032 13.4112 208.97 13.6209 208.97 13.8702C208.97 14.1196 209.038 14.3406 209.174 14.5332C209.31 14.7146 209.542 14.8902 209.871 15.0602C210.199 15.2302 210.647 15.4172 211.214 15.6212C211.758 15.8252 212.217 16.0519 212.591 16.3012C212.976 16.5392 213.271 16.8282 213.475 17.1682C213.679 17.5082 213.781 17.9162 213.781 18.3922C213.781 19.3102 213.463 20.0186 212.829 20.5172C212.205 21.0159 211.338 21.2652 210.228 21.2652Z" fill="white"/>
<path d="M16.384 50V49.412H16.756C16.9 49.412 17.028 49.396 17.14 49.364C17.252 49.324 17.34 49.248 17.404 49.136C17.476 49.016 17.512 48.84 17.512 48.608V42.776C17.512 42.552 17.476 42.388 17.404 42.284C17.332 42.172 17.24 42.1 17.128 42.068C17.016 42.036 16.892 42.02 16.756 42.02H16.384V41.432H19.948C21.02 41.432 21.812 41.66 22.324 42.116C22.844 42.564 23.104 43.18 23.104 43.964C23.104 44.324 23.04 44.668 22.912 44.996C22.792 45.316 22.596 45.608 22.324 45.872C22.06 46.128 21.708 46.332 21.268 46.484C20.836 46.628 20.308 46.7 19.684 46.7H19.144V48.668C19.144 48.884 19.18 49.048 19.252 49.16C19.324 49.264 19.416 49.332 19.528 49.364C19.648 49.396 19.776 49.412 19.912 49.412H20.512V50H16.384ZM19.564 46.052C19.884 46.052 20.156 46.016 20.38 45.944C20.612 45.864 20.8 45.744 20.944 45.584C21.088 45.424 21.192 45.216 21.256 44.96C21.32 44.696 21.352 44.38 21.352 44.012C21.352 43.572 21.3 43.212 21.196 42.932C21.092 42.652 20.92 42.444 20.68 42.308C20.448 42.164 20.136 42.092 19.744 42.092H19.144V46.052H19.564ZM23.872 52.232C24.288 52.232 24.644 52.176 24.94 52.064C25.236 51.96 25.484 51.808 25.684 51.608C25.892 51.416 26.064 51.184 26.2 50.912C26.336 50.64 26.452 50.344 26.548 50.024L24.364 44.756C24.3 44.604 24.228 44.488 24.148 44.408C24.076 44.328 23.992 44.276 23.896 44.252C23.8 44.22 23.688 44.204 23.56 44.204H23.524V43.568H26.728V44.156H26.692C26.468 44.156 26.292 44.192 26.164 44.264C26.036 44.336 25.972 44.464 25.972 44.648C25.972 44.712 25.984 44.788 26.008 44.876C26.032 44.956 26.06 45.032 26.092 45.104L26.932 47.276C26.988 47.428 27.04 47.572 27.088 47.708C27.136 47.844 27.176 47.972 27.208 48.092C27.248 48.212 27.28 48.328 27.304 48.44C27.328 48.544 27.348 48.64 27.364 48.728C27.396 48.536 27.448 48.328 27.52 48.104C27.6 47.88 27.664 47.708 27.712 47.588L28.504 45.236C28.536 45.148 28.564 45.052 28.588 44.948C28.612 44.836 28.624 44.744 28.624 44.672C28.624 44.488 28.552 44.356 28.408 44.276C28.272 44.196 28.072 44.156 27.808 44.156H27.76V43.568H30.388V44.156H30.34C30.196 44.156 30.068 44.184 29.956 44.24C29.852 44.288 29.76 44.38 29.68 44.516C29.6 44.644 29.516 44.824 29.428 45.056L27.616 50.024C27.408 50.608 27.208 51.084 27.016 51.452C26.824 51.82 26.604 52.108 26.356 52.316C26.116 52.524 25.812 52.668 25.444 52.748C25.076 52.836 24.608 52.88 24.04 52.88H23.872V52.232ZM33.2946 50.12C32.7266 50.12 32.2906 49.98 31.9866 49.7C31.6906 49.42 31.5426 48.932 31.5426 48.236V44.336H30.6306V43.772C30.8466 43.772 31.0506 43.728 31.2426 43.64C31.4346 43.552 31.5946 43.444 31.7226 43.316C31.8426 43.18 31.9506 43.012 32.0466 42.812C32.1426 42.612 32.2186 42.368 32.2746 42.08H33.1026V43.568H34.6506V44.336H33.1026V48.176C33.1026 48.552 33.1706 48.832 33.3066 49.016C33.4506 49.192 33.6586 49.28 33.9306 49.28C34.0906 49.28 34.2346 49.272 34.3626 49.256C34.4986 49.232 34.6306 49.204 34.7586 49.172V49.856C34.6386 49.912 34.4466 49.968 34.1826 50.024C33.9266 50.088 33.6306 50.12 33.2946 50.12ZM35.2358 50V49.412H35.2958C35.4798 49.412 35.6398 49.392 35.7758 49.352C35.9198 49.312 36.0358 49.232 36.1238 49.112C36.2118 48.992 36.2558 48.812 36.2558 48.572L36.2438 42.224C36.2438 42 36.1958 41.836 36.0998 41.732C36.0038 41.62 35.8878 41.548 35.7518 41.516C35.6158 41.484 35.4798 41.468 35.3438 41.468H35.2118V40.88H37.8038V43.112C37.8038 43.296 37.7958 43.492 37.7798 43.7C37.7718 43.9 37.7598 44.076 37.7438 44.228C37.7358 44.372 37.7318 44.444 37.7318 44.444H37.8158C37.9598 44.164 38.1238 43.952 38.3078 43.808C38.4918 43.656 38.6918 43.556 38.9078 43.508C39.1318 43.452 39.3718 43.424 39.6278 43.424C40.2678 43.424 40.7638 43.608 41.1158 43.976C41.4758 44.344 41.6558 44.936 41.6558 45.752V48.56C41.6558 48.808 41.6878 48.992 41.7518 49.112C41.8238 49.232 41.9238 49.312 42.0518 49.352C42.1798 49.392 42.3318 49.412 42.5078 49.412H42.5438V50H40.0958V45.98C40.0958 45.46 40.0158 45.06 39.8558 44.78C39.6958 44.492 39.4118 44.348 39.0038 44.348C38.7158 44.348 38.4838 44.432 38.3078 44.6C38.1318 44.768 38.0038 44.996 37.9238 45.284C37.8438 45.572 37.8038 45.892 37.8038 46.244L37.8158 48.62C37.8158 48.852 37.8518 49.024 37.9238 49.136C38.0038 49.248 38.1118 49.324 38.2478 49.364C38.3838 49.396 38.5398 49.412 38.7158 49.412H38.7518V50H35.2358ZM46.4471 50.12C45.5271 50.12 44.7991 49.844 44.2631 49.292C43.7351 48.74 43.4711 47.896 43.4711 46.76C43.4711 45.64 43.7231 44.804 44.2271 44.252C44.7391 43.7 45.4911 43.424 46.4831 43.424C47.4111 43.424 48.1391 43.7 48.6671 44.252C49.1951 44.804 49.4591 45.64 49.4591 46.76C49.4591 47.896 49.2031 48.74 48.6911 49.292C48.1871 49.844 47.4391 50.12 46.4471 50.12ZM46.4711 49.412C46.8151 49.412 47.0871 49.316 47.2871 49.124C47.4951 48.924 47.6431 48.624 47.7311 48.224C47.8191 47.824 47.8631 47.336 47.8631 46.76C47.8631 46.176 47.8151 45.692 47.7191 45.308C47.6311 44.924 47.4831 44.636 47.2751 44.444C47.0751 44.244 46.8031 44.144 46.4591 44.144C46.1231 44.144 45.8511 44.244 45.6431 44.444C45.4351 44.636 45.2871 44.924 45.1991 45.308C45.1111 45.692 45.0671 46.176 45.0671 46.76C45.0671 47.344 45.1111 47.832 45.1991 48.224C45.2951 48.616 45.4431 48.912 45.6431 49.112C45.8511 49.312 46.1271 49.412 46.4711 49.412ZM50.3307 50V49.412H50.3787C50.5627 49.412 50.7267 49.392 50.8707 49.352C51.0147 49.312 51.1267 49.232 51.2067 49.112C51.2947 48.992 51.3387 48.812 51.3387 48.572V44.948C51.3387 44.716 51.2987 44.544 51.2187 44.432C51.1387 44.32 51.0307 44.248 50.8947 44.216C50.7667 44.176 50.6147 44.156 50.4387 44.156H50.3907V43.568H52.6947L52.8507 44.468H52.9107C53.0707 44.164 53.2427 43.94 53.4267 43.796C53.6187 43.644 53.8227 43.544 54.0387 43.496C54.2627 43.448 54.5027 43.424 54.7587 43.424C55.3827 43.424 55.8707 43.608 56.2227 43.976C56.5747 44.344 56.7507 44.936 56.7507 45.752V48.56C56.7507 48.808 56.7827 48.992 56.8467 49.112C56.9187 49.232 57.0147 49.312 57.1347 49.352C57.2627 49.392 57.4147 49.412 57.5907 49.412H57.6387V50H55.1907V45.98C55.1907 45.46 55.1067 45.06 54.9387 44.78C54.7787 44.492 54.4987 44.348 54.0987 44.348C53.7947 44.348 53.5547 44.436 53.3787 44.612C53.2107 44.788 53.0867 45.02 53.0067 45.308C52.9347 45.596 52.8987 45.908 52.8987 46.244V48.62C52.8987 48.852 52.9347 49.024 53.0067 49.136C53.0867 49.248 53.1947 49.324 53.3307 49.364C53.4667 49.396 53.6227 49.412 53.7987 49.412H53.8467V50H50.3307Z" fill="black"/>
<path d="M15.796 77.88V77.232H15.964C16.26 77.232 16.524 77.164 16.756 77.028C16.988 76.9 17.172 76.676 17.308 76.356C17.452 76.044 17.524 75.612 17.524 75.06V67.776C17.524 67.552 17.488 67.388 17.416 67.284C17.344 67.172 17.252 67.1 17.14 67.068C17.028 67.036 16.904 67.02 16.768 67.02H16.396V66.432H20.296V67.02H19.924C19.788 67.02 19.66 67.04 19.54 67.08C19.42 67.112 19.324 67.184 19.252 67.296C19.188 67.408 19.156 67.584 19.156 67.824V75.048C19.156 75.592 19.076 76.044 18.916 76.404C18.756 76.772 18.536 77.06 18.256 77.268C17.976 77.484 17.652 77.64 17.284 77.736C16.916 77.832 16.536 77.88 16.144 77.88H15.796ZM23.018 75.12C22.666 75.12 22.346 75.052 22.058 74.916C21.778 74.772 21.554 74.556 21.386 74.268C21.226 73.98 21.146 73.616 21.146 73.176C21.146 72.536 21.37 72.06 21.818 71.748C22.266 71.436 22.942 71.264 23.846 71.232L24.842 71.196V70.512C24.842 70.24 24.822 70 24.782 69.792C24.742 69.576 24.658 69.408 24.53 69.288C24.41 69.168 24.218 69.108 23.954 69.108C23.714 69.108 23.526 69.164 23.39 69.276C23.254 69.388 23.162 69.544 23.114 69.744C23.066 69.936 23.042 70.156 23.042 70.404C22.578 70.404 22.23 70.348 21.998 70.236C21.766 70.116 21.65 69.912 21.65 69.624C21.65 69.336 21.754 69.104 21.962 68.928C22.178 68.752 22.466 68.624 22.826 68.544C23.186 68.464 23.578 68.424 24.002 68.424C24.802 68.424 25.402 68.58 25.802 68.892C26.202 69.196 26.402 69.724 26.402 70.476V73.56C26.402 73.776 26.422 73.948 26.462 74.076C26.51 74.196 26.59 74.284 26.702 74.34C26.814 74.388 26.958 74.412 27.134 74.412H27.17V75H25.178L24.938 74.1H24.842C24.666 74.316 24.498 74.5 24.338 74.652C24.186 74.804 24.006 74.92 23.798 75C23.598 75.08 23.338 75.12 23.018 75.12ZM23.534 74.292C23.806 74.292 24.038 74.228 24.23 74.1C24.422 73.972 24.57 73.788 24.674 73.548C24.786 73.308 24.842 73.028 24.842 72.708V71.784L24.218 71.82C23.842 71.836 23.546 71.9 23.33 72.012C23.122 72.124 22.97 72.28 22.874 72.48C22.786 72.68 22.742 72.928 22.742 73.224C22.742 73.464 22.77 73.664 22.826 73.824C22.882 73.976 22.97 74.092 23.09 74.172C23.21 74.252 23.358 74.292 23.534 74.292ZM28.5496 69.756C28.4936 69.596 28.4256 69.472 28.3456 69.384C28.2736 69.296 28.1776 69.236 28.0576 69.204C27.9376 69.172 27.7936 69.156 27.6256 69.156V68.568H31.0696V69.156H30.6976C30.5296 69.156 30.4016 69.192 30.3136 69.264C30.2256 69.336 30.1816 69.452 30.1816 69.612C30.1816 69.692 30.1896 69.776 30.2056 69.864C30.2296 69.952 30.2536 70.032 30.2776 70.104L31.0936 72.372C31.1576 72.548 31.2176 72.736 31.2736 72.936C31.3376 73.136 31.3936 73.328 31.4416 73.512C31.4976 73.688 31.5416 73.848 31.5736 73.992C31.5976 73.864 31.6336 73.72 31.6816 73.56C31.7296 73.392 31.7816 73.224 31.8376 73.056C31.9016 72.88 31.9576 72.724 32.0056 72.588L32.8456 70.2C32.8856 70.096 32.9136 69.992 32.9296 69.888C32.9536 69.784 32.9656 69.684 32.9656 69.588C32.9656 69.428 32.9136 69.316 32.8096 69.252C32.7056 69.188 32.5616 69.156 32.3776 69.156H32.1256V68.568H34.7416V69.156H34.5376C34.4096 69.156 34.3016 69.18 34.2136 69.228C34.1256 69.268 34.0416 69.352 33.9616 69.48C33.8816 69.608 33.7936 69.8 33.6976 70.056L31.9096 75H30.5056L28.5496 69.756ZM37.186 75.12C36.834 75.12 36.514 75.052 36.226 74.916C35.946 74.772 35.722 74.556 35.554 74.268C35.394 73.98 35.314 73.616 35.314 73.176C35.314 72.536 35.538 72.06 35.986 71.748C36.434 71.436 37.11 71.264 38.014 71.232L39.01 71.196V70.512C39.01 70.24 38.99 70 38.95 69.792C38.91 69.576 38.826 69.408 38.698 69.288C38.578 69.168 38.386 69.108 38.122 69.108C37.882 69.108 37.694 69.164 37.558 69.276C37.422 69.388 37.33 69.544 37.282 69.744C37.234 69.936 37.21 70.156 37.21 70.404C36.746 70.404 36.398 70.348 36.166 70.236C35.934 70.116 35.818 69.912 35.818 69.624C35.818 69.336 35.922 69.104 36.13 68.928C36.346 68.752 36.634 68.624 36.994 68.544C37.354 68.464 37.746 68.424 38.17 68.424C38.97 68.424 39.57 68.58 39.97 68.892C40.37 69.196 40.57 69.724 40.57 70.476V73.56C40.57 73.776 40.59 73.948 40.63 74.076C40.678 74.196 40.758 74.284 40.87 74.34C40.982 74.388 41.126 74.412 41.302 74.412H41.338V75H39.346L39.106 74.1H39.01C38.834 74.316 38.666 74.5 38.506 74.652C38.354 74.804 38.174 74.92 37.966 75C37.766 75.08 37.506 75.12 37.186 75.12ZM37.702 74.292C37.974 74.292 38.206 74.228 38.398 74.1C38.59 73.972 38.738 73.788 38.842 73.548C38.954 73.308 39.01 73.028 39.01 72.708V71.784L38.386 71.82C38.01 71.836 37.714 71.9 37.498 72.012C37.29 72.124 37.138 72.28 37.042 72.48C36.954 72.68 36.91 72.928 36.91 73.224C36.91 73.464 36.938 73.664 36.994 73.824C37.05 73.976 37.138 74.092 37.258 74.172C37.378 74.252 37.526 74.292 37.702 74.292Z" fill="black"/>
<path d="M19.48 98.12C18.92 98.12 18.424 98.012 17.992 97.796C17.56 97.58 17.22 97.232 16.972 96.752C16.724 96.264 16.6 95.616 16.6 94.808C16.6 93.952 16.724 93.28 16.972 92.792C17.228 92.296 17.568 91.944 17.992 91.736C18.424 91.528 18.908 91.424 19.444 91.424C19.892 91.424 20.284 91.476 20.62 91.58C20.964 91.684 21.232 91.828 21.424 92.012C21.616 92.196 21.712 92.416 21.712 92.672C21.712 92.848 21.668 93.008 21.58 93.152C21.5 93.288 21.36 93.396 21.16 93.476C20.96 93.556 20.688 93.596 20.344 93.596C20.344 93.324 20.316 93.076 20.26 92.852C20.212 92.628 20.124 92.448 19.996 92.312C19.876 92.176 19.7 92.108 19.468 92.108C19.212 92.108 18.984 92.188 18.784 92.348C18.592 92.5 18.444 92.772 18.34 93.164C18.236 93.556 18.184 94.1 18.184 94.796C18.184 95.348 18.24 95.808 18.352 96.176C18.464 96.536 18.632 96.808 18.856 96.992C19.088 97.176 19.392 97.268 19.768 97.268C20.032 97.268 20.272 97.228 20.488 97.148C20.712 97.068 20.904 96.96 21.064 96.824C21.232 96.68 21.36 96.52 21.448 96.344C21.528 96.4 21.588 96.472 21.628 96.56C21.676 96.648 21.7 96.748 21.7 96.86C21.7 97.06 21.62 97.256 21.46 97.448C21.3 97.64 21.056 97.8 20.728 97.928C20.408 98.056 19.992 98.12 19.48 98.12ZM22.1641 99.452L24.8401 88.88H25.6201L22.9681 99.464L22.1641 99.452ZM29.1011 98.12C28.5411 98.12 28.0451 98.012 27.6131 97.796C27.1811 97.58 26.8411 97.232 26.5931 96.752C26.3451 96.264 26.2211 95.616 26.2211 94.808C26.2211 93.952 26.3451 93.28 26.5931 92.792C26.8491 92.296 27.1891 91.944 27.6131 91.736C28.0451 91.528 28.5291 91.424 29.0651 91.424C29.5131 91.424 29.9051 91.476 30.2411 91.58C30.5851 91.684 30.8531 91.828 31.0451 92.012C31.2371 92.196 31.3331 92.416 31.3331 92.672C31.3331 92.848 31.2891 93.008 31.2011 93.152C31.1211 93.288 30.9811 93.396 30.7811 93.476C30.5811 93.556 30.3091 93.596 29.9651 93.596C29.9651 93.324 29.9371 93.076 29.8811 92.852C29.8331 92.628 29.7451 92.448 29.6171 92.312C29.4971 92.176 29.3211 92.108 29.0891 92.108C28.8331 92.108 28.6051 92.188 28.4051 92.348C28.2131 92.5 28.0651 92.772 27.9611 93.164C27.8571 93.556 27.8051 94.1 27.8051 94.796C27.8051 95.348 27.8611 95.808 27.9731 96.176C28.0851 96.536 28.2531 96.808 28.4771 96.992C28.7091 97.176 29.0131 97.268 29.3891 97.268C29.6531 97.268 29.8931 97.228 30.1091 97.148C30.3331 97.068 30.5251 96.96 30.6851 96.824C30.8531 96.68 30.9811 96.52 31.0691 96.344C31.1491 96.4 31.2091 96.472 31.2491 96.56C31.2971 96.648 31.3211 96.748 31.3211 96.86C31.3211 97.06 31.2411 97.256 31.0811 97.448C30.9211 97.64 30.6771 97.8 30.3491 97.928C30.0291 98.056 29.6131 98.12 29.1011 98.12ZM34.7252 96.284V94.112H32.5652V93.308H34.7252V91.136H35.5412V93.308H37.7132V94.112H35.5412V96.284H34.7252ZM41.4283 96.284V94.112H39.2683V93.308H41.4283V91.136H42.2443V93.308H44.4163V94.112H42.2443V96.284H41.4283Z" fill="black"/>
<path d="M19.096 121.12C18.608 121.12 18.196 121.076 17.86 120.988C17.524 120.892 17.252 120.764 17.044 120.604C16.836 120.444 16.684 120.264 16.588 120.064C16.492 119.856 16.444 119.648 16.444 119.44C16.444 119.208 16.496 119.02 16.6 118.876C16.704 118.724 16.844 118.612 17.02 118.54C17.204 118.468 17.4 118.432 17.608 118.432C17.616 118.84 17.684 119.196 17.812 119.5C17.94 119.804 18.124 120.04 18.364 120.208C18.612 120.368 18.908 120.448 19.252 120.448C19.748 120.448 20.132 120.324 20.404 120.076C20.684 119.82 20.824 119.484 20.824 119.068C20.824 118.788 20.756 118.548 20.62 118.348C20.484 118.148 20.272 117.964 19.984 117.796C19.696 117.628 19.324 117.452 18.868 117.268C18.476 117.108 18.136 116.936 17.848 116.752C17.56 116.568 17.328 116.372 17.152 116.164C16.976 115.956 16.844 115.728 16.756 115.48C16.676 115.224 16.636 114.94 16.636 114.628C16.636 114.156 16.76 113.748 17.008 113.404C17.256 113.052 17.592 112.784 18.016 112.6C18.44 112.408 18.924 112.312 19.468 112.312C20.012 112.312 20.464 112.376 20.824 112.504C21.184 112.624 21.452 112.788 21.628 112.996C21.812 113.204 21.904 113.432 21.904 113.68C21.904 113.952 21.796 114.176 21.58 114.352C21.364 114.52 21.044 114.604 20.62 114.604C20.62 114.372 20.576 114.132 20.488 113.884C20.408 113.636 20.272 113.428 20.08 113.26C19.896 113.084 19.644 112.996 19.324 112.996C19.076 112.996 18.852 113.044 18.652 113.14C18.46 113.228 18.308 113.364 18.196 113.548C18.084 113.724 18.028 113.94 18.028 114.196C18.028 114.46 18.084 114.692 18.196 114.892C18.308 115.092 18.504 115.284 18.784 115.468C19.064 115.652 19.46 115.848 19.972 116.056C20.492 116.264 20.916 116.488 21.244 116.728C21.58 116.96 21.828 117.228 21.988 117.532C22.156 117.828 22.24 118.176 22.24 118.576C22.24 119.088 22.108 119.536 21.844 119.92C21.588 120.296 21.224 120.592 20.752 120.808C20.288 121.016 19.736 121.12 19.096 121.12ZM29.6838 123.832C29.3398 123.832 28.9998 123.784 28.6638 123.688C28.3278 123.592 28.0198 123.432 27.7398 123.208C27.4678 122.992 27.2398 122.708 27.0558 122.356C26.8798 122.004 26.7718 121.576 26.7318 121.072C26.0118 120.968 25.4118 120.724 24.9318 120.34C24.4598 119.956 24.1038 119.452 23.8638 118.828C23.6238 118.204 23.5038 117.492 23.5038 116.692C23.5038 115.804 23.6478 115.032 23.9358 114.376C24.2318 113.72 24.6718 113.212 25.2558 112.852C25.8478 112.484 26.5878 112.3 27.4758 112.3C28.3238 112.3 29.0398 112.484 29.6237 112.852C30.2078 113.212 30.6518 113.724 30.9558 114.388C31.2598 115.044 31.4118 115.816 31.4118 116.704C31.4118 117.464 31.2998 118.144 31.0758 118.744C30.8518 119.336 30.5198 119.828 30.0798 120.22C29.6478 120.612 29.1158 120.88 28.4838 121.024C28.5158 121.448 28.5838 121.8 28.6878 122.08C28.7918 122.36 28.9198 122.58 29.0718 122.74C29.2318 122.908 29.4078 123.024 29.5998 123.088C29.7998 123.152 30.0078 123.184 30.2238 123.184H30.4158V123.832H29.6838ZM27.4638 120.388C27.8718 120.388 28.2118 120.308 28.4838 120.148C28.7638 119.98 28.9878 119.74 29.1558 119.428C29.3318 119.108 29.4598 118.72 29.5398 118.264C29.6198 117.808 29.6598 117.288 29.6598 116.704C29.6598 116.12 29.6198 115.604 29.5398 115.156C29.4598 114.7 29.3358 114.316 29.1678 114.004C28.9998 113.684 28.7758 113.444 28.4958 113.284C28.2238 113.116 27.8838 113.032 27.4758 113.032C27.0758 113.032 26.7318 113.116 26.4438 113.284C26.1638 113.444 25.9358 113.684 25.7598 114.004C25.5918 114.316 25.4678 114.7 25.3878 115.156C25.3078 115.604 25.2678 116.12 25.2678 116.704C25.2678 117.288 25.3078 117.808 25.3878 118.264C25.4678 118.72 25.5918 119.108 25.7598 119.428C25.9358 119.74 26.1638 119.98 26.4438 120.148C26.7318 120.308 27.0718 120.388 27.4638 120.388ZM32.4621 121V120.412H32.8341C32.9781 120.412 33.1061 120.396 33.2181 120.364C33.3301 120.324 33.4181 120.248 33.4821 120.136C33.5541 120.016 33.5901 119.84 33.5901 119.608V113.824C33.5901 113.584 33.5541 113.408 33.4821 113.296C33.4181 113.184 33.3301 113.112 33.2181 113.08C33.1061 113.04 32.9781 113.02 32.8341 113.02H32.4621V112.432H36.3501V113.02H35.9781C35.8421 113.02 35.7181 113.036 35.6061 113.068C35.4941 113.1 35.4021 113.172 35.3301 113.284C35.2661 113.388 35.2341 113.552 35.2341 113.776V120.316H37.5141C37.7141 120.316 37.8821 120.272 38.0181 120.184C38.1621 120.096 38.2741 119.972 38.3541 119.812C38.4341 119.644 38.4941 119.46 38.5341 119.26L38.6901 118.36H39.3501L39.2661 121H32.4621Z" fill="black"/>
<rect x="16" y="80" width="220" height="5" fill="black"/>
<rect x="16" y="103" width="198" height="5" fill="black"/>
<rect x="16" y="124" width="177" height="5" fill="black"/>
<rect x="14" y="55" width="241" height="5" fill="black"/>
</svg>
