<svg width="304" height="189" viewBox="0 0 304 189" fill="none" xmlns="http://www.w3.org/2000/svg">
<rect width="304" height="189" rx="20" fill="white"/>
<mask id="mask0_124_35" style="mask-type:alpha" maskUnits="userSpaceOnUse" x="0" y="0" width="304" height="189">
<rect width="304" height="189" rx="20" fill="white"/>
</mask>
<g mask="url(#mask0_124_35)">
<rect y="-1" width="304" height="37" fill="#160101"/>
</g>
<rect x="199" y="62" width="75" height="75" rx="37.5" fill="#D9D9D9" fill-opacity="0.01" stroke="black" stroke-width="4"/>
<path d="M220.439 109V107.575H220.664C220.947 107.575 221.205 107.525 221.439 107.425C221.689 107.325 221.914 107.15 222.114 106.9C222.33 106.65 222.53 106.283 222.714 105.8L228.064 91.15H232.089L237.264 105.825C237.414 106.258 237.589 106.6 237.789 106.85C237.989 107.1 238.205 107.283 238.439 107.4C238.689 107.517 238.955 107.575 239.239 107.575H239.589V109H230.789V107.575H231.789C232.039 107.575 232.272 107.517 232.489 107.4C232.722 107.267 232.839 107.033 232.839 106.7C232.839 106.55 232.822 106.4 232.789 106.25C232.772 106.1 232.739 105.967 232.689 105.85C232.655 105.717 232.622 105.617 232.589 105.55L231.764 103.175H225.914L225.264 105.125C225.23 105.258 225.18 105.417 225.114 105.6C225.064 105.783 225.022 105.975 224.989 106.175C224.955 106.358 224.939 106.525 224.939 106.675C224.939 106.958 225.022 107.183 225.189 107.35C225.372 107.5 225.622 107.575 225.939 107.575H227.089V109H220.439ZM226.439 101.525H231.239L229.864 97.05C229.764 96.7167 229.655 96.3667 229.539 96C229.439 95.6333 229.339 95.2583 229.239 94.875C229.139 94.475 229.047 94.0917 228.964 93.725C228.897 93.9917 228.822 94.2667 228.739 94.55C228.655 94.8167 228.572 95.0917 228.489 95.375C228.405 95.6583 228.314 95.9417 228.214 96.225C228.13 96.4917 228.047 96.75 227.964 97L226.439 101.525ZM245.7 105.525V101H241.15V99.125H245.7V94.6H247.6V99.125H252.15V101H247.6V105.525H245.7Z" fill="black"/>
<path d="M19.562 89.17C18.3153 89.17 17.2727 88.9093 16.434 88.388C15.6067 87.8667 14.9833 87.1413 14.564 86.212C14.156 85.2713 13.952 84.172 13.952 82.914C13.952 81.69 14.1673 80.6133 14.598 79.684C15.0287 78.7433 15.669 78.0123 16.519 77.491C17.369 76.9583 18.4173 76.692 19.664 76.692C20.4913 76.692 21.177 76.777 21.721 76.947C22.2763 77.117 22.69 77.3493 22.962 77.644C23.234 77.9387 23.37 78.2673 23.37 78.63C23.37 79.038 23.2 79.3723 22.86 79.633C22.5313 79.8823 22.0723 80.007 21.483 80.007C21.483 79.6443 21.4207 79.2873 21.296 78.936C21.1827 78.5847 20.9843 78.2957 20.701 78.069C20.429 77.831 20.055 77.712 19.579 77.712C18.8083 77.712 18.1907 77.916 17.726 78.324C17.2727 78.732 16.944 79.3213 16.74 80.092C16.536 80.8627 16.434 81.8033 16.434 82.914C16.434 83.968 16.5473 84.869 16.774 85.617C17.012 86.365 17.386 86.9317 17.896 87.317C18.406 87.7023 19.0747 87.895 19.902 87.895C20.4573 87.895 20.9333 87.8213 21.33 87.674C21.7267 87.5153 22.061 87.317 22.333 87.079C22.605 86.841 22.8373 86.5973 23.03 86.348C23.1207 86.416 23.1943 86.5123 23.251 86.637C23.3077 86.7617 23.336 86.9033 23.336 87.062C23.336 87.2887 23.268 87.5267 23.132 87.776C22.996 88.014 22.7807 88.2407 22.486 88.456C22.1913 88.6713 21.8003 88.847 21.313 88.983C20.837 89.1077 20.2533 89.17 19.562 89.17ZM29.0894 89.17C27.7861 89.17 26.7548 88.779 25.9954 87.997C25.2474 87.215 24.8734 86.0193 24.8734 84.41C24.8734 82.8233 25.2304 81.639 25.9444 80.857C26.6698 80.075 27.7351 79.684 29.1404 79.684C30.4551 79.684 31.4864 80.075 32.2344 80.857C32.9824 81.639 33.3564 82.8233 33.3564 84.41C33.3564 86.0193 32.9938 87.215 32.2684 87.997C31.5544 88.779 30.4948 89.17 29.0894 89.17ZM29.1234 88.167C29.6108 88.167 29.9961 88.031 30.2794 87.759C30.5741 87.4757 30.7838 87.0507 30.9084 86.484C31.0331 85.9173 31.0954 85.226 31.0954 84.41C31.0954 83.5827 31.0274 82.897 30.8914 82.353C30.7668 81.809 30.5571 81.401 30.2624 81.129C29.9791 80.8457 29.5938 80.704 29.1064 80.704C28.6304 80.704 28.2451 80.8457 27.9504 81.129C27.6558 81.401 27.4461 81.809 27.3214 82.353C27.1968 82.897 27.1344 83.5827 27.1344 84.41C27.1344 85.2373 27.1968 85.9287 27.3214 86.484C27.4574 87.0393 27.6671 87.4587 27.9504 87.742C28.2451 88.0253 28.6361 88.167 29.1234 88.167ZM34.5912 89V88.167H34.6932C34.9539 88.167 35.1805 88.1387 35.3732 88.082C35.5772 88.0253 35.7359 87.912 35.8492 87.742C35.9625 87.572 36.0192 87.317 36.0192 86.977V81.809C36.0192 81.4803 35.9625 81.2367 35.8492 81.078C35.7472 80.9193 35.5999 80.8173 35.4072 80.772C35.2259 80.7153 35.0105 80.687 34.7612 80.687H34.7102V79.888H37.9402L38.1612 81.163H38.2462C38.4729 80.7323 38.7165 80.415 38.9772 80.211C39.2379 79.9957 39.5212 79.854 39.8272 79.786C40.1445 79.718 40.4789 79.684 40.8302 79.684C41.2269 79.684 41.5895 79.735 41.9182 79.837C42.2469 79.939 42.5359 80.0977 42.7852 80.313C43.0345 80.517 43.2272 80.8003 43.3632 81.163H43.4992C43.7259 80.7323 43.9809 80.415 44.2642 80.211C44.5475 79.9957 44.8479 79.854 45.1652 79.786C45.4939 79.718 45.8395 79.684 46.2022 79.684C47.0749 79.684 47.7549 79.9447 48.2422 80.466C48.7409 80.9873 48.9902 81.826 48.9902 82.982V86.96C48.9902 87.3113 49.0355 87.572 49.1262 87.742C49.2282 87.912 49.3699 88.0253 49.5512 88.082C49.7325 88.1387 49.9479 88.167 50.1972 88.167H50.2482V89H46.7802V83.305C46.7802 82.5683 46.6669 82.0017 46.4402 81.605C46.2135 81.197 45.8225 80.993 45.2672 80.993C44.8705 80.993 44.5475 81.1063 44.2982 81.333C44.0602 81.5597 43.8845 81.86 43.7712 82.234C43.6692 82.608 43.6182 83.016 43.6182 83.458V86.96C43.6182 87.3 43.6635 87.5607 43.7542 87.742C43.8562 87.912 43.9979 88.0253 44.1792 88.082C44.3605 88.1387 44.5759 88.167 44.8252 88.167H44.8762V89H41.4082V83.305C41.4082 82.5683 41.2949 82.0017 41.0682 81.605C40.8415 81.197 40.4505 80.993 39.8952 80.993C39.4759 80.993 39.1415 81.1177 38.8922 81.367C38.6542 81.6163 38.4842 81.945 38.3822 82.353C38.2802 82.761 38.2292 83.203 38.2292 83.679V87.045C38.2292 87.3737 38.2859 87.6173 38.3992 87.776C38.5125 87.9347 38.6655 88.0423 38.8582 88.099C39.0509 88.1443 39.2719 88.167 39.5212 88.167H39.5722V89H34.5912ZM51.0765 89V88.167H51.1785C51.4392 88.167 51.6659 88.1387 51.8585 88.082C52.0625 88.0253 52.2212 87.912 52.3345 87.742C52.4479 87.572 52.5045 87.317 52.5045 86.977V81.809C52.5045 81.4803 52.4479 81.2367 52.3345 81.078C52.2325 80.9193 52.0852 80.8173 51.8925 80.772C51.7112 80.7153 51.4959 80.687 51.2465 80.687H51.1955V79.888H54.4255L54.6465 81.163H54.7315C54.9582 80.7323 55.2019 80.415 55.4625 80.211C55.7232 79.9957 56.0065 79.854 56.3125 79.786C56.6299 79.718 56.9642 79.684 57.3155 79.684C57.7122 79.684 58.0749 79.735 58.4035 79.837C58.7322 79.939 59.0212 80.0977 59.2705 80.313C59.5199 80.517 59.7125 80.8003 59.8485 81.163H59.9845C60.2112 80.7323 60.4662 80.415 60.7495 80.211C61.0329 79.9957 61.3332 79.854 61.6505 79.786C61.9792 79.718 62.3249 79.684 62.6875 79.684C63.5602 79.684 64.2402 79.9447 64.7275 80.466C65.2262 80.9873 65.4755 81.826 65.4755 82.982V86.96C65.4755 87.3113 65.5209 87.572 65.6115 87.742C65.7135 87.912 65.8552 88.0253 66.0365 88.082C66.2179 88.1387 66.4332 88.167 66.6825 88.167H66.7335V89H63.2655V83.305C63.2655 82.5683 63.1522 82.0017 62.9255 81.605C62.6989 81.197 62.3079 80.993 61.7525 80.993C61.3559 80.993 61.0329 81.1063 60.7835 81.333C60.5455 81.5597 60.3699 81.86 60.2565 82.234C60.1545 82.608 60.1035 83.016 60.1035 83.458V86.96C60.1035 87.3 60.1489 87.5607 60.2395 87.742C60.3415 87.912 60.4832 88.0253 60.6645 88.082C60.8459 88.1387 61.0612 88.167 61.3105 88.167H61.3615V89H57.8935V83.305C57.8935 82.5683 57.7802 82.0017 57.5535 81.605C57.3269 81.197 56.9359 80.993 56.3805 80.993C55.9612 80.993 55.6269 81.1177 55.3775 81.367C55.1395 81.6163 54.9695 81.945 54.8675 82.353C54.7655 82.761 54.7145 83.203 54.7145 83.679V87.045C54.7145 87.3737 54.7712 87.6173 54.8845 87.776C54.9979 87.9347 55.1509 88.0423 55.3435 88.099C55.5362 88.1443 55.7572 88.167 56.0065 88.167H56.0575V89H51.0765ZM67.4939 89V88.167H67.7149C67.9076 88.167 68.1002 88.1443 68.2929 88.099C68.4969 88.0423 68.6612 87.9347 68.7859 87.776C68.9219 87.6173 68.9899 87.3793 68.9899 87.062V81.792C68.9899 81.4747 68.9219 81.2423 68.7859 81.095C68.6499 80.9363 68.4856 80.8343 68.2929 80.789C68.1002 80.7437 67.9076 80.721 67.7149 80.721H67.5619V79.888H71.1999V87.028C71.1999 87.3567 71.2622 87.606 71.3869 87.776C71.5116 87.9347 71.6759 88.0423 71.8799 88.099C72.0839 88.1443 72.2822 88.167 72.4749 88.167H72.6789V89H67.4939ZM70.0099 78.29C69.6586 78.29 69.3582 78.1993 69.1089 78.018C68.8709 77.8367 68.7519 77.542 68.7519 77.134C68.7519 76.7147 68.8709 76.42 69.1089 76.25C69.3582 76.0687 69.6642 75.978 70.0269 75.978C70.3669 75.978 70.6616 76.0687 70.9109 76.25C71.1602 76.42 71.2849 76.7147 71.2849 77.134C71.2849 77.542 71.1602 77.8367 70.9109 78.018C70.6616 78.1993 70.3612 78.29 70.0099 78.29ZM77.0622 89.17C76.2576 89.17 75.6399 88.9717 75.2092 88.575C74.7899 88.1783 74.5802 87.487 74.5802 86.501V80.976H73.2882V80.177C73.5942 80.177 73.8832 80.1147 74.1552 79.99C74.4272 79.8653 74.6539 79.7123 74.8352 79.531C75.0052 79.3383 75.1582 79.1003 75.2942 78.817C75.4302 78.5337 75.5379 78.188 75.6172 77.78H76.7902V79.888H78.9832V80.976H76.7902V86.416C76.7902 86.9487 76.8866 87.3453 77.0792 87.606C77.2832 87.8553 77.5779 87.98 77.9632 87.98C78.1899 87.98 78.3939 87.9687 78.5752 87.946C78.7679 87.912 78.9549 87.8723 79.1362 87.827V88.796C78.9662 88.8753 78.6942 88.9547 78.3202 89.034C77.9576 89.1247 77.5382 89.17 77.0622 89.17ZM80.1523 81.095C80.5036 80.9703 80.7926 80.8457 81.0193 80.721C81.2459 80.585 81.4159 80.4377 81.5293 80.279C81.6426 80.109 81.6993 79.9163 81.6993 79.701C81.6993 79.565 81.6539 79.4573 81.5633 79.378C81.4839 79.2987 81.3819 79.225 81.2573 79.157C81.1439 79.089 81.0249 79.0097 80.9003 78.919C80.7756 78.8283 80.6679 78.7093 80.5773 78.562C80.4979 78.4147 80.4583 78.2163 80.4583 77.967C80.4583 77.6043 80.5659 77.3323 80.7813 77.151C81.0079 76.9583 81.2913 76.862 81.6313 76.862C82.0619 76.862 82.4133 77.015 82.6853 77.321C82.9686 77.627 83.1103 78.0463 83.1103 78.579C83.1103 79.3043 82.8836 79.9673 82.4303 80.568C81.9883 81.1687 81.2289 81.6163 80.1523 81.911V81.095ZM86.999 89.17C86.2737 89.17 85.673 89.0907 85.197 88.932C84.7323 88.7733 84.3867 88.5523 84.16 88.269C83.9333 87.9743 83.82 87.6343 83.82 87.249C83.82 86.8977 83.8993 86.637 84.058 86.467C84.2167 86.2857 84.4037 86.1667 84.619 86.11C84.8343 86.042 85.027 86.008 85.197 86.008C85.197 86.45 85.265 86.841 85.401 87.181C85.5483 87.5097 85.758 87.7703 86.03 87.963C86.302 88.1443 86.6363 88.235 87.033 88.235C87.6337 88.235 88.0757 88.1103 88.359 87.861C88.6423 87.6117 88.784 87.3 88.784 86.926C88.784 86.6653 88.7217 86.4443 88.597 86.263C88.4837 86.0817 88.274 85.906 87.968 85.736C87.662 85.566 87.237 85.379 86.693 85.175C86.1037 84.9483 85.605 84.7103 85.197 84.461C84.789 84.2003 84.483 83.9 84.279 83.56C84.075 83.22 83.973 82.795 83.973 82.285C83.973 81.435 84.2903 80.7947 84.925 80.364C85.5597 79.922 86.3983 79.701 87.441 79.701C88.0983 79.701 88.631 79.7747 89.039 79.922C89.447 80.0693 89.7473 80.2677 89.94 80.517C90.1327 80.755 90.229 81.01 90.229 81.282C90.229 81.6333 90.1043 81.9053 89.855 82.098C89.617 82.2907 89.2317 82.387 88.699 82.387C88.699 81.8203 88.5743 81.384 88.325 81.078C88.0757 80.7607 87.7017 80.602 87.203 80.602C86.9197 80.602 86.6647 80.6473 86.438 80.738C86.2227 80.8287 86.0527 80.9647 85.928 81.146C85.8033 81.316 85.741 81.5257 85.741 81.775C85.741 82.0243 85.809 82.2453 85.945 82.438C86.081 82.6193 86.3133 82.795 86.642 82.965C86.9707 83.135 87.4183 83.322 87.985 83.526C88.529 83.73 88.988 83.9567 89.362 84.206C89.7473 84.444 90.042 84.733 90.246 85.073C90.45 85.413 90.552 85.821 90.552 86.297C90.552 87.215 90.2347 87.9233 89.6 88.422C88.9767 88.9207 88.1097 89.17 86.999 89.17ZM93.7928 82.319C93.4414 82.319 93.1411 82.2283 92.8918 82.047C92.6424 81.8543 92.5178 81.52 92.5178 81.044C92.5178 80.5567 92.6424 80.2223 92.8918 80.041C93.1411 79.8597 93.4414 79.769 93.7928 79.769C94.1328 79.769 94.4274 79.8597 94.6768 80.041C94.9374 80.2223 95.0678 80.5567 95.0678 81.044C95.0678 81.52 94.9374 81.8543 94.6768 82.047C94.4274 82.2283 94.1328 82.319 93.7928 82.319ZM93.7928 89.136C93.4414 89.136 93.1411 89.0397 92.8918 88.847C92.6424 88.6543 92.5178 88.32 92.5178 87.844C92.5178 87.3567 92.6424 87.0223 92.8918 86.841C93.1411 86.6597 93.4414 86.569 93.7928 86.569C94.1328 86.569 94.4274 86.6597 94.6768 86.841C94.9374 87.0223 95.0678 87.3567 95.0678 87.844C95.0678 88.3313 94.9374 88.6713 94.6768 88.864C94.4274 89.0453 94.1328 89.136 93.7928 89.136ZM102.372 89V88.167H103.664C103.879 88.167 104.066 88.1387 104.225 88.082C104.383 88.014 104.502 87.9007 104.582 87.742C104.672 87.572 104.718 87.334 104.718 87.028V78.341C104.434 78.6923 104.168 79.004 103.919 79.276C103.669 79.5367 103.431 79.7407 103.205 79.888C102.978 80.0353 102.751 80.109 102.525 80.109C102.264 80.109 102.043 80.007 101.862 79.803C101.68 79.599 101.59 79.327 101.59 78.987C101.816 78.9303 102.054 78.8567 102.304 78.766C102.564 78.664 102.842 78.528 103.137 78.358C103.443 78.1767 103.783 77.95 104.157 77.678L105.347 76.794H106.945V87.028C106.945 87.3 106.979 87.521 107.047 87.691C107.126 87.861 107.245 87.9857 107.404 88.065C107.562 88.133 107.766 88.167 108.016 88.167H109.172V89H102.372ZM114.979 89.17C113.981 89.17 113.182 88.9093 112.582 88.388C111.981 87.8667 111.545 87.1357 111.273 86.195C111.001 85.2543 110.865 84.155 110.865 82.897C110.865 81.639 111.001 80.5453 111.273 79.616C111.545 78.6867 111.981 77.967 112.582 77.457C113.182 76.947 113.987 76.692 114.996 76.692C115.948 76.692 116.718 76.947 117.308 77.457C117.908 77.967 118.35 78.6923 118.634 79.633C118.928 80.5623 119.076 81.656 119.076 82.914C119.076 84.172 118.928 85.2713 118.634 86.212C118.35 87.1413 117.908 87.8667 117.308 88.388C116.707 88.9093 115.931 89.17 114.979 89.17ZM114.979 88.133C115.33 88.133 115.619 88.0197 115.846 87.793C116.084 87.555 116.265 87.215 116.39 86.773C116.526 86.3197 116.622 85.77 116.679 85.124C116.735 84.478 116.764 83.7413 116.764 82.914C116.764 82.0867 116.735 81.3557 116.679 80.721C116.633 80.075 116.543 79.531 116.407 79.089C116.271 78.647 116.084 78.3127 115.846 78.086C115.619 77.848 115.336 77.729 114.996 77.729C114.644 77.729 114.35 77.848 114.112 78.086C113.874 78.3127 113.687 78.647 113.551 79.089C113.415 79.531 113.318 80.075 113.262 80.721C113.205 81.3557 113.177 82.0867 113.177 82.914C113.177 83.7413 113.205 84.478 113.262 85.124C113.318 85.77 113.415 86.3197 113.551 86.773C113.687 87.215 113.868 87.555 114.095 87.793C114.333 88.0197 114.627 88.133 114.979 88.133ZM124.475 89.17C123.478 89.17 122.679 88.9093 122.078 88.388C121.477 87.8667 121.041 87.1357 120.769 86.195C120.497 85.2543 120.361 84.155 120.361 82.897C120.361 81.639 120.497 80.5453 120.769 79.616C121.041 78.6867 121.477 77.967 122.078 77.457C122.679 76.947 123.483 76.692 124.492 76.692C125.444 76.692 126.215 76.947 126.804 77.457C127.405 77.967 127.847 78.6923 128.13 79.633C128.425 80.5623 128.572 81.656 128.572 82.914C128.572 84.172 128.425 85.2713 128.13 86.212C127.847 87.1413 127.405 87.8667 126.804 88.388C126.203 88.9093 125.427 89.17 124.475 89.17ZM124.475 88.133C124.826 88.133 125.115 88.0197 125.342 87.793C125.58 87.555 125.761 87.215 125.886 86.773C126.022 86.3197 126.118 85.77 126.175 85.124C126.232 84.478 126.26 83.7413 126.26 82.914C126.26 82.0867 126.232 81.3557 126.175 80.721C126.13 80.075 126.039 79.531 125.903 79.089C125.767 78.647 125.58 78.3127 125.342 78.086C125.115 77.848 124.832 77.729 124.492 77.729C124.141 77.729 123.846 77.848 123.608 78.086C123.37 78.3127 123.183 78.647 123.047 79.089C122.911 79.531 122.815 80.075 122.758 80.721C122.701 81.3557 122.673 82.0867 122.673 82.914C122.673 83.7413 122.701 84.478 122.758 85.124C122.815 85.77 122.911 86.3197 123.047 86.773C123.183 87.215 123.364 87.555 123.591 87.793C123.829 88.0197 124.124 88.133 124.475 88.133Z" fill="black"/>
<path d="M17.386 64.17C16.6947 64.17 16.111 64.1077 15.635 63.983C15.159 63.847 14.7737 63.6657 14.479 63.439C14.1843 63.2123 13.969 62.9573 13.833 62.674C13.697 62.3793 13.629 62.0847 13.629 61.79C13.629 61.4613 13.7027 61.195 13.85 60.991C13.9973 60.7757 14.1957 60.617 14.445 60.515C14.7057 60.413 14.9833 60.362 15.278 60.362C15.2893 60.94 15.3857 61.4443 15.567 61.875C15.7483 62.3057 16.009 62.64 16.349 62.878C16.7003 63.1047 17.1197 63.218 17.607 63.218C18.3097 63.218 18.8537 63.0423 19.239 62.691C19.6357 62.3283 19.834 61.8523 19.834 61.263C19.834 60.8663 19.7377 60.5263 19.545 60.243C19.3523 59.9597 19.052 59.699 18.644 59.461C18.236 59.223 17.709 58.9737 17.063 58.713C16.5077 58.4863 16.026 58.2427 15.618 57.982C15.21 57.7213 14.8813 57.4437 14.632 57.149C14.3827 56.8543 14.1957 56.5313 14.071 56.18C13.9577 55.8173 13.901 55.415 13.901 54.973C13.901 54.3043 14.0767 53.7263 14.428 53.239C14.7793 52.7403 15.2553 52.3607 15.856 52.1C16.4567 51.828 17.1423 51.692 17.913 51.692C18.6837 51.692 19.324 51.7827 19.834 51.964C20.344 52.134 20.7237 52.3663 20.973 52.661C21.2337 52.9557 21.364 53.2787 21.364 53.63C21.364 54.0153 21.211 54.3327 20.905 54.582C20.599 54.82 20.1457 54.939 19.545 54.939C19.545 54.6103 19.4827 54.2703 19.358 53.919C19.2447 53.5677 19.052 53.273 18.78 53.035C18.5193 52.7857 18.1623 52.661 17.709 52.661C17.3577 52.661 17.0403 52.729 16.757 52.865C16.485 52.9897 16.2697 53.1823 16.111 53.443C15.9523 53.6923 15.873 53.9983 15.873 54.361C15.873 54.735 15.9523 55.0637 16.111 55.347C16.2697 55.6303 16.5473 55.9023 16.944 56.163C17.3407 56.4237 17.9017 56.7013 18.627 56.996C19.3637 57.2907 19.9643 57.608 20.429 57.948C20.905 58.2767 21.2563 58.6563 21.483 59.087C21.721 59.5063 21.84 59.9993 21.84 60.566C21.84 61.2913 21.653 61.926 21.279 62.47C20.9163 63.0027 20.4007 63.422 19.732 63.728C19.0747 64.0227 18.2927 64.17 17.386 64.17ZM26.8093 64.17C26.0046 64.17 25.387 63.9717 24.9563 63.575C24.537 63.1783 24.3273 62.487 24.3273 61.501V55.976H23.0353V55.177C23.3413 55.177 23.6303 55.1147 23.9023 54.99C24.1743 54.8653 24.401 54.7123 24.5823 54.531C24.7523 54.3383 24.9053 54.1003 25.0413 53.817C25.1773 53.5337 25.285 53.188 25.3643 52.78H26.5373V54.888H28.7303V55.976H26.5373V61.416C26.5373 61.9487 26.6336 62.3453 26.8263 62.606C27.0303 62.8553 27.325 62.98 27.7103 62.98C27.937 62.98 28.141 62.9687 28.3223 62.946C28.515 62.912 28.702 62.8723 28.8833 62.827V63.796C28.7133 63.8753 28.4413 63.9547 28.0673 64.034C27.7046 64.1247 27.2853 64.17 26.8093 64.17ZM32.6873 64.17C32.1887 64.17 31.7353 64.0737 31.3273 63.881C30.9307 63.677 30.6133 63.371 30.3753 62.963C30.1487 62.555 30.0353 62.0393 30.0353 61.416C30.0353 60.5093 30.3527 59.835 30.9873 59.393C31.622 58.951 32.5797 58.7073 33.8603 58.662L35.2713 58.611V57.642C35.2713 57.2567 35.243 56.9167 35.1863 56.622C35.1297 56.316 35.0107 56.078 34.8293 55.908C34.6593 55.738 34.3873 55.653 34.0133 55.653C33.6733 55.653 33.407 55.7323 33.2143 55.891C33.0217 56.0497 32.8913 56.2707 32.8233 56.554C32.7553 56.826 32.7213 57.1377 32.7213 57.489C32.064 57.489 31.571 57.4097 31.2423 57.251C30.9137 57.081 30.7493 56.792 30.7493 56.384C30.7493 55.976 30.8967 55.6473 31.1913 55.398C31.4973 55.1487 31.9053 54.9673 32.4153 54.854C32.9253 54.7407 33.4807 54.684 34.0813 54.684C35.2147 54.684 36.0647 54.905 36.6313 55.347C37.198 55.7777 37.4813 56.5257 37.4813 57.591V61.96C37.4813 62.266 37.5097 62.5097 37.5663 62.691C37.6343 62.861 37.7477 62.9857 37.9063 63.065C38.065 63.133 38.269 63.167 38.5183 63.167H38.5693V64H35.7473L35.4073 62.725H35.2713C35.022 63.031 34.784 63.2917 34.5573 63.507C34.342 63.7223 34.087 63.8867 33.7923 64C33.509 64.1133 33.1407 64.17 32.6873 64.17ZM33.4183 62.997C33.8037 62.997 34.1323 62.9063 34.4043 62.725C34.6763 62.5437 34.886 62.283 35.0333 61.943C35.192 61.603 35.2713 61.2063 35.2713 60.753V59.444L34.3873 59.495C33.8547 59.5177 33.4353 59.6083 33.1293 59.767C32.8347 59.9257 32.6193 60.1467 32.4833 60.43C32.3587 60.7133 32.2963 61.0647 32.2963 61.484C32.2963 61.824 32.336 62.1073 32.4153 62.334C32.4947 62.5493 32.6193 62.7137 32.7893 62.827C32.9593 62.9403 33.169 62.997 33.4183 62.997ZM39.6057 64V63.167H39.6567C39.9173 63.167 40.144 63.1387 40.3367 63.082C40.5407 63.0253 40.6993 62.912 40.8127 62.742C40.9373 62.5607 40.9997 62.2943 40.9997 61.943V56.877C40.9997 56.537 40.943 56.2877 40.8297 56.129C40.7163 55.959 40.5633 55.8513 40.3707 55.806C40.178 55.7493 39.957 55.721 39.7077 55.721H39.6567V54.888H42.7847L43.1077 56.35H43.1927C43.34 56.01 43.5043 55.7153 43.6857 55.466C43.8783 55.2167 44.122 55.0297 44.4167 54.905C44.7113 54.769 45.0967 54.701 45.5727 54.701C46.2187 54.701 46.6947 54.8143 47.0007 55.041C47.318 55.2677 47.4767 55.5963 47.4767 56.027C47.4767 56.4803 47.3123 56.843 46.9837 57.115C46.655 57.3757 46.1733 57.506 45.5387 57.506C45.5387 57.1887 45.5103 56.9337 45.4537 56.741C45.4083 56.537 45.3233 56.384 45.1987 56.282C45.074 56.18 44.904 56.129 44.6887 56.129C44.3827 56.129 44.1333 56.2423 43.9407 56.469C43.748 56.6843 43.595 56.9563 43.4817 57.285C43.3797 57.6137 43.306 57.9537 43.2607 58.305C43.2267 58.6563 43.2097 58.951 43.2097 59.189V62.028C43.2097 62.3567 43.2663 62.606 43.3797 62.776C43.493 62.9347 43.646 63.0423 43.8387 63.099C44.0313 63.1443 44.241 63.167 44.4677 63.167H44.9947V64H39.6057ZM51.5215 64.17C50.7961 64.17 50.1955 64.0907 49.7195 63.932C49.2548 63.7733 48.9091 63.5523 48.6825 63.269C48.4558 62.9743 48.3425 62.6343 48.3425 62.249C48.3425 61.8977 48.4218 61.637 48.5805 61.467C48.7391 61.2857 48.9261 61.1667 49.1415 61.11C49.3568 61.042 49.5495 61.008 49.7195 61.008C49.7195 61.45 49.7875 61.841 49.9235 62.181C50.0708 62.5097 50.2805 62.7703 50.5525 62.963C50.8245 63.1443 51.1588 63.235 51.5555 63.235C52.1561 63.235 52.5981 63.1103 52.8815 62.861C53.1648 62.6117 53.3065 62.3 53.3065 61.926C53.3065 61.6653 53.2441 61.4443 53.1195 61.263C53.0061 61.0817 52.7965 60.906 52.4905 60.736C52.1845 60.566 51.7595 60.379 51.2155 60.175C50.6261 59.9483 50.1275 59.7103 49.7195 59.461C49.3115 59.2003 49.0055 58.9 48.8015 58.56C48.5975 58.22 48.4955 57.795 48.4955 57.285C48.4955 56.435 48.8128 55.7947 49.4475 55.364C50.0821 54.922 50.9208 54.701 51.9635 54.701C52.6208 54.701 53.1535 54.7747 53.5615 54.922C53.9695 55.0693 54.2698 55.2677 54.4625 55.517C54.6551 55.755 54.7515 56.01 54.7515 56.282C54.7515 56.6333 54.6268 56.9053 54.3775 57.098C54.1395 57.2907 53.7541 57.387 53.2215 57.387C53.2215 56.8203 53.0968 56.384 52.8475 56.078C52.5981 55.7607 52.2241 55.602 51.7255 55.602C51.4421 55.602 51.1871 55.6473 50.9605 55.738C50.7451 55.8287 50.5751 55.9647 50.4505 56.146C50.3258 56.316 50.2635 56.5257 50.2635 56.775C50.2635 57.0243 50.3315 57.2453 50.4675 57.438C50.6035 57.6193 50.8358 57.795 51.1645 57.965C51.4931 58.135 51.9408 58.322 52.5075 58.526C53.0515 58.73 53.5105 58.9567 53.8845 59.206C54.2698 59.444 54.5645 59.733 54.7685 60.073C54.9725 60.413 55.0745 60.821 55.0745 61.297C55.0745 62.215 54.7571 62.9233 54.1225 63.422C53.4991 63.9207 52.6321 64.17 51.5215 64.17ZM60.7422 64V63.167H61.2692C61.4619 63.167 61.6376 63.1443 61.7962 63.099C61.9549 63.0537 62.0852 62.9573 62.1872 62.81C62.2892 62.6513 62.3402 62.419 62.3402 62.113V53.834C62.3402 53.494 62.2892 53.2447 62.1872 53.086C62.0966 52.9273 61.9719 52.8253 61.8132 52.78C61.6546 52.7233 61.4732 52.695 61.2692 52.695H60.7422V51.862H69.8372L69.9222 54.939H68.8512L68.7662 54.157C68.7436 53.885 68.6812 53.6527 68.5792 53.46C68.4886 53.2673 68.3582 53.1143 68.1882 53.001C68.0182 52.8877 67.7972 52.831 67.5252 52.831H64.6692V57.183H68.7152V58.135H64.6692V63.031H68.0182C68.2902 63.031 68.5112 62.9743 68.6812 62.861C68.8626 62.7363 69.0042 62.5777 69.1062 62.385C69.2082 62.181 69.2762 61.9543 69.3102 61.705L69.4292 60.923H70.5002L70.3812 64H60.7422ZM74.5565 64.17C74.0578 64.17 73.6045 64.0737 73.1965 63.881C72.7998 63.677 72.4825 63.371 72.2445 62.963C72.0178 62.555 71.9045 62.0393 71.9045 61.416C71.9045 60.5093 72.2218 59.835 72.8565 59.393C73.4911 58.951 74.4488 58.7073 75.7295 58.662L77.1405 58.611V57.642C77.1405 57.2567 77.1121 56.9167 77.0555 56.622C76.9988 56.316 76.8798 56.078 76.6985 55.908C76.5285 55.738 76.2565 55.653 75.8825 55.653C75.5425 55.653 75.2761 55.7323 75.0835 55.891C74.8908 56.0497 74.7605 56.2707 74.6925 56.554C74.6245 56.826 74.5905 57.1377 74.5905 57.489C73.9331 57.489 73.4401 57.4097 73.1115 57.251C72.7828 57.081 72.6185 56.792 72.6185 56.384C72.6185 55.976 72.7658 55.6473 73.0605 55.398C73.3665 55.1487 73.7745 54.9673 74.2845 54.854C74.7945 54.7407 75.3498 54.684 75.9505 54.684C77.0838 54.684 77.9338 54.905 78.5005 55.347C79.0671 55.7777 79.3505 56.5257 79.3505 57.591V61.96C79.3505 62.266 79.3788 62.5097 79.4355 62.691C79.5035 62.861 79.6168 62.9857 79.7755 63.065C79.9341 63.133 80.1381 63.167 80.3875 63.167H80.4385V64H77.6165L77.2765 62.725H77.1405C76.8911 63.031 76.6531 63.2917 76.4265 63.507C76.2111 63.7223 75.9561 63.8867 75.6615 64C75.3781 64.1133 75.0098 64.17 74.5565 64.17ZM75.2875 62.997C75.6728 62.997 76.0015 62.9063 76.2735 62.725C76.5455 62.5437 76.7551 62.283 76.9025 61.943C77.0611 61.603 77.1405 61.2063 77.1405 60.753V59.444L76.2565 59.495C75.7238 59.5177 75.3045 59.6083 74.9985 59.767C74.7038 59.9257 74.4885 60.1467 74.3525 60.43C74.2278 60.7133 74.1655 61.0647 74.1655 61.484C74.1655 61.824 74.2051 62.1073 74.2845 62.334C74.3638 62.5493 74.4885 62.7137 74.6585 62.827C74.8285 62.9403 75.0381 62.997 75.2875 62.997ZM81.4748 64V63.167H81.5258C81.7865 63.167 82.0131 63.1387 82.2058 63.082C82.4098 63.0253 82.5685 62.912 82.6818 62.742C82.8065 62.5607 82.8688 62.2943 82.8688 61.943V56.877C82.8688 56.537 82.8121 56.2877 82.6988 56.129C82.5855 55.959 82.4325 55.8513 82.2398 55.806C82.0471 55.7493 81.8261 55.721 81.5768 55.721H81.5258V54.888H84.6538L84.9768 56.35H85.0618C85.2091 56.01 85.3735 55.7153 85.5548 55.466C85.7475 55.2167 85.9911 55.0297 86.2858 54.905C86.5805 54.769 86.9658 54.701 87.4418 54.701C88.0878 54.701 88.5638 54.8143 88.8698 55.041C89.1871 55.2677 89.3458 55.5963 89.3458 56.027C89.3458 56.4803 89.1815 56.843 88.8528 57.115C88.5241 57.3757 88.0425 57.506 87.4078 57.506C87.4078 57.1887 87.3795 56.9337 87.3228 56.741C87.2775 56.537 87.1925 56.384 87.0678 56.282C86.9431 56.18 86.7731 56.129 86.5578 56.129C86.2518 56.129 86.0025 56.2423 85.8098 56.469C85.6171 56.6843 85.4641 56.9563 85.3508 57.285C85.2488 57.6137 85.1751 57.9537 85.1298 58.305C85.0958 58.6563 85.0788 58.951 85.0788 59.189V62.028C85.0788 62.3567 85.1355 62.606 85.2488 62.776C85.3621 62.9347 85.5151 63.0423 85.7078 63.099C85.9005 63.1443 86.1101 63.167 86.3368 63.167H86.8638V64H81.4748ZM89.9906 64V63.167H90.0586C90.3193 63.167 90.5516 63.1387 90.7556 63.082C90.9596 63.0253 91.1183 62.912 91.2316 62.742C91.3563 62.572 91.4186 62.317 91.4186 61.977V56.843C91.4186 56.5143 91.3619 56.2707 91.2486 56.112C91.1353 55.9533 90.9823 55.8513 90.7896 55.806C90.6083 55.7493 90.3929 55.721 90.1436 55.721H90.0756V54.888H93.3396L93.5606 56.163H93.6456C93.8723 55.7323 94.1159 55.415 94.3766 55.211C94.6486 54.9957 94.9376 54.854 95.2436 54.786C95.5609 54.718 95.9009 54.684 96.2636 54.684C97.1476 54.684 97.8389 54.9447 98.3376 55.466C98.8363 55.9873 99.0856 56.826 99.0856 57.982V61.96C99.0856 62.3113 99.1309 62.572 99.2216 62.742C99.3236 62.912 99.4596 63.0253 99.6296 63.082C99.8109 63.1387 100.026 63.167 100.276 63.167H100.344V64H96.8756V58.305C96.8756 57.5683 96.7566 57.0017 96.5186 56.605C96.2919 56.197 95.8953 55.993 95.3286 55.993C94.8979 55.993 94.5579 56.1177 94.3086 56.367C94.0706 56.6163 93.8949 56.945 93.7816 57.353C93.6796 57.761 93.6286 58.203 93.6286 58.679V62.045C93.6286 62.3737 93.6796 62.6173 93.7816 62.776C93.8949 62.9347 94.0479 63.0423 94.2406 63.099C94.4333 63.1443 94.6543 63.167 94.9036 63.167H94.9716V64H89.9906ZM105.889 64.17C104.529 64.17 103.48 63.762 102.744 62.946C102.018 62.1187 101.656 60.9683 101.656 59.495C101.656 57.9083 102.007 56.7127 102.71 55.908C103.424 55.092 104.421 54.684 105.702 54.684C106.892 54.684 107.821 55.0297 108.49 55.721C109.17 56.401 109.51 57.4153 109.51 58.764V59.597H103.9C103.922 60.3903 104.024 61.0363 104.206 61.535C104.398 62.0223 104.665 62.385 105.005 62.623C105.356 62.861 105.781 62.98 106.28 62.98C106.676 62.98 107.028 62.9233 107.334 62.81C107.651 62.6853 107.923 62.5267 108.15 62.334C108.376 62.13 108.558 61.909 108.694 61.671C108.818 61.7277 108.915 61.824 108.983 61.96C109.062 62.0847 109.102 62.232 109.102 62.402C109.102 62.6853 108.983 62.963 108.745 63.235C108.518 63.507 108.167 63.7337 107.691 63.915C107.226 64.085 106.625 64.17 105.889 64.17ZM107.249 58.577C107.249 57.999 107.198 57.4947 107.096 57.064C106.994 56.6333 106.829 56.3047 106.603 56.078C106.387 55.84 106.093 55.721 105.719 55.721C105.356 55.721 105.044 55.8287 104.784 56.044C104.534 56.2593 104.336 56.5823 104.189 57.013C104.053 57.4323 103.968 57.9537 103.934 58.577H107.249ZM114.57 64.17C113.833 64.17 113.204 64.0057 112.683 63.677C112.173 63.3483 111.782 62.8383 111.51 62.147C111.238 61.4443 111.102 60.549 111.102 59.461C111.102 58.3617 111.232 57.4607 111.493 56.758C111.765 56.0553 112.156 55.5397 112.666 55.211C113.187 54.871 113.816 54.701 114.553 54.701C115.199 54.701 115.726 54.8313 116.134 55.092C116.542 55.3527 116.87 55.6927 117.12 56.112H117.222C117.199 55.908 117.176 55.687 117.154 55.449C117.142 55.211 117.131 54.973 117.12 54.735C117.108 54.497 117.103 54.2873 117.103 54.106V53.001C117.103 52.6723 117.04 52.4343 116.916 52.287C116.791 52.1283 116.621 52.0263 116.406 51.981C116.202 51.9357 115.975 51.913 115.726 51.913H115.59V51.08H119.313V61.994C119.313 62.334 119.375 62.589 119.5 62.759C119.636 62.929 119.806 63.0423 120.01 63.099C120.225 63.1443 120.463 63.167 120.724 63.167H120.809V64H117.681L117.307 62.589H117.188C116.938 63.0763 116.61 63.4617 116.202 63.745C115.794 64.0283 115.25 64.17 114.57 64.17ZM115.148 62.963C115.896 62.963 116.406 62.674 116.678 62.096C116.961 61.518 117.103 60.634 117.103 59.444C117.103 58.6733 117.04 58.0273 116.916 57.506C116.802 56.9733 116.604 56.571 116.321 56.299C116.037 56.027 115.641 55.891 115.131 55.891C114.711 55.891 114.371 56.0327 114.111 56.316C113.85 56.588 113.657 56.9903 113.533 57.523C113.419 58.0443 113.363 58.6903 113.363 59.461C113.363 60.243 113.419 60.8947 113.533 61.416C113.657 61.926 113.85 62.3113 114.111 62.572C114.371 62.8327 114.717 62.963 115.148 62.963ZM123.609 57.319C123.258 57.319 122.958 57.2283 122.708 57.047C122.459 56.8543 122.334 56.52 122.334 56.044C122.334 55.5567 122.459 55.2223 122.708 55.041C122.958 54.8597 123.258 54.769 123.609 54.769C123.949 54.769 124.244 54.8597 124.493 55.041C124.754 55.2223 124.884 55.5567 124.884 56.044C124.884 56.52 124.754 56.8543 124.493 57.047C124.244 57.2283 123.949 57.319 123.609 57.319ZM123.609 64.136C123.258 64.136 122.958 64.0397 122.708 63.847C122.459 63.6543 122.334 63.32 122.334 62.844C122.334 62.3567 122.459 62.0223 122.708 61.841C122.958 61.6597 123.258 61.569 123.609 61.569C123.949 61.569 124.244 61.6597 124.493 61.841C124.754 62.0223 124.884 62.3567 124.884 62.844C124.884 63.3313 124.754 63.6713 124.493 63.864C124.244 64.0453 123.949 64.136 123.609 64.136ZM132.188 64V63.167H133.48C133.695 63.167 133.882 63.1387 134.041 63.082C134.2 63.014 134.319 62.9007 134.398 62.742C134.489 62.572 134.534 62.334 134.534 62.028V53.341C134.251 53.6923 133.984 54.004 133.735 54.276C133.486 54.5367 133.248 54.7407 133.021 54.888C132.794 55.0353 132.568 55.109 132.341 55.109C132.08 55.109 131.859 55.007 131.678 54.803C131.497 54.599 131.406 54.327 131.406 53.987C131.633 53.9303 131.871 53.8567 132.12 53.766C132.381 53.664 132.658 53.528 132.953 53.358C133.259 53.1767 133.599 52.95 133.973 52.678L135.163 51.794H136.761V62.028C136.761 62.3 136.795 62.521 136.863 62.691C136.942 62.861 137.061 62.9857 137.22 63.065C137.379 63.133 137.583 63.167 137.832 63.167H138.988V64H132.188ZM144.795 64.17C143.798 64.17 142.999 63.9093 142.398 63.388C141.797 62.8667 141.361 62.1357 141.089 61.195C140.817 60.2543 140.681 59.155 140.681 57.897C140.681 56.639 140.817 55.5453 141.089 54.616C141.361 53.6867 141.797 52.967 142.398 52.457C142.999 51.947 143.803 51.692 144.812 51.692C145.764 51.692 146.535 51.947 147.124 52.457C147.725 52.967 148.167 53.6923 148.45 54.633C148.745 55.5623 148.892 56.656 148.892 57.914C148.892 59.172 148.745 60.2713 148.45 61.212C148.167 62.1413 147.725 62.8667 147.124 63.388C146.523 63.9093 145.747 64.17 144.795 64.17ZM144.795 63.133C145.146 63.133 145.435 63.0197 145.662 62.793C145.9 62.555 146.081 62.215 146.206 61.773C146.342 61.3197 146.438 60.77 146.495 60.124C146.552 59.478 146.58 58.7413 146.58 57.914C146.58 57.0867 146.552 56.3557 146.495 55.721C146.45 55.075 146.359 54.531 146.223 54.089C146.087 53.647 145.9 53.3127 145.662 53.086C145.435 52.848 145.152 52.729 144.812 52.729C144.461 52.729 144.166 52.848 143.928 53.086C143.69 53.3127 143.503 53.647 143.367 54.089C143.231 54.531 143.135 55.075 143.078 55.721C143.021 56.3557 142.993 57.0867 142.993 57.914C142.993 58.7413 143.021 59.478 143.078 60.124C143.135 60.77 143.231 61.3197 143.367 61.773C143.503 62.215 143.684 62.555 143.911 62.793C144.149 63.0197 144.444 63.133 144.795 63.133Z" fill="black"/>
<path d="M106.096 26.17C104.725 26.17 103.586 25.9093 102.679 25.388C101.772 24.8667 101.098 24.1413 100.656 23.212C100.214 22.2713 99.993 21.172 99.993 19.914C99.993 18.69 100.225 17.6133 100.69 16.684C101.155 15.7433 101.846 15.0123 102.764 14.491C103.693 13.9583 104.832 13.692 106.181 13.692C107.088 13.692 107.841 13.777 108.442 13.947C109.043 14.117 109.49 14.3493 109.785 14.644C110.091 14.9387 110.244 15.2673 110.244 15.63C110.244 16.0153 110.068 16.3383 109.717 16.599C109.377 16.8597 108.901 16.99 108.289 16.99C108.289 16.5707 108.21 16.191 108.051 15.851C107.904 15.4997 107.671 15.222 107.354 15.018C107.048 14.814 106.64 14.712 106.13 14.712C105.246 14.712 104.538 14.916 104.005 15.324C103.472 15.732 103.081 16.3213 102.832 17.092C102.594 17.8627 102.475 18.8033 102.475 19.914C102.475 21.0247 102.6 21.9653 102.849 22.736C103.11 23.4953 103.523 24.079 104.09 24.487C104.657 24.8837 105.41 25.082 106.351 25.082C106.612 25.082 106.861 25.0707 107.099 25.048C107.348 25.0253 107.581 24.9857 107.796 24.929V22.345C107.796 22.0277 107.739 21.784 107.626 21.614C107.524 21.444 107.377 21.325 107.184 21.257C107.003 21.189 106.782 21.155 106.521 21.155H106.351V20.322H111.349V21.155H111.179C110.952 21.155 110.76 21.1947 110.601 21.274C110.442 21.342 110.318 21.4667 110.227 21.648C110.148 21.818 110.108 22.073 110.108 22.413V25.303C109.485 25.5977 108.85 25.8187 108.204 25.966C107.558 26.102 106.855 26.17 106.096 26.17ZM112.081 26V25.167H112.302C112.494 25.167 112.687 25.1443 112.88 25.099C113.084 25.0423 113.248 24.9347 113.373 24.776C113.509 24.6173 113.577 24.3793 113.577 24.062V18.792C113.577 18.4747 113.509 18.2423 113.373 18.095C113.237 17.9363 113.072 17.8343 112.88 17.789C112.687 17.7437 112.494 17.721 112.302 17.721H112.149V16.888H115.787V24.028C115.787 24.3567 115.849 24.606 115.974 24.776C116.098 24.9347 116.263 25.0423 116.467 25.099C116.671 25.1443 116.869 25.167 117.062 25.167H117.266V26H112.081ZM114.597 15.29C114.245 15.29 113.945 15.1993 113.696 15.018C113.458 14.8367 113.339 14.542 113.339 14.134C113.339 13.7147 113.458 13.42 113.696 13.25C113.945 13.0687 114.251 12.978 114.614 12.978C114.954 12.978 115.248 13.0687 115.498 13.25C115.747 13.42 115.872 13.7147 115.872 14.134C115.872 14.542 115.747 14.8367 115.498 15.018C115.248 15.1993 114.948 15.29 114.597 15.29ZM121.649 26.17C120.844 26.17 120.227 25.9717 119.796 25.575C119.377 25.1783 119.167 24.487 119.167 23.501V17.976H117.875V17.177C118.181 17.177 118.47 17.1147 118.742 16.99C119.014 16.8653 119.241 16.7123 119.422 16.531C119.592 16.3383 119.745 16.1003 119.881 15.817C120.017 15.5337 120.125 15.188 120.204 14.78H121.377V16.888H123.57V17.976H121.377V23.416C121.377 23.9487 121.473 24.3453 121.666 24.606C121.87 24.8553 122.165 24.98 122.55 24.98C122.777 24.98 122.981 24.9687 123.162 24.946C123.355 24.912 123.542 24.8723 123.723 24.827V25.796C123.553 25.8753 123.281 25.9547 122.907 26.034C122.544 26.1247 122.125 26.17 121.649 26.17ZM124.62 26V25.167H125.147C125.34 25.167 125.516 25.1443 125.674 25.099C125.844 25.0423 125.975 24.9347 126.065 24.776C126.167 24.606 126.218 24.3567 126.218 24.028V15.766C126.218 15.4487 126.167 15.2163 126.065 15.069C125.963 14.9103 125.833 14.8083 125.674 14.763C125.516 14.7177 125.34 14.695 125.147 14.695H124.62V13.862H130.128V14.695H129.601C129.409 14.695 129.227 14.7233 129.057 14.78C128.899 14.8253 128.768 14.9273 128.666 15.086C128.576 15.2447 128.53 15.494 128.53 15.834V19.183H133.375V15.834C133.375 15.494 133.324 15.2447 133.222 15.086C133.132 14.9273 133.007 14.8253 132.848 14.78C132.69 14.7233 132.508 14.695 132.304 14.695H131.777V13.862H137.285V14.695H136.758C136.577 14.695 136.401 14.7233 136.231 14.78C136.061 14.8253 135.931 14.9273 135.84 15.086C135.75 15.2447 135.704 15.494 135.704 15.834V24.113C135.704 24.419 135.75 24.6513 135.84 24.81C135.942 24.9573 136.073 25.0537 136.231 25.099C136.401 25.1443 136.577 25.167 136.758 25.167H137.285V26H131.777V25.167H132.304C132.508 25.167 132.69 25.1443 132.848 25.099C133.007 25.0423 133.132 24.9347 133.222 24.776C133.324 24.606 133.375 24.3567 133.375 24.028V20.152H128.53V24.028C128.53 24.3567 128.576 24.606 128.666 24.776C128.768 24.9347 128.899 25.0423 129.057 25.099C129.227 25.1443 129.409 25.167 129.601 25.167H130.128V26H124.62ZM142.31 26.17C141.415 26.17 140.729 25.9037 140.253 25.371C139.777 24.827 139.539 23.977 139.539 22.821V18.911C139.539 18.571 139.488 18.316 139.386 18.146C139.284 17.976 139.137 17.8627 138.944 17.806C138.763 17.7493 138.542 17.721 138.281 17.721H138.247V16.888H141.749V22.481C141.749 22.9797 141.789 23.4047 141.868 23.756C141.959 24.1073 142.112 24.3793 142.327 24.572C142.543 24.7647 142.837 24.861 143.211 24.861C143.631 24.861 143.971 24.7533 144.231 24.538C144.492 24.3113 144.685 23.9997 144.809 23.603C144.934 23.2063 144.996 22.7417 144.996 22.209V18.86C144.996 18.52 144.934 18.2707 144.809 18.112C144.696 17.9533 144.543 17.8513 144.35 17.806C144.158 17.7493 143.942 17.721 143.704 17.721H143.653V16.888H147.206V24.079C147.206 24.4077 147.257 24.6513 147.359 24.81C147.473 24.9573 147.626 25.0537 147.818 25.099C148.011 25.1443 148.221 25.167 148.447 25.167H148.549V26H145.421L145.098 24.725H145.013C144.843 25.031 144.656 25.2803 144.452 25.473C144.248 25.6543 144.033 25.796 143.806 25.898C143.58 26 143.342 26.068 143.092 26.102C142.843 26.1473 142.582 26.17 142.31 26.17ZM155.439 26.17C154.782 26.17 154.243 26.034 153.824 25.762C153.416 25.4787 153.087 25.116 152.838 24.674H152.702L152.294 26H149.251V25.167H149.387C149.614 25.167 149.829 25.1387 150.033 25.082C150.237 25.0253 150.401 24.912 150.526 24.742C150.651 24.572 150.713 24.317 150.713 23.977V15.052C150.713 14.7233 150.651 14.4797 150.526 14.321C150.401 14.151 150.237 14.0433 150.033 13.998C149.829 13.9413 149.602 13.913 149.353 13.913H149.251V13.08H152.923V16.072C152.923 16.242 152.917 16.4687 152.906 16.752C152.895 17.024 152.878 17.296 152.855 17.568C152.844 17.8287 152.832 18.0327 152.821 18.18H152.906C153.167 17.7267 153.495 17.3697 153.892 17.109C154.3 16.837 154.833 16.701 155.49 16.701C156.601 16.701 157.451 17.0807 158.04 17.84C158.629 18.588 158.924 19.778 158.924 21.41C158.924 22.5093 158.788 23.4103 158.516 24.113C158.255 24.8157 157.864 25.337 157.343 25.677C156.822 26.0057 156.187 26.17 155.439 26.17ZM154.895 24.963C155.314 24.963 155.654 24.827 155.915 24.555C156.176 24.2717 156.363 23.8693 156.476 23.348C156.601 22.8153 156.663 22.1637 156.663 21.393C156.663 20.611 156.601 19.965 156.476 19.455C156.363 18.9337 156.176 18.5427 155.915 18.282C155.654 18.0213 155.309 17.891 154.878 17.891C154.13 17.891 153.614 18.18 153.331 18.758C153.059 19.336 152.923 20.22 152.923 21.41C152.923 22.1807 152.98 22.8267 153.093 23.348C153.218 23.8693 153.422 24.2717 153.705 24.555C154 24.827 154.396 24.963 154.895 24.963ZM168.572 26.17C167.88 26.17 167.297 26.1077 166.821 25.983C166.345 25.847 165.959 25.6657 165.665 25.439C165.37 25.2123 165.155 24.9573 165.019 24.674C164.883 24.3793 164.815 24.0847 164.815 23.79C164.815 23.4613 164.888 23.195 165.036 22.991C165.183 22.7757 165.381 22.617 165.631 22.515C165.891 22.413 166.169 22.362 166.464 22.362C166.475 22.94 166.571 23.4443 166.753 23.875C166.934 24.3057 167.195 24.64 167.535 24.878C167.886 25.1047 168.305 25.218 168.793 25.218C169.495 25.218 170.039 25.0423 170.425 24.691C170.821 24.3283 171.02 23.8523 171.02 23.263C171.02 22.8663 170.923 22.5263 170.731 22.243C170.538 21.9597 170.238 21.699 169.83 21.461C169.422 21.223 168.895 20.9737 168.249 20.713C167.693 20.4863 167.212 20.2427 166.804 19.982C166.396 19.7213 166.067 19.4437 165.818 19.149C165.568 18.8543 165.381 18.5313 165.257 18.18C165.143 17.8173 165.087 17.415 165.087 16.973C165.087 16.3043 165.262 15.7263 165.614 15.239C165.965 14.7403 166.441 14.3607 167.042 14.1C167.642 13.828 168.328 13.692 169.099 13.692C169.869 13.692 170.51 13.7827 171.02 13.964C171.53 14.134 171.909 14.3663 172.159 14.661C172.419 14.9557 172.55 15.2787 172.55 15.63C172.55 16.0153 172.397 16.3327 172.091 16.582C171.785 16.82 171.331 16.939 170.731 16.939C170.731 16.6103 170.668 16.2703 170.544 15.919C170.43 15.5677 170.238 15.273 169.966 15.035C169.705 14.7857 169.348 14.661 168.895 14.661C168.543 14.661 168.226 14.729 167.943 14.865C167.671 14.9897 167.455 15.1823 167.297 15.443C167.138 15.6923 167.059 15.9983 167.059 16.361C167.059 16.735 167.138 17.0637 167.297 17.347C167.455 17.6303 167.733 17.9023 168.13 18.163C168.526 18.4237 169.087 18.7013 169.813 18.996C170.549 19.2907 171.15 19.608 171.615 19.948C172.091 20.2767 172.442 20.6563 172.669 21.087C172.907 21.5063 173.026 21.9993 173.026 22.566C173.026 23.2913 172.839 23.926 172.465 24.47C172.102 25.0027 171.586 25.422 170.918 25.728C170.26 26.0227 169.478 26.17 168.572 26.17ZM177.995 26.17C177.19 26.17 176.573 25.9717 176.142 25.575C175.723 25.1783 175.513 24.487 175.513 23.501V17.976H174.221V17.177C174.527 17.177 174.816 17.1147 175.088 16.99C175.36 16.8653 175.587 16.7123 175.768 16.531C175.938 16.3383 176.091 16.1003 176.227 15.817C176.363 15.5337 176.471 15.188 176.55 14.78H177.723V16.888H179.916V17.976H177.723V23.416C177.723 23.9487 177.819 24.3453 178.012 24.606C178.216 24.8553 178.511 24.98 178.896 24.98C179.123 24.98 179.327 24.9687 179.508 24.946C179.701 24.912 179.888 24.8723 180.069 24.827V25.796C179.899 25.8753 179.627 25.9547 179.253 26.034C178.89 26.1247 178.471 26.17 177.995 26.17ZM183.873 26.17C183.374 26.17 182.921 26.0737 182.513 25.881C182.116 25.677 181.799 25.371 181.561 24.963C181.334 24.555 181.221 24.0393 181.221 23.416C181.221 22.5093 181.538 21.835 182.173 21.393C182.808 20.951 183.765 20.7073 185.046 20.662L186.457 20.611V19.642C186.457 19.2567 186.429 18.9167 186.372 18.622C186.315 18.316 186.196 18.078 186.015 17.908C185.845 17.738 185.573 17.653 185.199 17.653C184.859 17.653 184.593 17.7323 184.4 17.891C184.207 18.0497 184.077 18.2707 184.009 18.554C183.941 18.826 183.907 19.1377 183.907 19.489C183.25 19.489 182.757 19.4097 182.428 19.251C182.099 19.081 181.935 18.792 181.935 18.384C181.935 17.976 182.082 17.6473 182.377 17.398C182.683 17.1487 183.091 16.9673 183.601 16.854C184.111 16.7407 184.666 16.684 185.267 16.684C186.4 16.684 187.25 16.905 187.817 17.347C188.384 17.7777 188.667 18.5257 188.667 19.591V23.96C188.667 24.266 188.695 24.5097 188.752 24.691C188.82 24.861 188.933 24.9857 189.092 25.065C189.251 25.133 189.455 25.167 189.704 25.167H189.755V26H186.933L186.593 24.725H186.457C186.208 25.031 185.97 25.2917 185.743 25.507C185.528 25.7223 185.273 25.8867 184.978 26C184.695 26.1133 184.326 26.17 183.873 26.17ZM184.604 24.997C184.989 24.997 185.318 24.9063 185.59 24.725C185.862 24.5437 186.072 24.283 186.219 23.943C186.378 23.603 186.457 23.2063 186.457 22.753V21.444L185.573 21.495C185.04 21.5177 184.621 21.6083 184.315 21.767C184.02 21.9257 183.805 22.1467 183.669 22.43C183.544 22.7133 183.482 23.0647 183.482 23.484C183.482 23.824 183.522 24.1073 183.601 24.334C183.68 24.5493 183.805 24.7137 183.975 24.827C184.145 24.9403 184.355 24.997 184.604 24.997ZM194.48 26.17C193.676 26.17 193.058 25.9717 192.627 25.575C192.208 25.1783 191.998 24.487 191.998 23.501V17.976H190.706V17.177C191.012 17.177 191.301 17.1147 191.573 16.99C191.845 16.8653 192.072 16.7123 192.253 16.531C192.423 16.3383 192.576 16.1003 192.712 15.817C192.848 15.5337 192.956 15.188 193.035 14.78H194.208V16.888H196.401V17.976H194.208V23.416C194.208 23.9487 194.305 24.3453 194.497 24.606C194.701 24.8553 194.996 24.98 195.381 24.98C195.608 24.98 195.812 24.9687 195.993 24.946C196.186 24.912 196.373 24.8723 196.554 24.827V25.796C196.384 25.8753 196.112 25.9547 195.738 26.034C195.376 26.1247 194.956 26.17 194.48 26.17ZM200.698 26.17C199.973 26.17 199.372 26.0907 198.896 25.932C198.432 25.7733 198.086 25.5523 197.859 25.269C197.633 24.9743 197.519 24.6343 197.519 24.249C197.519 23.8977 197.599 23.637 197.757 23.467C197.916 23.2857 198.103 23.1667 198.318 23.11C198.534 23.042 198.726 23.008 198.896 23.008C198.896 23.45 198.964 23.841 199.1 24.181C199.248 24.5097 199.457 24.7703 199.729 24.963C200.001 25.1443 200.336 25.235 200.732 25.235C201.333 25.235 201.775 25.1103 202.058 24.861C202.342 24.6117 202.483 24.3 202.483 23.926C202.483 23.6653 202.421 23.4443 202.296 23.263C202.183 23.0817 201.973 22.906 201.667 22.736C201.361 22.566 200.936 22.379 200.392 22.175C199.803 21.9483 199.304 21.7103 198.896 21.461C198.488 21.2003 198.182 20.9 197.978 20.56C197.774 20.22 197.672 19.795 197.672 19.285C197.672 18.435 197.99 17.7947 198.624 17.364C199.259 16.922 200.098 16.701 201.14 16.701C201.798 16.701 202.33 16.7747 202.738 16.922C203.146 17.0693 203.447 17.2677 203.639 17.517C203.832 17.755 203.928 18.01 203.928 18.282C203.928 18.6333 203.804 18.9053 203.554 19.098C203.316 19.2907 202.931 19.387 202.398 19.387C202.398 18.8203 202.274 18.384 202.024 18.078C201.775 17.7607 201.401 17.602 200.902 17.602C200.619 17.602 200.364 17.6473 200.137 17.738C199.922 17.8287 199.752 17.9647 199.627 18.146C199.503 18.316 199.44 18.5257 199.44 18.775C199.44 19.0243 199.508 19.2453 199.644 19.438C199.78 19.6193 200.013 19.795 200.341 19.965C200.67 20.135 201.118 20.322 201.684 20.526C202.228 20.73 202.687 20.9567 203.061 21.206C203.447 21.444 203.741 21.733 203.945 22.073C204.149 22.413 204.251 22.821 204.251 23.297C204.251 24.215 203.934 24.9233 203.299 25.422C202.676 25.9207 201.809 26.17 200.698 26.17Z" fill="white"/>
<path d="M14.544 142V141.167H15.071C15.275 141.167 15.4563 141.144 15.615 141.099C15.7737 141.042 15.8983 140.935 15.989 140.776C16.091 140.606 16.142 140.357 16.142 140.028V131.834C16.142 131.494 16.091 131.245 15.989 131.086C15.8983 130.927 15.7737 130.825 15.615 130.78C15.4563 130.723 15.275 130.695 15.071 130.695H14.544V129.862H20.052V130.695H19.525C19.3323 130.695 19.151 130.723 18.981 130.78C18.8223 130.825 18.6977 130.927 18.607 131.086C18.5163 131.245 18.471 131.494 18.471 131.834V140.028C18.471 140.357 18.5163 140.606 18.607 140.776C18.6977 140.935 18.8223 141.042 18.981 141.099C19.151 141.144 19.3323 141.167 19.525 141.167H20.052V142H14.544ZM24.3818 142.17C23.6565 142.17 23.0558 142.091 22.5798 141.932C22.1152 141.773 21.7695 141.552 21.5428 141.269C21.3162 140.974 21.2028 140.634 21.2028 140.249C21.2028 139.898 21.2822 139.637 21.4408 139.467C21.5995 139.286 21.7865 139.167 22.0018 139.11C22.2172 139.042 22.4098 139.008 22.5798 139.008C22.5798 139.45 22.6478 139.841 22.7838 140.181C22.9312 140.51 23.1408 140.77 23.4128 140.963C23.6848 141.144 24.0192 141.235 24.4158 141.235C25.0165 141.235 25.4585 141.11 25.7418 140.861C26.0252 140.612 26.1668 140.3 26.1668 139.926C26.1668 139.665 26.1045 139.444 25.9798 139.263C25.8665 139.082 25.6568 138.906 25.3508 138.736C25.0448 138.566 24.6198 138.379 24.0758 138.175C23.4865 137.948 22.9878 137.71 22.5798 137.461C22.1718 137.2 21.8658 136.9 21.6618 136.56C21.4578 136.22 21.3558 135.795 21.3558 135.285C21.3558 134.435 21.6732 133.795 22.3078 133.364C22.9425 132.922 23.7812 132.701 24.8238 132.701C25.4812 132.701 26.0138 132.775 26.4218 132.922C26.8298 133.069 27.1302 133.268 27.3228 133.517C27.5155 133.755 27.6118 134.01 27.6118 134.282C27.6118 134.633 27.4872 134.905 27.2378 135.098C26.9998 135.291 26.6145 135.387 26.0818 135.387C26.0818 134.82 25.9572 134.384 25.7078 134.078C25.4585 133.761 25.0845 133.602 24.5858 133.602C24.3025 133.602 24.0475 133.647 23.8208 133.738C23.6055 133.829 23.4355 133.965 23.3108 134.146C23.1862 134.316 23.1238 134.526 23.1238 134.775C23.1238 135.024 23.1918 135.245 23.3278 135.438C23.4638 135.619 23.6962 135.795 24.0248 135.965C24.3535 136.135 24.8012 136.322 25.3678 136.526C25.9118 136.73 26.3708 136.957 26.7448 137.206C27.1302 137.444 27.4248 137.733 27.6288 138.073C27.8328 138.413 27.9348 138.821 27.9348 139.297C27.9348 140.215 27.6175 140.923 26.9828 141.422C26.3595 141.921 25.4925 142.17 24.3818 142.17ZM32.4336 142.17C31.7082 142.17 31.1076 142.091 30.6316 141.932C30.1669 141.773 29.8212 141.552 29.5946 141.269C29.3679 140.974 29.2546 140.634 29.2546 140.249C29.2546 139.898 29.3339 139.637 29.4926 139.467C29.6512 139.286 29.8382 139.167 30.0536 139.11C30.2689 139.042 30.4616 139.008 30.6316 139.008C30.6316 139.45 30.6996 139.841 30.8356 140.181C30.9829 140.51 31.1926 140.77 31.4646 140.963C31.7366 141.144 32.0709 141.235 32.4676 141.235C33.0682 141.235 33.5102 141.11 33.7936 140.861C34.0769 140.612 34.2186 140.3 34.2186 139.926C34.2186 139.665 34.1562 139.444 34.0316 139.263C33.9182 139.082 33.7086 138.906 33.4026 138.736C33.0966 138.566 32.6716 138.379 32.1276 138.175C31.5382 137.948 31.0396 137.71 30.6316 137.461C30.2236 137.2 29.9176 136.9 29.7136 136.56C29.5096 136.22 29.4076 135.795 29.4076 135.285C29.4076 134.435 29.7249 133.795 30.3596 133.364C30.9942 132.922 31.8329 132.701 32.8756 132.701C33.5329 132.701 34.0656 132.775 34.4736 132.922C34.8816 133.069 35.1819 133.268 35.3746 133.517C35.5672 133.755 35.6636 134.01 35.6636 134.282C35.6636 134.633 35.5389 134.905 35.2896 135.098C35.0516 135.291 34.6662 135.387 34.1336 135.387C34.1336 134.82 34.0089 134.384 33.7596 134.078C33.5102 133.761 33.1362 133.602 32.6376 133.602C32.3542 133.602 32.0992 133.647 31.8726 133.738C31.6572 133.829 31.4872 133.965 31.3626 134.146C31.2379 134.316 31.1756 134.526 31.1756 134.775C31.1756 135.024 31.2436 135.245 31.3796 135.438C31.5156 135.619 31.7479 135.795 32.0766 135.965C32.4052 136.135 32.8529 136.322 33.4196 136.526C33.9636 136.73 34.4226 136.957 34.7966 137.206C35.1819 137.444 35.4766 137.733 35.6806 138.073C35.8846 138.413 35.9866 138.821 35.9866 139.297C35.9866 140.215 35.6692 140.923 35.0346 141.422C34.4112 141.921 33.5442 142.17 32.4336 142.17ZM41.1823 142.17C40.287 142.17 39.6013 141.904 39.1253 141.371C38.6493 140.827 38.4113 139.977 38.4113 138.821V134.911C38.4113 134.571 38.3603 134.316 38.2583 134.146C38.1563 133.976 38.009 133.863 37.8163 133.806C37.635 133.749 37.414 133.721 37.1533 133.721H37.1193V132.888H40.6213V138.481C40.6213 138.98 40.661 139.405 40.7403 139.756C40.831 140.107 40.984 140.379 41.1993 140.572C41.4147 140.765 41.7093 140.861 42.0833 140.861C42.5027 140.861 42.8427 140.753 43.1033 140.538C43.364 140.311 43.5567 140 43.6813 139.603C43.806 139.206 43.8683 138.742 43.8683 138.209V134.86C43.8683 134.52 43.806 134.271 43.6813 134.112C43.568 133.953 43.415 133.851 43.2223 133.806C43.0297 133.749 42.8143 133.721 42.5763 133.721H42.5253V132.888H46.0783V140.079C46.0783 140.408 46.1293 140.651 46.2313 140.81C46.3447 140.957 46.4977 141.054 46.6903 141.099C46.883 141.144 47.0927 141.167 47.3193 141.167H47.4213V142H44.2933L43.9703 140.725H43.8853C43.7153 141.031 43.5283 141.28 43.3243 141.473C43.1203 141.654 42.905 141.796 42.6783 141.898C42.4517 142 42.2137 142.068 41.9643 142.102C41.715 142.147 41.4543 142.17 41.1823 142.17ZM52.917 142.17C51.557 142.17 50.5087 141.762 49.772 140.946C49.0467 140.119 48.684 138.968 48.684 137.495C48.684 135.908 49.0353 134.713 49.738 133.908C50.452 133.092 51.4493 132.684 52.73 132.684C53.92 132.684 54.8493 133.03 55.518 133.721C56.198 134.401 56.538 135.415 56.538 136.764V137.597H50.928C50.9507 138.39 51.0527 139.036 51.234 139.535C51.4267 140.022 51.693 140.385 52.033 140.623C52.3843 140.861 52.8093 140.98 53.308 140.98C53.7047 140.98 54.056 140.923 54.362 140.81C54.6793 140.685 54.9513 140.527 55.178 140.334C55.4047 140.13 55.586 139.909 55.722 139.671C55.8467 139.728 55.943 139.824 56.011 139.96C56.0903 140.085 56.13 140.232 56.13 140.402C56.13 140.685 56.011 140.963 55.773 141.235C55.5463 141.507 55.195 141.734 54.719 141.915C54.2543 142.085 53.6537 142.17 52.917 142.17ZM54.277 136.577C54.277 135.999 54.226 135.495 54.124 135.064C54.022 134.633 53.8577 134.305 53.631 134.078C53.4157 133.84 53.121 133.721 52.747 133.721C52.3843 133.721 52.0727 133.829 51.812 134.044C51.5627 134.259 51.3643 134.582 51.217 135.013C51.081 135.432 50.996 135.954 50.962 136.577H54.277ZM61.0879 142.17C60.3625 142.17 59.7619 142.091 59.2859 141.932C58.8212 141.773 58.4755 141.552 58.2489 141.269C58.0222 140.974 57.9089 140.634 57.9089 140.249C57.9089 139.898 57.9882 139.637 58.1469 139.467C58.3055 139.286 58.4925 139.167 58.7079 139.11C58.9232 139.042 59.1159 139.008 59.2859 139.008C59.2859 139.45 59.3539 139.841 59.4899 140.181C59.6372 140.51 59.8469 140.77 60.1189 140.963C60.3909 141.144 60.7252 141.235 61.1219 141.235C61.7225 141.235 62.1645 141.11 62.4479 140.861C62.7312 140.612 62.8729 140.3 62.8729 139.926C62.8729 139.665 62.8105 139.444 62.6859 139.263C62.5725 139.082 62.3629 138.906 62.0569 138.736C61.7509 138.566 61.3259 138.379 60.7819 138.175C60.1925 137.948 59.6939 137.71 59.2859 137.461C58.8779 137.2 58.5719 136.9 58.3679 136.56C58.1639 136.22 58.0619 135.795 58.0619 135.285C58.0619 134.435 58.3792 133.795 59.0139 133.364C59.6485 132.922 60.4872 132.701 61.5299 132.701C62.1872 132.701 62.7199 132.775 63.1279 132.922C63.5359 133.069 63.8362 133.268 64.0289 133.517C64.2215 133.755 64.3179 134.01 64.3179 134.282C64.3179 134.633 64.1932 134.905 63.9439 135.098C63.7059 135.291 63.3205 135.387 62.7879 135.387C62.7879 134.82 62.6632 134.384 62.4139 134.078C62.1645 133.761 61.7905 133.602 61.2919 133.602C61.0085 133.602 60.7535 133.647 60.5269 133.738C60.3115 133.829 60.1415 133.965 60.0169 134.146C59.8922 134.316 59.8299 134.526 59.8299 134.775C59.8299 135.024 59.8979 135.245 60.0339 135.438C60.1699 135.619 60.4022 135.795 60.7309 135.965C61.0595 136.135 61.5072 136.322 62.0739 136.526C62.6179 136.73 63.0769 136.957 63.4509 137.206C63.8362 137.444 64.1309 137.733 64.3349 138.073C64.5389 138.413 64.6409 138.821 64.6409 139.297C64.6409 140.215 64.3235 140.923 63.6889 141.422C63.0655 141.921 62.1985 142.17 61.0879 142.17ZM67.8816 135.319C67.5303 135.319 67.23 135.228 66.9806 135.047C66.7313 134.854 66.6066 134.52 66.6066 134.044C66.6066 133.557 66.7313 133.222 66.9806 133.041C67.23 132.86 67.5303 132.769 67.8816 132.769C68.2216 132.769 68.5163 132.86 68.7656 133.041C69.0263 133.222 69.1566 133.557 69.1566 134.044C69.1566 134.52 69.0263 134.854 68.7656 135.047C68.5163 135.228 68.2216 135.319 67.8816 135.319ZM67.8816 142.136C67.5303 142.136 67.23 142.04 66.9806 141.847C66.7313 141.654 66.6066 141.32 66.6066 140.844C66.6066 140.357 66.7313 140.022 66.9806 139.841C67.23 139.66 67.5303 139.569 67.8816 139.569C68.2216 139.569 68.5163 139.66 68.7656 139.841C69.0263 140.022 69.1566 140.357 69.1566 140.844C69.1566 141.331 69.0263 141.671 68.7656 141.864C68.5163 142.045 68.2216 142.136 67.8816 142.136ZM76.4605 142V141.167H77.7525C77.9679 141.167 78.1549 141.139 78.3135 141.082C78.4722 141.014 78.5912 140.901 78.6705 140.742C78.7612 140.572 78.8065 140.334 78.8065 140.028V131.341C78.5232 131.692 78.2569 132.004 78.0075 132.276C77.7582 132.537 77.5202 132.741 77.2935 132.888C77.0669 133.035 76.8402 133.109 76.6135 133.109C76.3529 133.109 76.1319 133.007 75.9505 132.803C75.7692 132.599 75.6785 132.327 75.6785 131.987C75.9052 131.93 76.1432 131.857 76.3925 131.766C76.6532 131.664 76.9309 131.528 77.2255 131.358C77.5315 131.177 77.8715 130.95 78.2455 130.678L79.4355 129.794H81.0335V140.028C81.0335 140.3 81.0675 140.521 81.1355 140.691C81.2149 140.861 81.3339 140.986 81.4925 141.065C81.6512 141.133 81.8552 141.167 82.1045 141.167H83.2605V142H76.4605ZM89.0676 142.17C88.0703 142.17 87.2713 141.909 86.6706 141.388C86.07 140.867 85.6336 140.136 85.3616 139.195C85.0896 138.254 84.9536 137.155 84.9536 135.897C84.9536 134.639 85.0896 133.545 85.3616 132.616C85.6336 131.687 86.07 130.967 86.6706 130.457C87.2713 129.947 88.076 129.692 89.0846 129.692C90.0366 129.692 90.8073 129.947 91.3966 130.457C91.9973 130.967 92.4393 131.692 92.7226 132.633C93.0173 133.562 93.1646 134.656 93.1646 135.914C93.1646 137.172 93.0173 138.271 92.7226 139.212C92.4393 140.141 91.9973 140.867 91.3966 141.388C90.796 141.909 90.0196 142.17 89.0676 142.17ZM89.0676 141.133C89.419 141.133 89.708 141.02 89.9346 140.793C90.1726 140.555 90.354 140.215 90.4786 139.773C90.6146 139.32 90.711 138.77 90.7676 138.124C90.8243 137.478 90.8526 136.741 90.8526 135.914C90.8526 135.087 90.8243 134.356 90.7676 133.721C90.7223 133.075 90.6316 132.531 90.4956 132.089C90.3596 131.647 90.1726 131.313 89.9346 131.086C89.708 130.848 89.4246 130.729 89.0846 130.729C88.7333 130.729 88.4386 130.848 88.2006 131.086C87.9626 131.313 87.7756 131.647 87.6396 132.089C87.5036 132.531 87.4073 133.075 87.3506 133.721C87.294 134.356 87.2656 135.087 87.2656 135.914C87.2656 136.741 87.294 137.478 87.3506 138.124C87.4073 138.77 87.5036 139.32 87.6396 139.773C87.7756 140.215 87.957 140.555 88.1836 140.793C88.4216 141.02 88.7163 141.133 89.0676 141.133Z" fill="black"/>
<path d="M19.562 117.17C18.3153 117.17 17.2727 116.909 16.434 116.388C15.6067 115.867 14.9833 115.141 14.564 114.212C14.156 113.271 13.952 112.172 13.952 110.914C13.952 109.69 14.1673 108.613 14.598 107.684C15.0287 106.743 15.669 106.012 16.519 105.491C17.369 104.958 18.4173 104.692 19.664 104.692C20.4913 104.692 21.177 104.777 21.721 104.947C22.2763 105.117 22.69 105.349 22.962 105.644C23.234 105.939 23.37 106.267 23.37 106.63C23.37 107.038 23.2 107.372 22.86 107.633C22.5313 107.882 22.0723 108.007 21.483 108.007C21.483 107.644 21.4207 107.287 21.296 106.936C21.1827 106.585 20.9843 106.296 20.701 106.069C20.429 105.831 20.055 105.712 19.579 105.712C18.8083 105.712 18.1907 105.916 17.726 106.324C17.2727 106.732 16.944 107.321 16.74 108.092C16.536 108.863 16.434 109.803 16.434 110.914C16.434 111.968 16.5473 112.869 16.774 113.617C17.012 114.365 17.386 114.932 17.896 115.317C18.406 115.702 19.0747 115.895 19.902 115.895C20.4573 115.895 20.9333 115.821 21.33 115.674C21.7267 115.515 22.061 115.317 22.333 115.079C22.605 114.841 22.8373 114.597 23.03 114.348C23.1207 114.416 23.1943 114.512 23.251 114.637C23.3077 114.762 23.336 114.903 23.336 115.062C23.336 115.289 23.268 115.527 23.132 115.776C22.996 116.014 22.7807 116.241 22.486 116.456C22.1913 116.671 21.8003 116.847 21.313 116.983C20.837 117.108 20.2533 117.17 19.562 117.17ZM29.0894 117.17C27.7861 117.17 26.7548 116.779 25.9954 115.997C25.2474 115.215 24.8734 114.019 24.8734 112.41C24.8734 110.823 25.2304 109.639 25.9444 108.857C26.6698 108.075 27.7351 107.684 29.1404 107.684C30.4551 107.684 31.4864 108.075 32.2344 108.857C32.9824 109.639 33.3564 110.823 33.3564 112.41C33.3564 114.019 32.9938 115.215 32.2684 115.997C31.5544 116.779 30.4948 117.17 29.0894 117.17ZM29.1234 116.167C29.6108 116.167 29.9961 116.031 30.2794 115.759C30.5741 115.476 30.7838 115.051 30.9084 114.484C31.0331 113.917 31.0954 113.226 31.0954 112.41C31.0954 111.583 31.0274 110.897 30.8914 110.353C30.7668 109.809 30.5571 109.401 30.2624 109.129C29.9791 108.846 29.5938 108.704 29.1064 108.704C28.6304 108.704 28.2451 108.846 27.9504 109.129C27.6558 109.401 27.4461 109.809 27.3214 110.353C27.1968 110.897 27.1344 111.583 27.1344 112.41C27.1344 113.237 27.1968 113.929 27.3214 114.484C27.4574 115.039 27.6671 115.459 27.9504 115.742C28.2451 116.025 28.6361 116.167 29.1234 116.167ZM34.5912 117V116.167H34.6592C34.9199 116.167 35.1522 116.139 35.3562 116.082C35.5602 116.025 35.7189 115.912 35.8322 115.742C35.9569 115.572 36.0192 115.317 36.0192 114.977V109.843C36.0192 109.514 35.9625 109.271 35.8492 109.112C35.7359 108.953 35.5829 108.851 35.3902 108.806C35.2089 108.749 34.9935 108.721 34.7442 108.721H34.6762V107.888H37.9402L38.1612 109.163H38.2462C38.4729 108.732 38.7165 108.415 38.9772 108.211C39.2492 107.996 39.5382 107.854 39.8442 107.786C40.1615 107.718 40.5015 107.684 40.8642 107.684C41.7482 107.684 42.4395 107.945 42.9382 108.466C43.4369 108.987 43.6862 109.826 43.6862 110.982V114.96C43.6862 115.311 43.7315 115.572 43.8222 115.742C43.9242 115.912 44.0602 116.025 44.2302 116.082C44.4115 116.139 44.6269 116.167 44.8762 116.167H44.9442V117H41.4762V111.305C41.4762 110.568 41.3572 110.002 41.1192 109.605C40.8925 109.197 40.4959 108.993 39.9292 108.993C39.4985 108.993 39.1585 109.118 38.9092 109.367C38.6712 109.616 38.4955 109.945 38.3822 110.353C38.2802 110.761 38.2292 111.203 38.2292 111.679V115.045C38.2292 115.374 38.2802 115.617 38.3822 115.776C38.4955 115.935 38.6485 116.042 38.8412 116.099C39.0339 116.144 39.2549 116.167 39.5042 116.167H39.5722V117H34.5912ZM49.5203 117.17C48.7156 117.17 48.0979 116.972 47.6673 116.575C47.2479 116.178 47.0383 115.487 47.0383 114.501V108.976H45.7463V108.177C46.0523 108.177 46.3413 108.115 46.6133 107.99C46.8853 107.865 47.1119 107.712 47.2933 107.531C47.4633 107.338 47.6163 107.1 47.7523 106.817C47.8883 106.534 47.9959 106.188 48.0753 105.78H49.2483V107.888H51.4413V108.976H49.2483V114.416C49.2483 114.949 49.3446 115.345 49.5373 115.606C49.7413 115.855 50.0359 115.98 50.4213 115.98C50.6479 115.98 50.8519 115.969 51.0333 115.946C51.2259 115.912 51.4129 115.872 51.5943 115.827V116.796C51.4243 116.875 51.1523 116.955 50.7783 117.034C50.4156 117.125 49.9963 117.17 49.5203 117.17ZM52.3723 117V116.167H52.4233C52.6839 116.167 52.9106 116.139 53.1033 116.082C53.3073 116.025 53.4659 115.912 53.5793 115.742C53.7039 115.561 53.7663 115.294 53.7663 114.943V109.877C53.7663 109.537 53.7096 109.288 53.5963 109.129C53.4829 108.959 53.3299 108.851 53.1373 108.806C52.9446 108.749 52.7236 108.721 52.4743 108.721H52.4233V107.888H55.5513L55.8743 109.35H55.9593C56.1066 109.01 56.2709 108.715 56.4523 108.466C56.6449 108.217 56.8886 108.03 57.1833 107.905C57.4779 107.769 57.8633 107.701 58.3393 107.701C58.9853 107.701 59.4613 107.814 59.7673 108.041C60.0846 108.268 60.2433 108.596 60.2433 109.027C60.2433 109.48 60.0789 109.843 59.7503 110.115C59.4216 110.376 58.9399 110.506 58.3053 110.506C58.3053 110.189 58.2769 109.934 58.2203 109.741C58.1749 109.537 58.0899 109.384 57.9653 109.282C57.8406 109.18 57.6706 109.129 57.4553 109.129C57.1493 109.129 56.8999 109.242 56.7073 109.469C56.5146 109.684 56.3616 109.956 56.2483 110.285C56.1463 110.614 56.0726 110.954 56.0273 111.305C55.9933 111.656 55.9763 111.951 55.9763 112.189V115.028C55.9763 115.357 56.0329 115.606 56.1463 115.776C56.2596 115.935 56.4126 116.042 56.6053 116.099C56.7979 116.144 57.0076 116.167 57.2343 116.167H57.7613V117H52.3723ZM60.8201 117V116.167H61.0411C61.2337 116.167 61.4264 116.144 61.6191 116.099C61.8231 116.042 61.9874 115.935 62.1121 115.776C62.2481 115.617 62.3161 115.379 62.3161 115.062V109.792C62.3161 109.475 62.2481 109.242 62.1121 109.095C61.9761 108.936 61.8117 108.834 61.6191 108.789C61.4264 108.744 61.2337 108.721 61.0411 108.721H60.8881V107.888H64.5261V115.028C64.5261 115.357 64.5884 115.606 64.7131 115.776C64.8377 115.935 65.0021 116.042 65.2061 116.099C65.4101 116.144 65.6084 116.167 65.8011 116.167H66.0051V117H60.8201ZM63.3361 106.29C62.9847 106.29 62.6844 106.199 62.4351 106.018C62.1971 105.837 62.0781 105.542 62.0781 105.134C62.0781 104.715 62.1971 104.42 62.4351 104.25C62.6844 104.069 62.9904 103.978 63.3531 103.978C63.6931 103.978 63.9877 104.069 64.2371 104.25C64.4864 104.42 64.6111 104.715 64.6111 105.134C64.6111 105.542 64.4864 105.837 64.2371 106.018C63.9877 106.199 63.6874 106.29 63.3361 106.29ZM72.7514 117.17C72.0941 117.17 71.5557 117.034 71.1364 116.762C70.7284 116.479 70.3997 116.116 70.1504 115.674H70.0144L69.6064 117H66.5634V116.167H66.6994C66.9261 116.167 67.1414 116.139 67.3454 116.082C67.5494 116.025 67.7137 115.912 67.8384 115.742C67.9631 115.572 68.0254 115.317 68.0254 114.977V106.052C68.0254 105.723 67.9631 105.48 67.8384 105.321C67.7137 105.151 67.5494 105.043 67.3454 104.998C67.1414 104.941 66.9147 104.913 66.6654 104.913H66.5634V104.08H70.2354V107.072C70.2354 107.242 70.2297 107.469 70.2184 107.752C70.2071 108.024 70.1901 108.296 70.1674 108.568C70.1561 108.829 70.1447 109.033 70.1334 109.18H70.2184C70.4791 108.727 70.8077 108.37 71.2044 108.109C71.6124 107.837 72.1451 107.701 72.8024 107.701C73.9131 107.701 74.7631 108.081 75.3524 108.84C75.9417 109.588 76.2364 110.778 76.2364 112.41C76.2364 113.509 76.1004 114.41 75.8284 115.113C75.5677 115.816 75.1767 116.337 74.6554 116.677C74.1341 117.006 73.4994 117.17 72.7514 117.17ZM72.2074 115.963C72.6267 115.963 72.9667 115.827 73.2274 115.555C73.4881 115.272 73.6751 114.869 73.7884 114.348C73.9131 113.815 73.9754 113.164 73.9754 112.393C73.9754 111.611 73.9131 110.965 73.7884 110.455C73.6751 109.934 73.4881 109.543 73.2274 109.282C72.9667 109.021 72.6211 108.891 72.1904 108.891C71.4424 108.891 70.9267 109.18 70.6434 109.758C70.3714 110.336 70.2354 111.22 70.2354 112.41C70.2354 113.181 70.2921 113.827 70.4054 114.348C70.5301 114.869 70.7341 115.272 71.0174 115.555C71.3121 115.827 71.7087 115.963 72.2074 115.963ZM81.57 117.17C80.6747 117.17 79.989 116.904 79.513 116.371C79.037 115.827 78.799 114.977 78.799 113.821V109.911C78.799 109.571 78.748 109.316 78.646 109.146C78.544 108.976 78.3967 108.863 78.204 108.806C78.0227 108.749 77.8017 108.721 77.541 108.721H77.507V107.888H81.009V113.481C81.009 113.98 81.0487 114.405 81.128 114.756C81.2187 115.107 81.3717 115.379 81.587 115.572C81.8024 115.765 82.097 115.861 82.471 115.861C82.8904 115.861 83.2304 115.753 83.491 115.538C83.7517 115.311 83.9444 115 84.069 114.603C84.1937 114.206 84.256 113.742 84.256 113.209V109.86C84.256 109.52 84.1937 109.271 84.069 109.112C83.9557 108.953 83.8027 108.851 83.61 108.806C83.4174 108.749 83.202 108.721 82.964 108.721H82.913V107.888H86.466V115.079C86.466 115.408 86.517 115.651 86.619 115.81C86.7324 115.957 86.8854 116.054 87.078 116.099C87.2707 116.144 87.4804 116.167 87.707 116.167H87.809V117H84.681L84.358 115.725H84.273C84.103 116.031 83.916 116.28 83.712 116.473C83.508 116.654 83.2927 116.796 83.066 116.898C82.8394 117 82.6014 117.068 82.352 117.102C82.1027 117.147 81.842 117.17 81.57 117.17ZM92.3357 117.17C91.531 117.17 90.9133 116.972 90.4827 116.575C90.0633 116.178 89.8537 115.487 89.8537 114.501V108.976H88.5617V108.177C88.8677 108.177 89.1567 108.115 89.4287 107.99C89.7007 107.865 89.9273 107.712 90.1087 107.531C90.2787 107.338 90.4317 107.1 90.5677 106.817C90.7037 106.534 90.8113 106.188 90.8907 105.78H92.0637V107.888H94.2567V108.976H92.0637V114.416C92.0637 114.949 92.16 115.345 92.3527 115.606C92.5567 115.855 92.8513 115.98 93.2367 115.98C93.4633 115.98 93.6673 115.969 93.8487 115.946C94.0413 115.912 94.2283 115.872 94.4097 115.827V116.796C94.2397 116.875 93.9677 116.955 93.5937 117.034C93.231 117.125 92.8117 117.17 92.3357 117.17ZM95.0857 117V116.167H95.3067C95.4994 116.167 95.692 116.144 95.8847 116.099C96.0887 116.042 96.253 115.935 96.3777 115.776C96.5137 115.617 96.5817 115.379 96.5817 115.062V109.792C96.5817 109.475 96.5137 109.242 96.3777 109.095C96.2417 108.936 96.0774 108.834 95.8847 108.789C95.692 108.744 95.4994 108.721 95.3067 108.721H95.1537V107.888H98.7917V115.028C98.7917 115.357 98.854 115.606 98.9787 115.776C99.1034 115.935 99.2677 116.042 99.4717 116.099C99.6757 116.144 99.874 116.167 100.067 116.167H100.271V117H95.0857ZM97.6017 106.29C97.2504 106.29 96.95 106.199 96.7007 106.018C96.4627 105.837 96.3437 105.542 96.3437 105.134C96.3437 104.715 96.4627 104.42 96.7007 104.25C96.95 104.069 97.256 103.978 97.6187 103.978C97.9587 103.978 98.2534 104.069 98.5027 104.25C98.752 104.42 98.8767 104.715 98.8767 105.134C98.8767 105.542 98.752 105.837 98.5027 106.018C98.2534 106.199 97.953 106.29 97.6017 106.29ZM105.606 117.17C104.303 117.17 103.271 116.779 102.512 115.997C101.764 115.215 101.39 114.019 101.39 112.41C101.39 110.823 101.747 109.639 102.461 108.857C103.186 108.075 104.252 107.684 105.657 107.684C106.972 107.684 108.003 108.075 108.751 108.857C109.499 109.639 109.873 110.823 109.873 112.41C109.873 114.019 109.51 115.215 108.785 115.997C108.071 116.779 107.011 117.17 105.606 117.17ZM105.64 116.167C106.127 116.167 106.513 116.031 106.796 115.759C107.091 115.476 107.3 115.051 107.425 114.484C107.55 113.917 107.612 113.226 107.612 112.41C107.612 111.583 107.544 110.897 107.408 110.353C107.283 109.809 107.074 109.401 106.779 109.129C106.496 108.846 106.11 108.704 105.623 108.704C105.147 108.704 104.762 108.846 104.467 109.129C104.172 109.401 103.963 109.809 103.838 110.353C103.713 110.897 103.651 111.583 103.651 112.41C103.651 113.237 103.713 113.929 103.838 114.484C103.974 115.039 104.184 115.459 104.467 115.742C104.762 116.025 105.153 116.167 105.64 116.167ZM111.108 117V116.167H111.176C111.436 116.167 111.669 116.139 111.873 116.082C112.077 116.025 112.235 115.912 112.349 115.742C112.473 115.572 112.536 115.317 112.536 114.977V109.843C112.536 109.514 112.479 109.271 112.366 109.112C112.252 108.953 112.099 108.851 111.907 108.806C111.725 108.749 111.51 108.721 111.261 108.721H111.193V107.888H114.457L114.678 109.163H114.763C114.989 108.732 115.233 108.415 115.494 108.211C115.766 107.996 116.055 107.854 116.361 107.786C116.678 107.718 117.018 107.684 117.381 107.684C118.265 107.684 118.956 107.945 119.455 108.466C119.953 108.987 120.203 109.826 120.203 110.982V114.96C120.203 115.311 120.248 115.572 120.339 115.742C120.441 115.912 120.577 116.025 120.747 116.082C120.928 116.139 121.143 116.167 121.393 116.167H121.461V117H117.993V111.305C117.993 110.568 117.874 110.002 117.636 109.605C117.409 109.197 117.012 108.993 116.446 108.993C116.015 108.993 115.675 109.118 115.426 109.367C115.188 109.616 115.012 109.945 114.899 110.353C114.797 110.761 114.746 111.203 114.746 111.679V115.045C114.746 115.374 114.797 115.617 114.899 115.776C115.012 115.935 115.165 116.042 115.358 116.099C115.55 116.144 115.771 116.167 116.021 116.167H116.089V117H111.108ZM124.456 110.319C124.105 110.319 123.804 110.228 123.555 110.047C123.306 109.854 123.181 109.52 123.181 109.044C123.181 108.557 123.306 108.222 123.555 108.041C123.804 107.86 124.105 107.769 124.456 107.769C124.796 107.769 125.091 107.86 125.34 108.041C125.601 108.222 125.731 108.557 125.731 109.044C125.731 109.52 125.601 109.854 125.34 110.047C125.091 110.228 124.796 110.319 124.456 110.319ZM124.456 117.136C124.105 117.136 123.804 117.04 123.555 116.847C123.306 116.654 123.181 116.32 123.181 115.844C123.181 115.357 123.306 115.022 123.555 114.841C123.804 114.66 124.105 114.569 124.456 114.569C124.796 114.569 125.091 114.66 125.34 114.841C125.601 115.022 125.731 115.357 125.731 115.844C125.731 116.331 125.601 116.671 125.34 116.864C125.091 117.045 124.796 117.136 124.456 117.136ZM133.035 117V116.167H134.327C134.542 116.167 134.729 116.139 134.888 116.082C135.046 116.014 135.165 115.901 135.245 115.742C135.335 115.572 135.381 115.334 135.381 115.028V106.341C135.097 106.692 134.831 107.004 134.582 107.276C134.332 107.537 134.094 107.741 133.868 107.888C133.641 108.035 133.414 108.109 133.188 108.109C132.927 108.109 132.706 108.007 132.525 107.803C132.343 107.599 132.253 107.327 132.253 106.987C132.479 106.93 132.717 106.857 132.967 106.766C133.227 106.664 133.505 106.528 133.8 106.358C134.106 106.177 134.446 105.95 134.82 105.678L136.01 104.794H137.608V115.028C137.608 115.3 137.642 115.521 137.71 115.691C137.789 115.861 137.908 115.986 138.067 116.065C138.225 116.133 138.429 116.167 138.679 116.167H139.835V117H133.035ZM145.642 117.17C144.645 117.17 143.846 116.909 143.245 116.388C142.644 115.867 142.208 115.136 141.936 114.195C141.664 113.254 141.528 112.155 141.528 110.897C141.528 109.639 141.664 108.545 141.936 107.616C142.208 106.687 142.644 105.967 143.245 105.457C143.846 104.947 144.65 104.692 145.659 104.692C146.611 104.692 147.382 104.947 147.971 105.457C148.572 105.967 149.014 106.692 149.297 107.633C149.592 108.562 149.739 109.656 149.739 110.914C149.739 112.172 149.592 113.271 149.297 114.212C149.014 115.141 148.572 115.867 147.971 116.388C147.37 116.909 146.594 117.17 145.642 117.17ZM145.642 116.133C145.993 116.133 146.282 116.02 146.509 115.793C146.747 115.555 146.928 115.215 147.053 114.773C147.189 114.32 147.285 113.77 147.342 113.124C147.399 112.478 147.427 111.741 147.427 110.914C147.427 110.087 147.399 109.356 147.342 108.721C147.297 108.075 147.206 107.531 147.07 107.089C146.934 106.647 146.747 106.313 146.509 106.086C146.282 105.848 145.999 105.729 145.659 105.729C145.308 105.729 145.013 105.848 144.775 106.086C144.537 106.313 144.35 106.647 144.214 107.089C144.078 107.531 143.982 108.075 143.925 108.721C143.868 109.356 143.84 110.087 143.84 110.914C143.84 111.741 143.868 112.478 143.925 113.124C143.982 113.77 144.078 114.32 144.214 114.773C144.35 115.215 144.531 115.555 144.758 115.793C144.996 116.02 145.291 116.133 145.642 116.133Z" fill="black"/>
<path d="M13.544 165V164.167H14.071C14.275 164.167 14.4563 164.144 14.615 164.099C14.7737 164.042 14.8983 163.935 14.989 163.776C15.091 163.606 15.142 163.357 15.142 163.028V154.766C15.142 154.449 15.091 154.216 14.989 154.069C14.887 153.91 14.7567 153.808 14.598 153.763C14.4393 153.718 14.2637 153.695 14.071 153.695H13.544V152.862H18.593C20.1117 152.862 21.2337 153.185 21.959 153.831C22.6957 154.466 23.064 155.338 23.064 156.449C23.064 156.959 22.9733 157.446 22.792 157.911C22.622 158.364 22.3443 158.778 21.959 159.152C21.585 159.515 21.0863 159.804 20.463 160.019C19.851 160.223 19.103 160.325 18.219 160.325H17.454V163.113C17.454 163.419 17.505 163.651 17.607 163.81C17.709 163.957 17.8393 164.054 17.998 164.099C18.168 164.144 18.3493 164.167 18.542 164.167H19.392V165H13.544ZM18.049 159.407C18.5023 159.407 18.8877 159.356 19.205 159.254C19.5337 159.141 19.8 158.971 20.004 158.744C20.208 158.517 20.3553 158.223 20.446 157.86C20.5367 157.486 20.582 157.038 20.582 156.517C20.582 155.894 20.5083 155.384 20.361 154.987C20.2137 154.59 19.97 154.296 19.63 154.103C19.3013 153.899 18.8593 153.797 18.304 153.797H17.454V159.407H18.049ZM24.169 165V164.167H24.696C24.8887 164.167 25.0643 164.144 25.223 164.099C25.3817 164.054 25.512 163.957 25.614 163.81C25.716 163.651 25.767 163.419 25.767 163.113V154.766C25.767 154.449 25.716 154.216 25.614 154.069C25.512 153.91 25.3817 153.808 25.223 153.763C25.0643 153.718 24.8887 153.695 24.696 153.695H24.169V152.862H29.303C30.3457 152.862 31.2013 152.981 31.87 153.219C32.5387 153.457 33.0317 153.814 33.349 154.29C33.6777 154.766 33.842 155.355 33.842 156.058C33.842 156.659 33.723 157.169 33.485 157.588C33.2583 158.007 32.9637 158.347 32.601 158.608C32.2383 158.869 31.8587 159.073 31.462 159.22L33.604 162.79C33.7513 163.028 33.893 163.238 34.029 163.419C34.165 163.589 34.301 163.731 34.437 163.844C34.573 163.957 34.7147 164.042 34.862 164.099C35.0093 164.144 35.168 164.167 35.338 164.167H35.389V165H34.964C34.4427 165 33.995 164.983 33.621 164.949C33.2583 164.904 32.9467 164.83 32.686 164.728C32.4367 164.615 32.21 164.456 32.006 164.252C31.802 164.048 31.6093 163.787 31.428 163.47L29.303 159.696H28.079V163.113C28.079 163.419 28.1243 163.651 28.215 163.81C28.317 163.957 28.4473 164.054 28.606 164.099C28.776 164.144 28.9573 164.167 29.15 164.167H29.677V165H24.169ZM29.116 158.778C29.694 158.778 30.1473 158.687 30.476 158.506C30.8047 158.313 31.037 158.03 31.173 157.656C31.309 157.271 31.377 156.795 31.377 156.228C31.377 155.639 31.3033 155.168 31.156 154.817C31.0087 154.454 30.765 154.194 30.425 154.035C30.0963 153.876 29.6487 153.797 29.082 153.797H28.079V158.778H29.116ZM35.6601 157.095C36.0114 156.97 36.3004 156.846 36.5271 156.721C36.7537 156.585 36.9237 156.438 37.0371 156.279C37.1504 156.109 37.2071 155.916 37.2071 155.701C37.2071 155.565 37.1617 155.457 37.0711 155.378C36.9917 155.299 36.8897 155.225 36.7651 155.157C36.6517 155.089 36.5327 155.01 36.4081 154.919C36.2834 154.828 36.1757 154.709 36.0851 154.562C36.0057 154.415 35.9661 154.216 35.9661 153.967C35.9661 153.604 36.0737 153.332 36.2891 153.151C36.5157 152.958 36.7991 152.862 37.1391 152.862C37.5697 152.862 37.9211 153.015 38.1931 153.321C38.4764 153.627 38.6181 154.046 38.6181 154.579C38.6181 155.304 38.3914 155.967 37.9381 156.568C37.4961 157.169 36.7367 157.616 35.6601 157.911V157.095ZM42.5068 165.17C41.7815 165.17 41.1808 165.091 40.7048 164.932C40.2402 164.773 39.8945 164.552 39.6678 164.269C39.4412 163.974 39.3278 163.634 39.3278 163.249C39.3278 162.898 39.4072 162.637 39.5658 162.467C39.7245 162.286 39.9115 162.167 40.1268 162.11C40.3422 162.042 40.5348 162.008 40.7048 162.008C40.7048 162.45 40.7728 162.841 40.9088 163.181C41.0562 163.51 41.2658 163.77 41.5378 163.963C41.8098 164.144 42.1442 164.235 42.5408 164.235C43.1415 164.235 43.5835 164.11 43.8668 163.861C44.1502 163.612 44.2918 163.3 44.2918 162.926C44.2918 162.665 44.2295 162.444 44.1048 162.263C43.9915 162.082 43.7818 161.906 43.4758 161.736C43.1698 161.566 42.7448 161.379 42.2008 161.175C41.6115 160.948 41.1128 160.71 40.7048 160.461C40.2968 160.2 39.9908 159.9 39.7868 159.56C39.5828 159.22 39.4808 158.795 39.4808 158.285C39.4808 157.435 39.7982 156.795 40.4328 156.364C41.0675 155.922 41.9062 155.701 42.9488 155.701C43.6062 155.701 44.1388 155.775 44.5468 155.922C44.9548 156.069 45.2552 156.268 45.4478 156.517C45.6405 156.755 45.7368 157.01 45.7368 157.282C45.7368 157.633 45.6122 157.905 45.3628 158.098C45.1248 158.291 44.7395 158.387 44.2068 158.387C44.2068 157.82 44.0822 157.384 43.8328 157.078C43.5835 156.761 43.2095 156.602 42.7108 156.602C42.4275 156.602 42.1725 156.647 41.9458 156.738C41.7305 156.829 41.5605 156.965 41.4358 157.146C41.3112 157.316 41.2488 157.526 41.2488 157.775C41.2488 158.024 41.3168 158.245 41.4528 158.438C41.5888 158.619 41.8212 158.795 42.1498 158.965C42.4785 159.135 42.9262 159.322 43.4928 159.526C44.0368 159.73 44.4958 159.957 44.8698 160.206C45.2552 160.444 45.5498 160.733 45.7538 161.073C45.9578 161.413 46.0598 161.821 46.0598 162.297C46.0598 163.215 45.7425 163.923 45.1078 164.422C44.4845 164.921 43.6175 165.17 42.5068 165.17ZM49.3006 158.319C48.9492 158.319 48.6489 158.228 48.3996 158.047C48.1502 157.854 48.0256 157.52 48.0256 157.044C48.0256 156.557 48.1502 156.222 48.3996 156.041C48.6489 155.86 48.9492 155.769 49.3006 155.769C49.6406 155.769 49.9352 155.86 50.1846 156.041C50.4452 156.222 50.5756 156.557 50.5756 157.044C50.5756 157.52 50.4452 157.854 50.1846 158.047C49.9352 158.228 49.6406 158.319 49.3006 158.319ZM49.3006 165.136C48.9492 165.136 48.6489 165.04 48.3996 164.847C48.1502 164.654 48.0256 164.32 48.0256 163.844C48.0256 163.357 48.1502 163.022 48.3996 162.841C48.6489 162.66 48.9492 162.569 49.3006 162.569C49.6406 162.569 49.9352 162.66 50.1846 162.841C50.4452 163.022 50.5756 163.357 50.5756 163.844C50.5756 164.331 50.4452 164.671 50.1846 164.864C49.9352 165.045 49.6406 165.136 49.3006 165.136ZM58.6785 165L63.0135 154.528H59.0525C58.7465 154.528 58.5141 154.602 58.3555 154.749C58.1968 154.896 58.1005 155.112 58.0665 155.395L57.9815 156.245H57.0805L57.1655 152.862H65.0705V153.559L60.5825 165H58.6785Z" fill="black"/>
</svg>
