<svg width="304" height="189" viewBox="0 0 304 189" fill="none" xmlns="http://www.w3.org/2000/svg">
<rect width="304" height="189" rx="20" fill="white"/>
<mask id="mask0_124_35" style="mask-type:alpha" maskUnits="userSpaceOnUse" x="0" y="0" width="304" height="189">
<rect width="304" height="189" rx="20" fill="white"/>
</mask>
<g mask="url(#mask0_124_35)">
<rect y="-1" width="304" height="37" fill="#160101"/>
</g>
<rect x="206" y="66" width="75" height="75" rx="37.5" fill="#D9D9D9" fill-opacity="0.01" stroke="black" stroke-width="4"/>
<path d="M218.96 108V106.68L220.616 105.012C221.008 104.62 221.324 104.272 221.564 103.968C221.812 103.656 222.004 103.364 222.14 103.092C222.284 102.812 222.384 102.536 222.44 102.264C222.496 101.992 222.524 101.7 222.524 101.388C222.524 101.06 222.488 100.804 222.416 100.62C222.352 100.436 222.256 100.304 222.128 100.224C222.008 100.136 221.868 100.092 221.708 100.092C221.476 100.092 221.284 100.164 221.132 100.308C220.98 100.452 220.864 100.68 220.784 100.992C220.712 101.304 220.676 101.716 220.676 102.228C220.364 102.228 220.08 102.192 219.824 102.12C219.568 102.048 219.364 101.924 219.212 101.748C219.06 101.564 218.984 101.32 218.984 101.016C218.984 100.728 219.084 100.456 219.284 100.2C219.484 99.936 219.784 99.724 220.184 99.564C220.592 99.396 221.1 99.312 221.708 99.312C222.348 99.312 222.88 99.396 223.304 99.564C223.728 99.732 224.048 99.972 224.264 100.284C224.48 100.588 224.588 100.948 224.588 101.364C224.588 101.588 224.56 101.808 224.504 102.024C224.448 102.232 224.348 102.456 224.204 102.696C224.06 102.936 223.856 103.204 223.592 103.5C223.336 103.796 223 104.136 222.584 104.52C222.176 104.896 221.676 105.336 221.084 105.84L220.316 106.536H222.98C223.18 106.536 223.376 106.472 223.568 106.344C223.76 106.216 223.896 106.012 223.976 105.732L224.096 105.3H224.888L224.828 108H218.96ZM228.734 108.12C227.974 108.12 227.374 107.936 226.934 107.568C226.494 107.2 226.182 106.684 225.998 106.02C225.814 105.356 225.722 104.58 225.722 103.692C225.722 102.804 225.814 102.032 225.998 101.376C226.182 100.72 226.494 100.212 226.934 99.852C227.374 99.492 227.978 99.312 228.746 99.312C229.466 99.312 230.042 99.492 230.474 99.852C230.914 100.212 231.23 100.724 231.422 101.388C231.622 102.044 231.722 102.816 231.722 103.704C231.722 104.592 231.622 105.368 231.422 106.032C231.23 106.688 230.914 107.2 230.474 107.568C230.042 107.936 229.462 108.12 228.734 108.12ZM228.734 107.292C228.926 107.292 229.078 107.212 229.19 107.052C229.31 106.884 229.398 106.648 229.454 106.344C229.518 106.032 229.558 105.656 229.574 105.216C229.598 104.776 229.61 104.272 229.61 103.704C229.61 103.136 229.598 102.632 229.574 102.192C229.558 101.752 229.518 101.38 229.454 101.076C229.398 100.772 229.31 100.54 229.19 100.38C229.078 100.22 228.93 100.14 228.746 100.14C228.546 100.14 228.386 100.22 228.266 100.38C228.146 100.54 228.054 100.772 227.99 101.076C227.926 101.38 227.882 101.752 227.858 102.192C227.842 102.632 227.834 103.136 227.834 103.704C227.834 104.272 227.842 104.776 227.858 105.216C227.882 105.656 227.926 106.032 227.99 106.344C228.054 106.648 228.142 106.884 228.254 107.052C228.374 107.212 228.534 107.292 228.734 107.292ZM235.507 108.12C234.747 108.12 234.147 107.936 233.707 107.568C233.267 107.2 232.955 106.684 232.771 106.02C232.587 105.356 232.495 104.58 232.495 103.692C232.495 102.804 232.587 102.032 232.771 101.376C232.955 100.72 233.267 100.212 233.707 99.852C234.147 99.492 234.751 99.312 235.519 99.312C236.239 99.312 236.815 99.492 237.247 99.852C237.687 100.212 238.003 100.724 238.195 101.388C238.395 102.044 238.495 102.816 238.495 103.704C238.495 104.592 238.395 105.368 238.195 106.032C238.003 106.688 237.687 107.2 237.247 107.568C236.815 107.936 236.235 108.12 235.507 108.12ZM235.507 107.292C235.699 107.292 235.851 107.212 235.963 107.052C236.083 106.884 236.171 106.648 236.227 106.344C236.291 106.032 236.331 105.656 236.347 105.216C236.371 104.776 236.383 104.272 236.383 103.704C236.383 103.136 236.371 102.632 236.347 102.192C236.331 101.752 236.291 101.38 236.227 101.076C236.171 100.772 236.083 100.54 235.963 100.38C235.851 100.22 235.703 100.14 235.519 100.14C235.319 100.14 235.159 100.22 235.039 100.38C234.919 100.54 234.827 100.772 234.763 101.076C234.699 101.38 234.655 101.752 234.631 102.192C234.615 102.632 234.607 103.136 234.607 103.704C234.607 104.272 234.615 104.776 234.631 105.216C234.655 105.656 234.699 106.032 234.763 106.344C234.827 106.648 234.915 106.884 235.027 107.052C235.147 107.212 235.307 107.292 235.507 107.292ZM238.885 109.452L241.441 98.88H242.341L239.809 109.452H238.885ZM245.294 108.12C244.662 108.12 244.15 108.052 243.758 107.916C243.366 107.772 243.078 107.584 242.894 107.352C242.718 107.112 242.63 106.852 242.63 106.572C242.63 106.236 242.742 105.984 242.966 105.816C243.198 105.648 243.462 105.564 243.758 105.564C243.758 105.924 243.818 106.228 243.938 106.476C244.066 106.716 244.242 106.896 244.466 107.016C244.69 107.136 244.938 107.196 245.21 107.196C245.458 107.196 245.682 107.152 245.882 107.064C246.09 106.968 246.254 106.796 246.374 106.548C246.502 106.3 246.566 105.952 246.566 105.504C246.566 105.216 246.498 104.956 246.362 104.724C246.234 104.492 246.042 104.308 245.786 104.172C245.53 104.036 245.21 103.968 244.826 103.968H244.01V103.176H244.898C245.242 103.176 245.514 103.104 245.714 102.96C245.914 102.808 246.058 102.604 246.146 102.348C246.234 102.084 246.278 101.784 246.278 101.448C246.278 101.032 246.198 100.704 246.038 100.464C245.886 100.216 245.674 100.092 245.402 100.092C245.146 100.092 244.946 100.184 244.802 100.368C244.658 100.552 244.554 100.792 244.49 101.088C244.434 101.376 244.406 101.676 244.406 101.988C243.902 101.988 243.502 101.904 243.206 101.736C242.91 101.568 242.762 101.288 242.762 100.896C242.762 100.616 242.862 100.356 243.062 100.116C243.262 99.876 243.562 99.684 243.962 99.54C244.362 99.388 244.866 99.312 245.474 99.312C246.37 99.312 247.074 99.484 247.586 99.828C248.098 100.172 248.354 100.66 248.354 101.292C248.354 101.652 248.274 101.968 248.114 102.24C247.962 102.512 247.75 102.748 247.478 102.948C247.206 103.14 246.898 103.3 246.554 103.428C246.802 103.484 247.05 103.564 247.298 103.668C247.546 103.772 247.77 103.908 247.97 104.076C248.178 104.236 248.342 104.436 248.462 104.676C248.59 104.916 248.654 105.196 248.654 105.516C248.654 106.004 248.562 106.416 248.378 106.752C248.202 107.088 247.954 107.356 247.634 107.556C247.314 107.756 246.954 107.9 246.554 107.988C246.154 108.076 245.734 108.12 245.294 108.12ZM250.183 108V107.316H251.239C251.367 107.316 251.475 107.292 251.563 107.244C251.651 107.188 251.715 107.108 251.755 107.004C251.795 106.892 251.815 106.744 251.815 106.56V100.668C251.615 100.916 251.427 101.136 251.251 101.328C251.075 101.512 250.907 101.656 250.747 101.76C250.587 101.864 250.427 101.916 250.267 101.916C250.075 101.916 249.903 101.828 249.751 101.652C249.607 101.476 249.535 101.236 249.535 100.932C249.695 100.892 249.871 100.84 250.063 100.776C250.255 100.704 250.463 100.608 250.687 100.488C250.911 100.36 251.155 100.2 251.419 100.008L252.259 99.384H253.831V106.56C253.831 106.696 253.847 106.82 253.879 106.932C253.911 107.044 253.971 107.136 254.059 107.208C254.147 107.28 254.271 107.316 254.431 107.316H255.355V108H250.183ZM259.201 108.12C258.505 108.12 257.937 108.016 257.497 107.808C257.057 107.6 256.729 107.328 256.513 106.992C256.305 106.648 256.201 106.272 256.201 105.864C256.201 105.48 256.277 105.152 256.429 104.88C256.589 104.608 256.805 104.376 257.077 104.184C257.349 103.992 257.657 103.824 258.001 103.68C257.689 103.504 257.417 103.312 257.185 103.104C256.961 102.896 256.785 102.664 256.657 102.408C256.537 102.144 256.477 101.844 256.477 101.508C256.477 101.116 256.569 100.756 256.753 100.428C256.945 100.092 257.253 99.824 257.677 99.624C258.101 99.416 258.661 99.312 259.357 99.312C259.949 99.312 260.441 99.404 260.833 99.588C261.225 99.764 261.521 100.004 261.721 100.308C261.921 100.612 262.021 100.952 262.021 101.328C262.021 101.832 261.877 102.232 261.589 102.528C261.301 102.816 260.909 103.076 260.413 103.308C260.885 103.54 261.261 103.776 261.541 104.016C261.821 104.256 262.025 104.516 262.153 104.796C262.281 105.068 262.345 105.384 262.345 105.744C262.345 106.464 262.069 107.04 261.517 107.472C260.973 107.904 260.201 108.12 259.201 108.12ZM259.261 107.376C259.605 107.376 259.881 107.252 260.089 107.004C260.297 106.748 260.401 106.404 260.401 105.972C260.401 105.78 260.365 105.604 260.293 105.444C260.229 105.276 260.129 105.124 259.993 104.988C259.865 104.844 259.697 104.704 259.489 104.568C259.289 104.432 259.057 104.3 258.793 104.172C258.561 104.348 258.373 104.568 258.229 104.832C258.085 105.088 258.013 105.416 258.013 105.816C258.013 106.32 258.129 106.708 258.361 106.98C258.601 107.244 258.901 107.376 259.261 107.376ZM259.597 102.888C259.749 102.792 259.873 102.68 259.969 102.552C260.073 102.416 260.153 102.252 260.209 102.06C260.265 101.86 260.293 101.624 260.293 101.352C260.293 101.12 260.253 100.908 260.173 100.716C260.093 100.516 259.981 100.356 259.837 100.236C259.693 100.116 259.513 100.056 259.297 100.056C259.001 100.056 258.777 100.172 258.625 100.404C258.473 100.628 258.397 100.928 258.397 101.304C258.397 101.568 258.445 101.8 258.541 102C258.637 102.192 258.773 102.36 258.949 102.504C259.133 102.648 259.349 102.776 259.597 102.888ZM263.058 108V106.68L264.714 105.012C265.106 104.62 265.422 104.272 265.662 103.968C265.91 103.656 266.102 103.364 266.238 103.092C266.382 102.812 266.482 102.536 266.538 102.264C266.594 101.992 266.622 101.7 266.622 101.388C266.622 101.06 266.586 100.804 266.514 100.62C266.45 100.436 266.354 100.304 266.226 100.224C266.106 100.136 265.966 100.092 265.806 100.092C265.574 100.092 265.382 100.164 265.23 100.308C265.078 100.452 264.962 100.68 264.882 100.992C264.81 101.304 264.774 101.716 264.774 102.228C264.462 102.228 264.178 102.192 263.922 102.12C263.666 102.048 263.462 101.924 263.31 101.748C263.158 101.564 263.082 101.32 263.082 101.016C263.082 100.728 263.182 100.456 263.382 100.2C263.582 99.936 263.882 99.724 264.282 99.564C264.69 99.396 265.198 99.312 265.806 99.312C266.446 99.312 266.978 99.396 267.402 99.564C267.826 99.732 268.146 99.972 268.362 100.284C268.578 100.588 268.686 100.948 268.686 101.364C268.686 101.588 268.658 101.808 268.602 102.024C268.546 102.232 268.446 102.456 268.302 102.696C268.158 102.936 267.954 103.204 267.69 103.5C267.434 103.796 267.098 104.136 266.682 104.52C266.274 104.896 265.774 105.336 265.182 105.84L264.414 106.536H267.078C267.278 106.536 267.474 106.472 267.666 106.344C267.858 106.216 267.994 106.012 268.074 105.732L268.194 105.3H268.986L268.926 108H263.058Z" fill="black"/>
<path d="M20.544 80V79.167H21.071C21.2637 79.167 21.4393 79.1443 21.598 79.099C21.7567 79.0537 21.887 78.9573 21.989 78.81C22.091 78.6513 22.142 78.419 22.142 78.113V69.834C22.142 69.494 22.091 69.2447 21.989 69.086C21.8983 68.9273 21.7737 68.8253 21.615 68.78C21.4563 68.7233 21.275 68.695 21.071 68.695H20.544V67.862H29.639L29.724 70.939H28.653L28.568 70.157C28.5453 69.885 28.483 69.6527 28.381 69.46C28.2903 69.2673 28.16 69.1143 27.99 69.001C27.82 68.8877 27.599 68.831 27.327 68.831H24.471V73.183H28.517V74.135H24.471V79.031H27.82C28.092 79.031 28.313 78.9743 28.483 78.861C28.6643 78.7363 28.806 78.5777 28.908 78.385C29.01 78.181 29.078 77.9543 29.112 77.705L29.231 76.923H30.302L30.183 80H20.544ZM34.3582 80.17C33.8596 80.17 33.4062 80.0737 32.9982 79.881C32.6016 79.677 32.2842 79.371 32.0462 78.963C31.8196 78.555 31.7062 78.0393 31.7062 77.416C31.7062 76.5093 32.0236 75.835 32.6582 75.393C33.2929 74.951 34.2506 74.7073 35.5312 74.662L36.9422 74.611V73.642C36.9422 73.2567 36.9139 72.9167 36.8572 72.622C36.8006 72.316 36.6816 72.078 36.5002 71.908C36.3302 71.738 36.0582 71.653 35.6842 71.653C35.3442 71.653 35.0779 71.7323 34.8852 71.891C34.6926 72.0497 34.5622 72.2707 34.4942 72.554C34.4262 72.826 34.3922 73.1377 34.3922 73.489C33.7349 73.489 33.2419 73.4097 32.9132 73.251C32.5846 73.081 32.4202 72.792 32.4202 72.384C32.4202 71.976 32.5676 71.6473 32.8622 71.398C33.1682 71.1487 33.5762 70.9673 34.0862 70.854C34.5962 70.7407 35.1516 70.684 35.7522 70.684C36.8856 70.684 37.7356 70.905 38.3022 71.347C38.8689 71.7777 39.1522 72.5257 39.1522 73.591V77.96C39.1522 78.266 39.1806 78.5097 39.2372 78.691C39.3052 78.861 39.4186 78.9857 39.5772 79.065C39.7359 79.133 39.9399 79.167 40.1892 79.167H40.2402V80H37.4182L37.0782 78.725H36.9422C36.6929 79.031 36.4549 79.2917 36.2282 79.507C36.0129 79.7223 35.7579 79.8867 35.4632 80C35.1799 80.1133 34.8116 80.17 34.3582 80.17ZM35.0892 78.997C35.4746 78.997 35.8032 78.9063 36.0752 78.725C36.3472 78.5437 36.5569 78.283 36.7042 77.943C36.8629 77.603 36.9422 77.2063 36.9422 76.753V75.444L36.0582 75.495C35.5256 75.5177 35.1062 75.6083 34.8002 75.767C34.5056 75.9257 34.2902 76.1467 34.1542 76.43C34.0296 76.7133 33.9672 77.0647 33.9672 77.484C33.9672 77.824 34.0069 78.1073 34.0862 78.334C34.1656 78.5493 34.2902 78.7137 34.4602 78.827C34.6302 78.9403 34.8399 78.997 35.0892 78.997ZM44.6426 80.17C43.9172 80.17 43.3166 80.0907 42.8406 79.932C42.3759 79.7733 42.0302 79.5523 41.8036 79.269C41.5769 78.9743 41.4636 78.6343 41.4636 78.249C41.4636 77.8977 41.5429 77.637 41.7016 77.467C41.8602 77.2857 42.0472 77.1667 42.2626 77.11C42.4779 77.042 42.6706 77.008 42.8406 77.008C42.8406 77.45 42.9086 77.841 43.0446 78.181C43.1919 78.5097 43.4016 78.7703 43.6736 78.963C43.9456 79.1443 44.2799 79.235 44.6766 79.235C45.2772 79.235 45.7192 79.1103 46.0026 78.861C46.2859 78.6117 46.4276 78.3 46.4276 77.926C46.4276 77.6653 46.3652 77.4443 46.2406 77.263C46.1272 77.0817 45.9176 76.906 45.6116 76.736C45.3056 76.566 44.8806 76.379 44.3366 76.175C43.7472 75.9483 43.2486 75.7103 42.8406 75.461C42.4326 75.2003 42.1266 74.9 41.9226 74.56C41.7186 74.22 41.6166 73.795 41.6166 73.285C41.6166 72.435 41.9339 71.7947 42.5686 71.364C43.2032 70.922 44.0419 70.701 45.0846 70.701C45.7419 70.701 46.2746 70.7747 46.6826 70.922C47.0906 71.0693 47.3909 71.2677 47.5836 71.517C47.7762 71.755 47.8726 72.01 47.8726 72.282C47.8726 72.6333 47.7479 72.9053 47.4986 73.098C47.2606 73.2907 46.8752 73.387 46.3426 73.387C46.3426 72.8203 46.2179 72.384 45.9686 72.078C45.7192 71.7607 45.3452 71.602 44.8466 71.602C44.5632 71.602 44.3082 71.6473 44.0816 71.738C43.8662 71.8287 43.6962 71.9647 43.5716 72.146C43.4469 72.316 43.3846 72.5257 43.3846 72.775C43.3846 73.0243 43.4526 73.2453 43.5886 73.438C43.7246 73.6193 43.9569 73.795 44.2856 73.965C44.6142 74.135 45.0619 74.322 45.6286 74.526C46.1726 74.73 46.6316 74.9567 47.0056 75.206C47.3909 75.444 47.6856 75.733 47.8896 76.073C48.0936 76.413 48.1956 76.821 48.1956 77.297C48.1956 78.215 47.8782 78.9233 47.2436 79.422C46.6202 79.9207 45.7532 80.17 44.6426 80.17ZM49.4303 83.162C50.0197 83.162 50.524 83.0827 50.9433 82.924C51.3627 82.7767 51.714 82.5613 51.9973 82.278C52.292 82.006 52.5357 81.6773 52.7283 81.292C52.921 80.9067 53.0853 80.4873 53.2213 80.034L50.1273 72.571C50.0367 72.3557 49.9347 72.1913 49.8213 72.078C49.7193 71.9647 49.6003 71.891 49.4643 71.857C49.3283 71.8117 49.1697 71.789 48.9883 71.789H48.9373V70.888H53.4763V71.721H53.4253C53.108 71.721 52.8587 71.772 52.6773 71.874C52.496 71.976 52.4053 72.1573 52.4053 72.418C52.4053 72.5087 52.4223 72.6163 52.4563 72.741C52.4903 72.8543 52.53 72.962 52.5753 73.064L53.7653 76.141C53.8447 76.3563 53.9183 76.5603 53.9863 76.753C54.0543 76.9457 54.111 77.127 54.1563 77.297C54.213 77.467 54.2583 77.6313 54.2923 77.79C54.3263 77.9373 54.3547 78.0733 54.3773 78.198C54.4227 77.926 54.4963 77.6313 54.5983 77.314C54.7117 76.9967 54.8023 76.753 54.8703 76.583L55.9923 73.251C56.0377 73.1263 56.0773 72.9903 56.1113 72.843C56.1453 72.6843 56.1623 72.554 56.1623 72.452C56.1623 72.1913 56.0603 72.0043 55.8563 71.891C55.6637 71.7777 55.3803 71.721 55.0063 71.721H54.9383V70.888H58.6613V71.721H58.5933C58.3893 71.721 58.208 71.7607 58.0493 71.84C57.902 71.908 57.7717 72.0383 57.6583 72.231C57.545 72.4123 57.426 72.6673 57.3013 72.996L54.7343 80.034C54.4397 80.8613 54.1563 81.5357 53.8843 82.057C53.6123 82.5783 53.3007 82.9863 52.9493 83.281C52.6093 83.5757 52.1787 83.7797 51.6573 83.893C51.136 84.0177 50.473 84.08 49.6683 84.08H49.4303V83.162ZM65.6141 73.319C65.2627 73.319 64.9624 73.2283 64.7131 73.047C64.4637 72.8543 64.3391 72.52 64.3391 72.044C64.3391 71.5567 64.4637 71.2223 64.7131 71.041C64.9624 70.8597 65.2627 70.769 65.6141 70.769C65.9541 70.769 66.2487 70.8597 66.4981 71.041C66.7587 71.2223 66.8891 71.5567 66.8891 72.044C66.8891 72.52 66.7587 72.8543 66.4981 73.047C66.2487 73.2283 65.9541 73.319 65.6141 73.319ZM65.6141 80.136C65.2627 80.136 64.9624 80.0397 64.7131 79.847C64.4637 79.6543 64.3391 79.32 64.3391 78.844C64.3391 78.3567 64.4637 78.0223 64.7131 77.841C64.9624 77.6597 65.2627 77.569 65.6141 77.569C65.9541 77.569 66.2487 77.6597 66.4981 77.841C66.7587 78.0223 66.8891 78.3567 66.8891 78.844C66.8891 79.3313 66.7587 79.6713 66.4981 79.864C66.2487 80.0453 65.9541 80.136 65.6141 80.136ZM76.7089 80.17C75.8589 80.17 75.1846 80.0737 74.6859 79.881C74.1986 79.6883 73.8473 79.4447 73.6319 79.15C73.4279 78.8553 73.3259 78.555 73.3259 78.249C73.3259 77.875 73.4336 77.5973 73.6489 77.416C73.8756 77.2233 74.1816 77.127 74.5669 77.127C74.5669 77.4443 74.6349 77.756 74.7709 78.062C74.9069 78.3567 75.1166 78.5947 75.3999 78.776C75.6833 78.9573 76.0516 79.048 76.5049 79.048C76.9129 79.048 77.2869 78.963 77.6269 78.793C77.9669 78.623 78.2333 78.3397 78.4259 77.943C78.6299 77.535 78.7319 76.9797 78.7319 76.277C78.7319 75.699 78.6356 75.2173 78.4429 74.832C78.2503 74.4467 77.9726 74.1633 77.6099 73.982C77.2473 73.8007 76.8166 73.71 76.3179 73.71C76.0006 73.71 75.7229 73.727 75.4849 73.761C75.2469 73.7837 75.0373 73.8233 74.8559 73.88C74.6859 73.9253 74.5159 73.9763 74.3459 74.033L73.7169 73.795L74.2609 67.862H80.3979L80.4829 70.752H79.6159L79.4969 70.208C79.4743 70.0607 79.4346 69.9417 79.3779 69.851C79.3326 69.749 79.2533 69.6753 79.1399 69.63C79.0266 69.5733 78.8679 69.545 78.6639 69.545H75.2299L74.9239 72.911C75.0486 72.8657 75.2073 72.826 75.3999 72.792C75.5926 72.7467 75.8136 72.7127 76.0629 72.69C76.3236 72.6673 76.5843 72.656 76.8449 72.656C77.6723 72.656 78.3976 72.792 79.0209 73.064C79.6556 73.3247 80.1429 73.7213 80.4829 74.254C80.8343 74.7867 81.0099 75.461 81.0099 76.277C81.0099 76.821 80.9306 77.3027 80.7719 77.722C80.6246 78.1413 80.4149 78.504 80.1429 78.81C79.8823 79.116 79.5649 79.371 79.1909 79.575C78.8283 79.779 78.4316 79.9263 78.0009 80.017C77.5816 80.119 77.1509 80.17 76.7089 80.17ZM86.8 80.17C85.8027 80.17 85.0037 79.9093 84.403 79.388C83.8024 78.8667 83.366 78.1357 83.094 77.195C82.822 76.2543 82.686 75.155 82.686 73.897C82.686 72.639 82.822 71.5453 83.094 70.616C83.366 69.6867 83.8024 68.967 84.403 68.457C85.0037 67.947 85.8084 67.692 86.817 67.692C87.769 67.692 88.5397 67.947 89.129 68.457C89.7297 68.967 90.1717 69.6923 90.455 70.633C90.7497 71.5623 90.897 72.656 90.897 73.914C90.897 75.172 90.7497 76.2713 90.455 77.212C90.1717 78.1413 89.7297 78.8667 89.129 79.388C88.5284 79.9093 87.752 80.17 86.8 80.17ZM86.8 79.133C87.1514 79.133 87.4404 79.0197 87.667 78.793C87.905 78.555 88.0864 78.215 88.211 77.773C88.347 77.3197 88.4434 76.77 88.5 76.124C88.5567 75.478 88.585 74.7413 88.585 73.914C88.585 73.0867 88.5567 72.3557 88.5 71.721C88.4547 71.075 88.364 70.531 88.228 70.089C88.092 69.647 87.905 69.3127 87.667 69.086C87.4404 68.848 87.157 68.729 86.817 68.729C86.4657 68.729 86.171 68.848 85.933 69.086C85.695 69.3127 85.508 69.647 85.372 70.089C85.236 70.531 85.1397 71.075 85.083 71.721C85.0264 72.3557 84.998 73.0867 84.998 73.914C84.998 74.7413 85.0264 75.478 85.083 76.124C85.1397 76.77 85.236 77.3197 85.372 77.773C85.508 78.215 85.6894 78.555 85.916 78.793C86.154 79.0197 86.4487 79.133 86.8 79.133Z" fill="black"/>
<path d="M20.544 115V114.167H21.071C21.2637 114.167 21.4393 114.144 21.598 114.099C21.7567 114.054 21.887 113.957 21.989 113.81C22.091 113.651 22.142 113.419 22.142 113.113V104.766C22.142 104.449 22.091 104.216 21.989 104.069C21.887 103.91 21.7567 103.808 21.598 103.763C21.4393 103.718 21.2637 103.695 21.071 103.695H20.544V102.862H25.049L28.143 111.651L31.135 102.862H35.555V103.695H35.028C34.8353 103.695 34.654 103.723 34.484 103.78C34.3253 103.825 34.195 103.927 34.093 104.086C34.0023 104.245 33.957 104.494 33.957 104.834V113.028C33.957 113.357 34.0023 113.606 34.093 113.776C34.195 113.935 34.3253 114.042 34.484 114.099C34.654 114.144 34.8353 114.167 35.028 114.167H35.555V115H30.455V114.167H30.591C30.829 114.167 31.0273 114.144 31.186 114.099C31.356 114.054 31.4863 113.963 31.577 113.827C31.6677 113.68 31.713 113.464 31.713 113.181V104.392L28.109 115H27.038L23.315 104.409V113.028C23.315 113.357 23.366 113.606 23.468 113.776C23.57 113.935 23.7117 114.042 23.893 114.099C24.0857 114.144 24.3067 114.167 24.556 114.167H24.641V115H20.544ZM41.1865 115.17C39.8265 115.17 38.7782 114.762 38.0415 113.946C37.3162 113.119 36.9535 111.968 36.9535 110.495C36.9535 108.908 37.3048 107.713 38.0075 106.908C38.7215 106.092 39.7188 105.684 40.9995 105.684C42.1895 105.684 43.1188 106.03 43.7875 106.721C44.4675 107.401 44.8075 108.415 44.8075 109.764V110.597H39.1975C39.2202 111.39 39.3222 112.036 39.5035 112.535C39.6962 113.022 39.9625 113.385 40.3025 113.623C40.6538 113.861 41.0788 113.98 41.5775 113.98C41.9742 113.98 42.3255 113.923 42.6315 113.81C42.9488 113.685 43.2208 113.527 43.4475 113.334C43.6742 113.13 43.8555 112.909 43.9915 112.671C44.1162 112.728 44.2125 112.824 44.2805 112.96C44.3598 113.085 44.3995 113.232 44.3995 113.402C44.3995 113.685 44.2805 113.963 44.0425 114.235C43.8158 114.507 43.4645 114.734 42.9885 114.915C42.5238 115.085 41.9232 115.17 41.1865 115.17ZM42.5465 109.577C42.5465 108.999 42.4955 108.495 42.3935 108.064C42.2915 107.633 42.1272 107.305 41.9005 107.078C41.6852 106.84 41.3905 106.721 41.0165 106.721C40.6538 106.721 40.3422 106.829 40.0815 107.044C39.8322 107.259 39.6338 107.582 39.4865 108.013C39.3505 108.432 39.2655 108.954 39.2315 109.577H42.5465ZM49.0174 115.17C48.5187 115.17 48.0654 115.074 47.6574 114.881C47.2607 114.677 46.9434 114.371 46.7054 113.963C46.4787 113.555 46.3654 113.039 46.3654 112.416C46.3654 111.509 46.6827 110.835 47.3174 110.393C47.9521 109.951 48.9097 109.707 50.1904 109.662L51.6014 109.611V108.642C51.6014 108.257 51.5731 107.917 51.5164 107.622C51.4597 107.316 51.3407 107.078 51.1594 106.908C50.9894 106.738 50.7174 106.653 50.3434 106.653C50.0034 106.653 49.7371 106.732 49.5444 106.891C49.3517 107.05 49.2214 107.271 49.1534 107.554C49.0854 107.826 49.0514 108.138 49.0514 108.489C48.3941 108.489 47.9011 108.41 47.5724 108.251C47.2437 108.081 47.0794 107.792 47.0794 107.384C47.0794 106.976 47.2267 106.647 47.5214 106.398C47.8274 106.149 48.2354 105.967 48.7454 105.854C49.2554 105.741 49.8107 105.684 50.4114 105.684C51.5447 105.684 52.3947 105.905 52.9614 106.347C53.5281 106.778 53.8114 107.526 53.8114 108.591V112.96C53.8114 113.266 53.8397 113.51 53.8964 113.691C53.9644 113.861 54.0777 113.986 54.2364 114.065C54.3951 114.133 54.5991 114.167 54.8484 114.167H54.8994V115H52.0774L51.7374 113.725H51.6014C51.3521 114.031 51.1141 114.292 50.8874 114.507C50.6721 114.722 50.4171 114.887 50.1224 115C49.8391 115.113 49.4707 115.17 49.0174 115.17ZM49.7484 113.997C50.1337 113.997 50.4624 113.906 50.7344 113.725C51.0064 113.544 51.2161 113.283 51.3634 112.943C51.5221 112.603 51.6014 112.206 51.6014 111.753V110.444L50.7174 110.495C50.1847 110.518 49.7654 110.608 49.4594 110.767C49.1647 110.926 48.9494 111.147 48.8134 111.43C48.6887 111.713 48.6264 112.065 48.6264 112.484C48.6264 112.824 48.6661 113.107 48.7454 113.334C48.8247 113.549 48.9494 113.714 49.1194 113.827C49.2894 113.94 49.4991 113.997 49.7484 113.997ZM59.8117 115.17C59.0751 115.17 58.4461 115.006 57.9247 114.677C57.4147 114.348 57.0237 113.838 56.7517 113.147C56.4797 112.444 56.3437 111.549 56.3437 110.461C56.3437 109.362 56.4741 108.461 56.7347 107.758C57.0067 107.055 57.3977 106.54 57.9077 106.211C58.4291 105.871 59.0581 105.701 59.7947 105.701C60.4407 105.701 60.9677 105.831 61.3757 106.092C61.7837 106.353 62.1124 106.693 62.3617 107.112H62.4637C62.4411 106.908 62.4184 106.687 62.3957 106.449C62.3844 106.211 62.3731 105.973 62.3617 105.735C62.3504 105.497 62.3447 105.287 62.3447 105.106V104.001C62.3447 103.672 62.2824 103.434 62.1577 103.287C62.0331 103.128 61.8631 103.026 61.6477 102.981C61.4437 102.936 61.2171 102.913 60.9677 102.913H60.8317V102.08H64.5547V112.994C64.5547 113.334 64.6171 113.589 64.7417 113.759C64.8777 113.929 65.0477 114.042 65.2517 114.099C65.4671 114.144 65.7051 114.167 65.9657 114.167H66.0507V115H62.9227L62.5487 113.589H62.4297C62.1804 114.076 61.8517 114.462 61.4437 114.745C61.0357 115.028 60.4917 115.17 59.8117 115.17ZM60.3897 113.963C61.1377 113.963 61.6477 113.674 61.9197 113.096C62.2031 112.518 62.3447 111.634 62.3447 110.444C62.3447 109.673 62.2824 109.027 62.1577 108.506C62.0444 107.973 61.8461 107.571 61.5627 107.299C61.2794 107.027 60.8827 106.891 60.3727 106.891C59.9534 106.891 59.6134 107.033 59.3527 107.316C59.0921 107.588 58.8994 107.99 58.7747 108.523C58.6614 109.044 58.6047 109.69 58.6047 110.461C58.6047 111.243 58.6614 111.895 58.7747 112.416C58.8994 112.926 59.0921 113.311 59.3527 113.572C59.6134 113.833 59.9591 113.963 60.3897 113.963ZM66.6414 115V114.167H66.8624C67.055 114.167 67.2477 114.144 67.4404 114.099C67.6444 114.042 67.8087 113.935 67.9334 113.776C68.0694 113.617 68.1374 113.379 68.1374 113.062V107.792C68.1374 107.475 68.0694 107.242 67.9334 107.095C67.7974 106.936 67.633 106.834 67.4404 106.789C67.2477 106.744 67.055 106.721 66.8624 106.721H66.7094V105.888H70.3474V113.028C70.3474 113.357 70.4097 113.606 70.5344 113.776C70.659 113.935 70.8234 114.042 71.0274 114.099C71.2314 114.144 71.4297 114.167 71.6224 114.167H71.8264V115H66.6414ZM69.1574 104.29C68.806 104.29 68.5057 104.199 68.2564 104.018C68.0184 103.837 67.8994 103.542 67.8994 103.134C67.8994 102.715 68.0184 102.42 68.2564 102.25C68.5057 102.069 68.8117 101.978 69.1744 101.978C69.5144 101.978 69.809 102.069 70.0584 102.25C70.3077 102.42 70.4324 102.715 70.4324 103.134C70.4324 103.542 70.3077 103.837 70.0584 104.018C69.809 104.199 69.5087 104.29 69.1574 104.29ZM76.5837 115.17C75.6884 115.17 75.0027 114.904 74.5267 114.371C74.0507 113.827 73.8127 112.977 73.8127 111.821V107.911C73.8127 107.571 73.7617 107.316 73.6597 107.146C73.5577 106.976 73.4104 106.863 73.2177 106.806C73.0364 106.749 72.8154 106.721 72.5547 106.721H72.5207V105.888H76.0227V111.481C76.0227 111.98 76.0624 112.405 76.1417 112.756C76.2324 113.107 76.3854 113.379 76.6007 113.572C76.816 113.765 77.1107 113.861 77.4847 113.861C77.904 113.861 78.244 113.753 78.5047 113.538C78.7654 113.311 78.958 113 79.0827 112.603C79.2074 112.206 79.2697 111.742 79.2697 111.209V107.86C79.2697 107.52 79.2074 107.271 79.0827 107.112C78.9694 106.953 78.8164 106.851 78.6237 106.806C78.431 106.749 78.2157 106.721 77.9777 106.721H77.9267V105.888H81.4797V113.079C81.4797 113.408 81.5307 113.651 81.6327 113.81C81.746 113.957 81.899 114.054 82.0917 114.099C82.2844 114.144 82.494 114.167 82.7207 114.167H82.8227V115H79.6947L79.3717 113.725H79.2867C79.1167 114.031 78.9297 114.28 78.7257 114.473C78.5217 114.654 78.3064 114.796 78.0797 114.898C77.853 115 77.615 115.068 77.3657 115.102C77.1164 115.147 76.8557 115.17 76.5837 115.17ZM83.6264 115V114.167H83.7284C83.989 114.167 84.2157 114.139 84.4084 114.082C84.6124 114.025 84.771 113.912 84.8844 113.742C84.9977 113.572 85.0544 113.317 85.0544 112.977V107.809C85.0544 107.48 84.9977 107.237 84.8844 107.078C84.7824 106.919 84.635 106.817 84.4424 106.772C84.261 106.715 84.0457 106.687 83.7964 106.687H83.7454V105.888H86.9754L87.1964 107.163H87.2814C87.508 106.732 87.7517 106.415 88.0124 106.211C88.273 105.996 88.5564 105.854 88.8624 105.786C89.1797 105.718 89.514 105.684 89.8654 105.684C90.262 105.684 90.6247 105.735 90.9534 105.837C91.282 105.939 91.571 106.098 91.8204 106.313C92.0697 106.517 92.2624 106.8 92.3984 107.163H92.5344C92.761 106.732 93.016 106.415 93.2994 106.211C93.5827 105.996 93.883 105.854 94.2004 105.786C94.529 105.718 94.8747 105.684 95.2374 105.684C96.11 105.684 96.79 105.945 97.2774 106.466C97.776 106.987 98.0254 107.826 98.0254 108.982V112.96C98.0254 113.311 98.0707 113.572 98.1614 113.742C98.2634 113.912 98.405 114.025 98.5864 114.082C98.7677 114.139 98.983 114.167 99.2324 114.167H99.2834V115H95.8154V109.305C95.8154 108.568 95.702 108.002 95.4754 107.605C95.2487 107.197 94.8577 106.993 94.3024 106.993C93.9057 106.993 93.5827 107.106 93.3334 107.333C93.0954 107.56 92.9197 107.86 92.8064 108.234C92.7044 108.608 92.6534 109.016 92.6534 109.458V112.96C92.6534 113.3 92.6987 113.561 92.7894 113.742C92.8914 113.912 93.033 114.025 93.2144 114.082C93.3957 114.139 93.611 114.167 93.8604 114.167H93.9114V115H90.4434V109.305C90.4434 108.568 90.33 108.002 90.1034 107.605C89.8767 107.197 89.4857 106.993 88.9304 106.993C88.511 106.993 88.1767 107.118 87.9274 107.367C87.6894 107.616 87.5194 107.945 87.4174 108.353C87.3154 108.761 87.2644 109.203 87.2644 109.679V113.045C87.2644 113.374 87.321 113.617 87.4344 113.776C87.5477 113.935 87.7007 114.042 87.8934 114.099C88.086 114.144 88.307 114.167 88.5564 114.167H88.6074V115H83.6264ZM106.67 108.319C106.318 108.319 106.018 108.228 105.769 108.047C105.519 107.854 105.395 107.52 105.395 107.044C105.395 106.557 105.519 106.222 105.769 106.041C106.018 105.86 106.318 105.769 106.67 105.769C107.01 105.769 107.304 105.86 107.554 106.041C107.814 106.222 107.945 106.557 107.945 107.044C107.945 107.52 107.814 107.854 107.554 108.047C107.304 108.228 107.01 108.319 106.67 108.319ZM106.67 115.136C106.318 115.136 106.018 115.04 105.769 114.847C105.519 114.654 105.395 114.32 105.395 113.844C105.395 113.357 105.519 113.022 105.769 112.841C106.018 112.66 106.318 112.569 106.67 112.569C107.01 112.569 107.304 112.66 107.554 112.841C107.814 113.022 107.945 113.357 107.945 113.844C107.945 114.331 107.814 114.671 107.554 114.864C107.304 115.045 107.01 115.136 106.67 115.136ZM115.249 115V114.167H116.541C116.756 114.167 116.943 114.139 117.102 114.082C117.26 114.014 117.379 113.901 117.459 113.742C117.549 113.572 117.595 113.334 117.595 113.028V104.341C117.311 104.692 117.045 105.004 116.796 105.276C116.546 105.537 116.308 105.741 116.082 105.888C115.855 106.035 115.628 106.109 115.402 106.109C115.141 106.109 114.92 106.007 114.739 105.803C114.557 105.599 114.467 105.327 114.467 104.987C114.693 104.93 114.931 104.857 115.181 104.766C115.441 104.664 115.719 104.528 116.014 104.358C116.32 104.177 116.66 103.95 117.034 103.678L118.224 102.794H119.822V113.028C119.822 113.3 119.856 113.521 119.924 113.691C120.003 113.861 120.122 113.986 120.281 114.065C120.439 114.133 120.643 114.167 120.893 114.167H122.049V115H115.249ZM127.856 115.17C126.858 115.17 126.059 114.909 125.459 114.388C124.858 113.867 124.422 113.136 124.15 112.195C123.878 111.254 123.742 110.155 123.742 108.897C123.742 107.639 123.878 106.545 124.15 105.616C124.422 104.687 124.858 103.967 125.459 103.457C126.059 102.947 126.864 102.692 127.873 102.692C128.825 102.692 129.595 102.947 130.185 103.457C130.785 103.967 131.227 104.692 131.511 105.633C131.805 106.562 131.953 107.656 131.953 108.914C131.953 110.172 131.805 111.271 131.511 112.212C131.227 113.141 130.785 113.867 130.185 114.388C129.584 114.909 128.808 115.17 127.856 115.17ZM127.856 114.133C128.207 114.133 128.496 114.02 128.723 113.793C128.961 113.555 129.142 113.215 129.267 112.773C129.403 112.32 129.499 111.77 129.556 111.124C129.612 110.478 129.641 109.741 129.641 108.914C129.641 108.087 129.612 107.356 129.556 106.721C129.51 106.075 129.42 105.531 129.284 105.089C129.148 104.647 128.961 104.313 128.723 104.086C128.496 103.848 128.213 103.729 127.873 103.729C127.521 103.729 127.227 103.848 126.989 104.086C126.751 104.313 126.564 104.647 126.428 105.089C126.292 105.531 126.195 106.075 126.139 106.721C126.082 107.356 126.054 108.087 126.054 108.914C126.054 109.741 126.082 110.478 126.139 111.124C126.195 111.77 126.292 112.32 126.428 112.773C126.564 113.215 126.745 113.555 126.972 113.793C127.21 114.02 127.504 114.133 127.856 114.133ZM137.352 115.17C136.354 115.17 135.555 114.909 134.955 114.388C134.354 113.867 133.918 113.136 133.646 112.195C133.374 111.254 133.238 110.155 133.238 108.897C133.238 107.639 133.374 106.545 133.646 105.616C133.918 104.687 134.354 103.967 134.955 103.457C135.555 102.947 136.36 102.692 137.369 102.692C138.321 102.692 139.091 102.947 139.681 103.457C140.281 103.967 140.723 104.692 141.007 105.633C141.301 106.562 141.449 107.656 141.449 108.914C141.449 110.172 141.301 111.271 141.007 112.212C140.723 113.141 140.281 113.867 139.681 114.388C139.08 114.909 138.304 115.17 137.352 115.17ZM137.352 114.133C137.703 114.133 137.992 114.02 138.219 113.793C138.457 113.555 138.638 113.215 138.763 112.773C138.899 112.32 138.995 111.77 139.052 111.124C139.108 110.478 139.137 109.741 139.137 108.914C139.137 108.087 139.108 107.356 139.052 106.721C139.006 106.075 138.916 105.531 138.78 105.089C138.644 104.647 138.457 104.313 138.219 104.086C137.992 103.848 137.709 103.729 137.369 103.729C137.017 103.729 136.723 103.848 136.485 104.086C136.247 104.313 136.06 104.647 135.924 105.089C135.788 105.531 135.691 106.075 135.635 106.721C135.578 107.356 135.55 108.087 135.55 108.914C135.55 109.741 135.578 110.478 135.635 111.124C135.691 111.77 135.788 112.32 135.924 112.773C136.06 113.215 136.241 113.555 136.468 113.793C136.706 114.02 137 114.133 137.352 114.133Z" fill="black"/>
<path d="M20.544 148V147.167H21.071C21.2637 147.167 21.4393 147.144 21.598 147.099C21.768 147.042 21.8983 146.935 21.989 146.776C22.091 146.606 22.142 146.357 22.142 146.028V137.766C22.142 137.449 22.091 137.216 21.989 137.069C21.887 136.91 21.7567 136.808 21.598 136.763C21.4393 136.718 21.2637 136.695 21.071 136.695H20.544V135.862H26.052V136.695H25.525C25.3323 136.695 25.151 136.723 24.981 136.78C24.8223 136.825 24.692 136.927 24.59 137.086C24.4993 137.245 24.454 137.494 24.454 137.834V141.183H29.299V137.834C29.299 137.494 29.248 137.245 29.146 137.086C29.0553 136.927 28.9307 136.825 28.772 136.78C28.6133 136.723 28.432 136.695 28.228 136.695H27.701V135.862H33.209V136.695H32.682C32.5007 136.695 32.325 136.723 32.155 136.78C31.985 136.825 31.8547 136.927 31.764 137.086C31.6733 137.245 31.628 137.494 31.628 137.834V146.113C31.628 146.419 31.6733 146.651 31.764 146.81C31.866 146.957 31.9963 147.054 32.155 147.099C32.325 147.144 32.5007 147.167 32.682 147.167H33.209V148H27.701V147.167H28.228C28.432 147.167 28.6133 147.144 28.772 147.099C28.9307 147.042 29.0553 146.935 29.146 146.776C29.248 146.606 29.299 146.357 29.299 146.028V142.152H24.454V146.028C24.454 146.357 24.4993 146.606 24.59 146.776C24.692 146.935 24.8223 147.042 24.981 147.099C25.151 147.144 25.3323 147.167 25.525 147.167H26.052V148H20.544ZM37.1971 148.17C36.6984 148.17 36.2451 148.074 35.8371 147.881C35.4404 147.677 35.1231 147.371 34.8851 146.963C34.6584 146.555 34.5451 146.039 34.5451 145.416C34.5451 144.509 34.8624 143.835 35.4971 143.393C36.1318 142.951 37.0894 142.707 38.3701 142.662L39.7811 142.611V141.642C39.7811 141.257 39.7528 140.917 39.6961 140.622C39.6394 140.316 39.5204 140.078 39.3391 139.908C39.1691 139.738 38.8971 139.653 38.5231 139.653C38.1831 139.653 37.9168 139.732 37.7241 139.891C37.5314 140.05 37.4011 140.271 37.3331 140.554C37.2651 140.826 37.2311 141.138 37.2311 141.489C36.5738 141.489 36.0808 141.41 35.7521 141.251C35.4234 141.081 35.2591 140.792 35.2591 140.384C35.2591 139.976 35.4064 139.647 35.7011 139.398C36.0071 139.149 36.4151 138.967 36.9251 138.854C37.4351 138.741 37.9904 138.684 38.5911 138.684C39.7244 138.684 40.5744 138.905 41.1411 139.347C41.7078 139.778 41.9911 140.526 41.9911 141.591V145.96C41.9911 146.266 42.0194 146.51 42.0761 146.691C42.1441 146.861 42.2574 146.986 42.4161 147.065C42.5748 147.133 42.7788 147.167 43.0281 147.167H43.0791V148H40.2571L39.9171 146.725H39.7811C39.5318 147.031 39.2938 147.292 39.0671 147.507C38.8518 147.722 38.5968 147.887 38.3021 148C38.0188 148.113 37.6504 148.17 37.1971 148.17ZM37.9281 146.997C38.3134 146.997 38.6421 146.906 38.9141 146.725C39.1861 146.544 39.3958 146.283 39.5431 145.943C39.7018 145.603 39.7811 145.206 39.7811 144.753V143.444L38.8971 143.495C38.3644 143.518 37.9451 143.608 37.6391 143.767C37.3444 143.926 37.1291 144.147 36.9931 144.43C36.8684 144.713 36.8061 145.065 36.8061 145.484C36.8061 145.824 36.8458 146.107 36.9251 146.334C37.0044 146.549 37.1291 146.714 37.2991 146.827C37.4691 146.94 37.6788 146.997 37.9281 146.997ZM44.1154 148V147.167H44.1664C44.4271 147.167 44.6538 147.139 44.8464 147.082C45.0504 147.025 45.2091 146.912 45.3224 146.742C45.4471 146.561 45.5094 146.294 45.5094 145.943V140.877C45.5094 140.537 45.4528 140.288 45.3394 140.129C45.2261 139.959 45.0731 139.851 44.8804 139.806C44.6878 139.749 44.4668 139.721 44.2174 139.721H44.1664V138.888H47.2944L47.6174 140.35H47.7024C47.8498 140.01 48.0141 139.715 48.1954 139.466C48.3881 139.217 48.6318 139.03 48.9264 138.905C49.2211 138.769 49.6064 138.701 50.0824 138.701C50.7284 138.701 51.2044 138.814 51.5104 139.041C51.8278 139.268 51.9864 139.596 51.9864 140.027C51.9864 140.48 51.8221 140.843 51.4934 141.115C51.1648 141.376 50.6831 141.506 50.0484 141.506C50.0484 141.189 50.0201 140.934 49.9634 140.741C49.9181 140.537 49.8331 140.384 49.7084 140.282C49.5838 140.18 49.4138 140.129 49.1984 140.129C48.8924 140.129 48.6431 140.242 48.4504 140.469C48.2578 140.684 48.1048 140.956 47.9914 141.285C47.8894 141.614 47.8158 141.954 47.7704 142.305C47.7364 142.656 47.7194 142.951 47.7194 143.189V146.028C47.7194 146.357 47.7761 146.606 47.8894 146.776C48.0028 146.935 48.1558 147.042 48.3484 147.099C48.5411 147.144 48.7508 147.167 48.9774 147.167H49.5044V148H44.1154ZM56.5412 148.17C55.8046 148.17 55.1756 148.006 54.6542 147.677C54.1442 147.348 53.7532 146.838 53.4812 146.147C53.2092 145.444 53.0732 144.549 53.0732 143.461C53.0732 142.362 53.2036 141.461 53.4642 140.758C53.7362 140.055 54.1272 139.54 54.6372 139.211C55.1586 138.871 55.7876 138.701 56.5242 138.701C57.1702 138.701 57.6972 138.831 58.1052 139.092C58.5132 139.353 58.8419 139.693 59.0912 140.112H59.1932C59.1706 139.908 59.1479 139.687 59.1252 139.449C59.1139 139.211 59.1026 138.973 59.0912 138.735C59.0799 138.497 59.0742 138.287 59.0742 138.106V137.001C59.0742 136.672 59.0119 136.434 58.8872 136.287C58.7626 136.128 58.5926 136.026 58.3772 135.981C58.1732 135.936 57.9466 135.913 57.6972 135.913H57.5612V135.08H61.2842V145.994C61.2842 146.334 61.3466 146.589 61.4712 146.759C61.6072 146.929 61.7772 147.042 61.9812 147.099C62.1966 147.144 62.4346 147.167 62.6952 147.167H62.7802V148H59.6522L59.2782 146.589H59.1592C58.9099 147.076 58.5812 147.462 58.1732 147.745C57.7652 148.028 57.2212 148.17 56.5412 148.17ZM57.1192 146.963C57.8672 146.963 58.3772 146.674 58.6492 146.096C58.9326 145.518 59.0742 144.634 59.0742 143.444C59.0742 142.673 59.0119 142.027 58.8872 141.506C58.7739 140.973 58.5756 140.571 58.2922 140.299C58.0089 140.027 57.6122 139.891 57.1022 139.891C56.6829 139.891 56.3429 140.033 56.0822 140.316C55.8216 140.588 55.6289 140.99 55.5042 141.523C55.3909 142.044 55.3342 142.69 55.3342 143.461C55.3342 144.243 55.3909 144.895 55.5042 145.416C55.6289 145.926 55.8216 146.311 56.0822 146.572C56.3429 146.833 56.6886 146.963 57.1192 146.963ZM69.9969 141.319C69.6455 141.319 69.3452 141.228 69.0959 141.047C68.8465 140.854 68.7219 140.52 68.7219 140.044C68.7219 139.557 68.8465 139.222 69.0959 139.041C69.3452 138.86 69.6455 138.769 69.9969 138.769C70.3369 138.769 70.6315 138.86 70.8809 139.041C71.1415 139.222 71.2719 139.557 71.2719 140.044C71.2719 140.52 71.1415 140.854 70.8809 141.047C70.6315 141.228 70.3369 141.319 69.9969 141.319ZM69.9969 148.136C69.6455 148.136 69.3452 148.04 69.0959 147.847C68.8465 147.654 68.7219 147.32 68.7219 146.844C68.7219 146.357 68.8465 146.022 69.0959 145.841C69.3452 145.66 69.6455 145.569 69.9969 145.569C70.3369 145.569 70.6315 145.66 70.8809 145.841C71.1415 146.022 71.2719 146.357 71.2719 146.844C71.2719 147.331 71.1415 147.671 70.8809 147.864C70.6315 148.045 70.3369 148.136 69.9969 148.136ZM81.0918 148.17C80.2418 148.17 79.5674 148.074 79.0688 147.881C78.5814 147.688 78.2301 147.445 78.0148 147.15C77.8108 146.855 77.7088 146.555 77.7088 146.249C77.7088 145.875 77.8164 145.597 78.0318 145.416C78.2584 145.223 78.5644 145.127 78.9498 145.127C78.9498 145.444 79.0178 145.756 79.1538 146.062C79.2898 146.357 79.4994 146.595 79.7828 146.776C80.0661 146.957 80.4344 147.048 80.8878 147.048C81.2958 147.048 81.6698 146.963 82.0098 146.793C82.3498 146.623 82.6161 146.34 82.8088 145.943C83.0128 145.535 83.1148 144.98 83.1148 144.277C83.1148 143.699 83.0184 143.217 82.8258 142.832C82.6331 142.447 82.3554 142.163 81.9928 141.982C81.6301 141.801 81.1994 141.71 80.7008 141.71C80.3834 141.71 80.1058 141.727 79.8678 141.761C79.6298 141.784 79.4201 141.823 79.2388 141.88C79.0688 141.925 78.8988 141.976 78.7288 142.033L78.0998 141.795L78.6438 135.862H84.7808L84.8658 138.752H83.9988L83.8798 138.208C83.8571 138.061 83.8174 137.942 83.7608 137.851C83.7154 137.749 83.6361 137.675 83.5228 137.63C83.4094 137.573 83.2508 137.545 83.0468 137.545H79.6128L79.3068 140.911C79.4314 140.866 79.5901 140.826 79.7828 140.792C79.9754 140.747 80.1964 140.713 80.4458 140.69C80.7064 140.667 80.9671 140.656 81.2278 140.656C82.0551 140.656 82.7804 140.792 83.4038 141.064C84.0384 141.325 84.5258 141.721 84.8658 142.254C85.2171 142.787 85.3928 143.461 85.3928 144.277C85.3928 144.821 85.3134 145.303 85.1548 145.722C85.0074 146.141 84.7978 146.504 84.5258 146.81C84.2651 147.116 83.9478 147.371 83.5738 147.575C83.2111 147.779 82.8144 147.926 82.3838 148.017C81.9644 148.119 81.5338 148.17 81.0918 148.17ZM91.1829 148.17C90.1855 148.17 89.3865 147.909 88.7859 147.388C88.1852 146.867 87.7489 146.136 87.4769 145.195C87.2049 144.254 87.0689 143.155 87.0689 141.897C87.0689 140.639 87.2049 139.545 87.4769 138.616C87.7489 137.687 88.1852 136.967 88.7859 136.457C89.3865 135.947 90.1912 135.692 91.1999 135.692C92.1519 135.692 92.9225 135.947 93.5119 136.457C94.1125 136.967 94.5545 137.692 94.8379 138.633C95.1325 139.562 95.2799 140.656 95.2799 141.914C95.2799 143.172 95.1325 144.271 94.8379 145.212C94.5545 146.141 94.1125 146.867 93.5119 147.388C92.9112 147.909 92.1349 148.17 91.1829 148.17ZM91.1829 147.133C91.5342 147.133 91.8232 147.02 92.0499 146.793C92.2879 146.555 92.4692 146.215 92.5939 145.773C92.7299 145.32 92.8262 144.77 92.8829 144.124C92.9395 143.478 92.9679 142.741 92.9679 141.914C92.9679 141.087 92.9395 140.356 92.8829 139.721C92.8375 139.075 92.7469 138.531 92.6109 138.089C92.4749 137.647 92.2879 137.313 92.0499 137.086C91.8232 136.848 91.5399 136.729 91.1999 136.729C90.8485 136.729 90.5539 136.848 90.3159 137.086C90.0779 137.313 89.8909 137.647 89.7549 138.089C89.6189 138.531 89.5225 139.075 89.4659 139.721C89.4092 140.356 89.3809 141.087 89.3809 141.914C89.3809 142.741 89.4092 143.478 89.4659 144.124C89.5225 144.77 89.6189 145.32 89.7549 145.773C89.8909 146.215 90.0722 146.555 90.2989 146.793C90.5369 147.02 90.8315 147.133 91.1829 147.133Z" fill="black"/>
<path d="M92.1724 26V25.167H92.6994C92.9034 25.167 93.0848 25.1443 93.2434 25.099C93.4021 25.0423 93.5268 24.9347 93.6174 24.776C93.7194 24.606 93.7704 24.3567 93.7704 24.028V15.834C93.7704 15.494 93.7194 15.2447 93.6174 15.086C93.5268 14.9273 93.4021 14.8253 93.2434 14.78C93.0848 14.7233 92.9034 14.695 92.6994 14.695H92.1724V13.862H97.6804V14.695H97.1534C96.9608 14.695 96.7851 14.7177 96.6264 14.763C96.4678 14.8083 96.3374 14.9103 96.2354 15.069C96.1448 15.2163 96.0994 15.4487 96.0994 15.766V25.031H99.3294C99.6128 25.031 99.8508 24.9687 100.043 24.844C100.247 24.7193 100.406 24.5437 100.519 24.317C100.633 24.079 100.718 23.8183 100.774 23.535L100.995 22.26H101.93L101.811 26H92.1724ZM107.619 26.17C106.259 26.17 105.21 25.762 104.474 24.946C103.748 24.1187 103.386 22.9683 103.386 21.495C103.386 19.9083 103.737 18.7127 104.44 17.908C105.154 17.092 106.151 16.684 107.432 16.684C108.622 16.684 109.551 17.0297 110.22 17.721C110.9 18.401 111.24 19.4153 111.24 20.764V21.597H105.63C105.652 22.3903 105.754 23.0363 105.936 23.535C106.128 24.0223 106.395 24.385 106.735 24.623C107.086 24.861 107.511 24.98 108.01 24.98C108.406 24.98 108.758 24.9233 109.064 24.81C109.381 24.6853 109.653 24.5267 109.88 24.334C110.106 24.13 110.288 23.909 110.424 23.671C110.548 23.7277 110.645 23.824 110.713 23.96C110.792 24.0847 110.832 24.232 110.832 24.402C110.832 24.6853 110.713 24.963 110.475 25.235C110.248 25.507 109.897 25.7337 109.421 25.915C108.956 26.085 108.355 26.17 107.619 26.17ZM108.979 20.577C108.979 19.999 108.928 19.4947 108.826 19.064C108.724 18.6333 108.559 18.3047 108.333 18.078C108.117 17.84 107.823 17.721 107.449 17.721C107.086 17.721 106.774 17.8287 106.514 18.044C106.264 18.2593 106.066 18.5823 105.919 19.013C105.783 19.4323 105.698 19.9537 105.664 20.577H108.979ZM117.082 26.17C115.722 26.17 114.673 25.762 113.937 24.946C113.211 24.1187 112.849 22.9683 112.849 21.495C112.849 19.9083 113.2 18.7127 113.903 17.908C114.617 17.092 115.614 16.684 116.895 16.684C118.085 16.684 119.014 17.0297 119.683 17.721C120.363 18.401 120.703 19.4153 120.703 20.764V21.597H115.093C115.115 22.3903 115.217 23.0363 115.399 23.535C115.591 24.0223 115.858 24.385 116.198 24.623C116.549 24.861 116.974 24.98 117.473 24.98C117.869 24.98 118.221 24.9233 118.527 24.81C118.844 24.6853 119.116 24.5267 119.343 24.334C119.569 24.13 119.751 23.909 119.887 23.671C120.011 23.7277 120.108 23.824 120.176 23.96C120.255 24.0847 120.295 24.232 120.295 24.402C120.295 24.6853 120.176 24.963 119.938 25.235C119.711 25.507 119.36 25.7337 118.884 25.915C118.419 26.085 117.818 26.17 117.082 26.17ZM118.442 20.577C118.442 19.999 118.391 19.4947 118.289 19.064C118.187 18.6333 118.022 18.3047 117.796 18.078C117.58 17.84 117.286 17.721 116.912 17.721C116.549 17.721 116.237 17.8287 115.977 18.044C115.727 18.2593 115.529 18.5823 115.382 19.013C115.246 19.4323 115.161 19.9537 115.127 20.577H118.442ZM125.575 26.17C124.771 26.17 124.153 25.9717 123.722 25.575C123.303 25.1783 123.093 24.487 123.093 23.501V17.976H121.801V17.177C122.107 17.177 122.396 17.1147 122.668 16.99C122.94 16.8653 123.167 16.7123 123.348 16.531C123.518 16.3383 123.671 16.1003 123.807 15.817C123.943 15.5337 124.051 15.188 124.13 14.78H125.303V16.888H127.496V17.976H125.303V23.416C125.303 23.9487 125.4 24.3453 125.592 24.606C125.796 24.8553 126.091 24.98 126.476 24.98C126.703 24.98 126.907 24.9687 127.088 24.946C127.281 24.912 127.468 24.8723 127.649 24.827V25.796C127.479 25.8753 127.207 25.9547 126.833 26.034C126.471 26.1247 126.051 26.17 125.575 26.17ZM132.932 26.17C132.139 26.17 131.436 26.017 130.824 25.711C130.212 25.405 129.731 24.912 129.379 24.232C129.028 23.5407 128.852 22.6227 128.852 21.478C128.852 20.2653 129.028 19.3133 129.379 18.622C129.742 17.9193 130.224 17.4207 130.824 17.126C131.436 16.8313 132.122 16.684 132.881 16.684C133.516 16.684 134.071 16.7577 134.547 16.905C135.035 17.0523 135.414 17.2563 135.686 17.517C135.958 17.7777 136.094 18.0893 136.094 18.452C136.094 18.7013 136.032 18.928 135.907 19.132C135.794 19.3247 135.596 19.4777 135.312 19.591C135.029 19.7043 134.644 19.761 134.156 19.761C134.156 19.3757 134.117 19.0243 134.037 18.707C133.969 18.3897 133.845 18.1347 133.663 17.942C133.493 17.7493 133.244 17.653 132.915 17.653C132.553 17.653 132.23 17.7663 131.946 17.993C131.674 18.2083 131.465 18.5937 131.317 19.149C131.17 19.7043 131.096 20.475 131.096 21.461C131.096 22.243 131.176 22.8947 131.334 23.416C131.493 23.926 131.731 24.3113 132.048 24.572C132.377 24.8327 132.808 24.963 133.34 24.963C133.714 24.963 134.054 24.9063 134.36 24.793C134.678 24.6797 134.95 24.5267 135.176 24.334C135.414 24.13 135.596 23.9033 135.72 23.654C135.834 23.7333 135.919 23.8353 135.975 23.96C136.043 24.0847 136.077 24.2263 136.077 24.385C136.077 24.6683 135.964 24.946 135.737 25.218C135.511 25.49 135.165 25.7167 134.7 25.898C134.247 26.0793 133.658 26.17 132.932 26.17ZM141.801 26.17C140.498 26.17 139.466 25.779 138.707 24.997C137.959 24.215 137.585 23.0193 137.585 21.41C137.585 19.8233 137.942 18.639 138.656 17.857C139.381 17.075 140.447 16.684 141.852 16.684C143.167 16.684 144.198 17.075 144.946 17.857C145.694 18.639 146.068 19.8233 146.068 21.41C146.068 23.0193 145.705 24.215 144.98 24.997C144.266 25.779 143.206 26.17 141.801 26.17ZM141.835 25.167C142.322 25.167 142.708 25.031 142.991 24.759C143.286 24.4757 143.495 24.0507 143.62 23.484C143.745 22.9173 143.807 22.226 143.807 21.41C143.807 20.5827 143.739 19.897 143.603 19.353C143.478 18.809 143.269 18.401 142.974 18.129C142.691 17.8457 142.305 17.704 141.818 17.704C141.342 17.704 140.957 17.8457 140.662 18.129C140.367 18.401 140.158 18.809 140.033 19.353C139.908 19.897 139.846 20.5827 139.846 21.41C139.846 22.2373 139.908 22.9287 140.033 23.484C140.169 24.0393 140.379 24.4587 140.662 24.742C140.957 25.0253 141.348 25.167 141.835 25.167ZM151.213 26.17C150.476 26.17 149.847 26.0057 149.326 25.677C148.816 25.3483 148.425 24.8383 148.153 24.147C147.881 23.4443 147.745 22.549 147.745 21.461C147.745 20.3617 147.875 19.4607 148.136 18.758C148.408 18.0553 148.799 17.5397 149.309 17.211C149.83 16.871 150.459 16.701 151.196 16.701C151.842 16.701 152.369 16.8313 152.777 17.092C153.185 17.3527 153.513 17.6927 153.763 18.112H153.865C153.842 17.908 153.819 17.687 153.797 17.449C153.785 17.211 153.774 16.973 153.763 16.735C153.751 16.497 153.746 16.2873 153.746 16.106V15.001C153.746 14.6723 153.683 14.4343 153.559 14.287C153.434 14.1283 153.264 14.0263 153.049 13.981C152.845 13.9357 152.618 13.913 152.369 13.913H152.233V13.08H155.956V23.994C155.956 24.334 156.018 24.589 156.143 24.759C156.279 24.929 156.449 25.0423 156.653 25.099C156.868 25.1443 157.106 25.167 157.367 25.167H157.452V26H154.324L153.95 24.589H153.831C153.581 25.0763 153.253 25.4617 152.845 25.745C152.437 26.0283 151.893 26.17 151.213 26.17ZM151.791 24.963C152.539 24.963 153.049 24.674 153.321 24.096C153.604 23.518 153.746 22.634 153.746 21.444C153.746 20.6733 153.683 20.0273 153.559 19.506C153.445 18.9733 153.247 18.571 152.964 18.299C152.68 18.027 152.284 17.891 151.774 17.891C151.354 17.891 151.014 18.0327 150.754 18.316C150.493 18.588 150.3 18.9903 150.176 19.523C150.062 20.0443 150.006 20.6903 150.006 21.461C150.006 22.243 150.062 22.8947 150.176 23.416C150.3 23.926 150.493 24.3113 150.754 24.572C151.014 24.8327 151.36 24.963 151.791 24.963ZM162.802 26.17C161.442 26.17 160.394 25.762 159.657 24.946C158.932 24.1187 158.569 22.9683 158.569 21.495C158.569 19.9083 158.921 18.7127 159.623 17.908C160.337 17.092 161.335 16.684 162.615 16.684C163.805 16.684 164.735 17.0297 165.403 17.721C166.083 18.401 166.423 19.4153 166.423 20.764V21.597H160.813C160.836 22.3903 160.938 23.0363 161.119 23.535C161.312 24.0223 161.578 24.385 161.918 24.623C162.27 24.861 162.695 24.98 163.193 24.98C163.59 24.98 163.941 24.9233 164.247 24.81C164.565 24.6853 164.837 24.5267 165.063 24.334C165.29 24.13 165.471 23.909 165.607 23.671C165.732 23.7277 165.828 23.824 165.896 23.96C165.976 24.0847 166.015 24.232 166.015 24.402C166.015 24.6853 165.896 24.963 165.658 25.235C165.432 25.507 165.08 25.7337 164.604 25.915C164.14 26.085 163.539 26.17 162.802 26.17ZM164.162 20.577C164.162 19.999 164.111 19.4947 164.009 19.064C163.907 18.6333 163.743 18.3047 163.516 18.078C163.301 17.84 163.006 17.721 162.632 17.721C162.27 17.721 161.958 17.8287 161.697 18.044C161.448 18.2593 161.25 18.5823 161.102 19.013C160.966 19.4323 160.881 19.9537 160.847 20.577H164.162ZM175.984 26.17C175.293 26.17 174.709 26.1077 174.233 25.983C173.757 25.847 173.372 25.6657 173.077 25.439C172.782 25.2123 172.567 24.9573 172.431 24.674C172.295 24.3793 172.227 24.0847 172.227 23.79C172.227 23.4613 172.301 23.195 172.448 22.991C172.595 22.7757 172.794 22.617 173.043 22.515C173.304 22.413 173.581 22.362 173.876 22.362C173.887 22.94 173.984 23.4443 174.165 23.875C174.346 24.3057 174.607 24.64 174.947 24.878C175.298 25.1047 175.718 25.218 176.205 25.218C176.908 25.218 177.452 25.0423 177.837 24.691C178.234 24.3283 178.432 23.8523 178.432 23.263C178.432 22.8663 178.336 22.5263 178.143 22.243C177.95 21.9597 177.65 21.699 177.242 21.461C176.834 21.223 176.307 20.9737 175.661 20.713C175.106 20.4863 174.624 20.2427 174.216 19.982C173.808 19.7213 173.479 19.4437 173.23 19.149C172.981 18.8543 172.794 18.5313 172.669 18.18C172.556 17.8173 172.499 17.415 172.499 16.973C172.499 16.3043 172.675 15.7263 173.026 15.239C173.377 14.7403 173.853 14.3607 174.454 14.1C175.055 13.828 175.74 13.692 176.511 13.692C177.282 13.692 177.922 13.7827 178.432 13.964C178.942 14.134 179.322 14.3663 179.571 14.661C179.832 14.9557 179.962 15.2787 179.962 15.63C179.962 16.0153 179.809 16.3327 179.503 16.582C179.197 16.82 178.744 16.939 178.143 16.939C178.143 16.6103 178.081 16.2703 177.956 15.919C177.843 15.5677 177.65 15.273 177.378 15.035C177.117 14.7857 176.76 14.661 176.307 14.661C175.956 14.661 175.638 14.729 175.355 14.865C175.083 14.9897 174.868 15.1823 174.709 15.443C174.55 15.6923 174.471 15.9983 174.471 16.361C174.471 16.735 174.55 17.0637 174.709 17.347C174.868 17.6303 175.145 17.9023 175.542 18.163C175.939 18.4237 176.5 18.7013 177.225 18.996C177.962 19.2907 178.562 19.608 179.027 19.948C179.503 20.2767 179.854 20.6563 180.081 21.087C180.319 21.5063 180.438 21.9993 180.438 22.566C180.438 23.2913 180.251 23.926 179.877 24.47C179.514 25.0027 178.999 25.422 178.33 25.728C177.673 26.0227 176.891 26.17 175.984 26.17ZM185.407 26.17C184.603 26.17 183.985 25.9717 183.554 25.575C183.135 25.1783 182.925 24.487 182.925 23.501V17.976H181.633V17.177C181.939 17.177 182.228 17.1147 182.5 16.99C182.772 16.8653 182.999 16.7123 183.18 16.531C183.35 16.3383 183.503 16.1003 183.639 15.817C183.775 15.5337 183.883 15.188 183.962 14.78H185.135V16.888H187.328V17.976H185.135V23.416C185.135 23.9487 185.232 24.3453 185.424 24.606C185.628 24.8553 185.923 24.98 186.308 24.98C186.535 24.98 186.739 24.9687 186.92 24.946C187.113 24.912 187.3 24.8723 187.481 24.827V25.796C187.311 25.8753 187.039 25.9547 186.665 26.034C186.303 26.1247 185.883 26.17 185.407 26.17ZM191.285 26.17C190.787 26.17 190.333 26.0737 189.925 25.881C189.529 25.677 189.211 25.371 188.973 24.963C188.747 24.555 188.633 24.0393 188.633 23.416C188.633 22.5093 188.951 21.835 189.585 21.393C190.22 20.951 191.178 20.7073 192.458 20.662L193.869 20.611V19.642C193.869 19.2567 193.841 18.9167 193.784 18.622C193.728 18.316 193.609 18.078 193.427 17.908C193.257 17.738 192.985 17.653 192.611 17.653C192.271 17.653 192.005 17.7323 191.812 17.891C191.62 18.0497 191.489 18.2707 191.421 18.554C191.353 18.826 191.319 19.1377 191.319 19.489C190.662 19.489 190.169 19.4097 189.84 19.251C189.512 19.081 189.347 18.792 189.347 18.384C189.347 17.976 189.495 17.6473 189.789 17.398C190.095 17.1487 190.503 16.9673 191.013 16.854C191.523 16.7407 192.079 16.684 192.679 16.684C193.813 16.684 194.663 16.905 195.229 17.347C195.796 17.7777 196.079 18.5257 196.079 19.591V23.96C196.079 24.266 196.108 24.5097 196.164 24.691C196.232 24.861 196.346 24.9857 196.504 25.065C196.663 25.133 196.867 25.167 197.116 25.167H197.167V26H194.345L194.005 24.725H193.869C193.62 25.031 193.382 25.2917 193.155 25.507C192.94 25.7223 192.685 25.8867 192.39 26C192.107 26.1133 191.739 26.17 191.285 26.17ZM192.016 24.997C192.402 24.997 192.73 24.9063 193.002 24.725C193.274 24.5437 193.484 24.283 193.631 23.943C193.79 23.603 193.869 23.2063 193.869 22.753V21.444L192.985 21.495C192.453 21.5177 192.033 21.6083 191.727 21.767C191.433 21.9257 191.217 22.1467 191.081 22.43C190.957 22.7133 190.894 23.0647 190.894 23.484C190.894 23.824 190.934 24.1073 191.013 24.334C191.093 24.5493 191.217 24.7137 191.387 24.827C191.557 24.9403 191.767 24.997 192.016 24.997ZM201.893 26.17C201.088 26.17 200.47 25.9717 200.04 25.575C199.62 25.1783 199.411 24.487 199.411 23.501V17.976H198.119V17.177C198.425 17.177 198.714 17.1147 198.986 16.99C199.258 16.8653 199.484 16.7123 199.666 16.531C199.836 16.3383 199.989 16.1003 200.125 15.817C200.261 15.5337 200.368 15.188 200.448 14.78H201.621V16.888H203.814V17.976H201.621V23.416C201.621 23.9487 201.717 24.3453 201.91 24.606C202.114 24.8553 202.408 24.98 202.794 24.98C203.02 24.98 203.224 24.9687 203.406 24.946C203.598 24.912 203.785 24.8723 203.967 24.827V25.796C203.797 25.8753 203.525 25.9547 203.151 26.034C202.788 26.1247 202.369 26.17 201.893 26.17ZM208.111 26.17C207.385 26.17 206.785 26.0907 206.309 25.932C205.844 25.7733 205.498 25.5523 205.272 25.269C205.045 24.9743 204.932 24.6343 204.932 24.249C204.932 23.8977 205.011 23.637 205.17 23.467C205.328 23.2857 205.515 23.1667 205.731 23.11C205.946 23.042 206.139 23.008 206.309 23.008C206.309 23.45 206.377 23.841 206.513 24.181C206.66 24.5097 206.87 24.7703 207.142 24.963C207.414 25.1443 207.748 25.235 208.145 25.235C208.745 25.235 209.187 25.1103 209.471 24.861C209.754 24.6117 209.896 24.3 209.896 23.926C209.896 23.6653 209.833 23.4443 209.709 23.263C209.595 23.0817 209.386 22.906 209.08 22.736C208.774 22.566 208.349 22.379 207.805 22.175C207.215 21.9483 206.717 21.7103 206.309 21.461C205.901 21.2003 205.595 20.9 205.391 20.56C205.187 20.22 205.085 19.795 205.085 19.285C205.085 18.435 205.402 17.7947 206.037 17.364C206.671 16.922 207.51 16.701 208.553 16.701C209.21 16.701 209.743 16.7747 210.151 16.922C210.559 17.0693 210.859 17.2677 211.052 17.517C211.244 17.755 211.341 18.01 211.341 18.282C211.341 18.6333 211.216 18.9053 210.967 19.098C210.729 19.2907 210.343 19.387 209.811 19.387C209.811 18.8203 209.686 18.384 209.437 18.078C209.187 17.7607 208.813 17.602 208.315 17.602C208.031 17.602 207.776 17.6473 207.55 17.738C207.334 17.8287 207.164 17.9647 207.04 18.146C206.915 18.316 206.853 18.5257 206.853 18.775C206.853 19.0243 206.921 19.2453 207.057 19.438C207.193 19.6193 207.425 19.795 207.754 19.965C208.082 20.135 208.53 20.322 209.097 20.526C209.641 20.73 210.1 20.9567 210.474 21.206C210.859 21.444 211.154 21.733 211.358 22.073C211.562 22.413 211.664 22.821 211.664 23.297C211.664 24.215 211.346 24.9233 210.712 25.422C210.088 25.9207 209.221 26.17 208.111 26.17Z" fill="white"/>
</svg>
